<svg width="114" height="114" viewBox="0 0 114 114" fill="none" xmlns="http://www.w3.org/2000/svg">
<circle cx="57" cy="57" r="57" fill="#FF9BB4" fill-opacity="0.15"/>
<path fill-rule="evenodd" clip-rule="evenodd" d="M39.7254 32.7862L28.8479 43.6637C28.0308 44.4808 28.0819 45.1447 28.899 45.9618L62.2975 79.3604C63.1146 80.1775 63.7785 80.2285 64.5956 79.4114L79.865 64.1421C87.8316 56.1754 87.1677 47.7492 80.8863 41.4678C76.3923 36.9738 71.6941 35.3396 66.3319 36.8206C65.4637 37.076 65.0552 36.9738 64.6467 36.5653C64.4971 36.4157 64.3749 36.2388 64.22 36.0145C64.1633 35.9324 64.1023 35.844 64.0338 35.7482C63.421 34.829 62.3997 33.3991 61.5826 32.582C55.148 26.1474 46.926 25.5856 39.7254 32.7862ZM53.7691 46.83L51.1647 49.4345C50.3476 50.2516 49.6837 50.2005 48.8666 49.3834L46.4153 46.9321C45.5982 46.115 45.5472 45.4511 46.3643 44.6341L48.9687 42.0296C50.2965 40.7018 52.186 40.5486 53.7181 42.0806C55.3012 43.6638 55.0969 45.5022 53.7691 46.83ZM70.4684 55.052L63.6252 61.8951C62.8082 62.7122 62.1443 62.6611 61.3272 61.8441L58.8759 59.3928C58.0588 58.5757 58.0077 57.9118 58.8248 57.0947L65.668 50.2516C67.6596 48.2599 69.5491 47.9025 71.1833 49.5366C72.8686 51.2219 72.46 53.0603 70.4684 55.052ZM31.7843 61.1546C30.6092 62.3297 30.6092 64.2351 31.7843 65.4102L53.0627 86.6886C54.2379 87.8638 56.1432 87.8638 57.3184 86.6886C58.4936 85.5135 58.4936 83.6081 57.3184 82.4329L36.04 61.1546C34.8648 59.9794 32.9595 59.9794 31.7843 61.1546Z" fill="#FF3567"/>
</svg>
