<svg width="150" height="150" viewBox="0 0 150 150" fill="none" xmlns="http://www.w3.org/2000/svg">
<circle cx="75" cy="75" r="75" fill="white"/>
<path d="M75 0C33.5473 0 0 33.4362 0 74.7517C0 116.067 33.5473 149.503 75 149.503C116.453 149.503 150 116.067 150 74.7517C150 33.4362 116.453 0 75 0ZM75 118.491C50.777 118.491 31.1149 98.8944 31.1149 74.7517C31.1149 50.6089 50.777 31.0118 75 31.0118C99.223 31.0118 118.885 50.6089 118.885 74.7517C118.885 98.8944 99.223 118.491 75 118.491Z" fill="url(#paint0_linear)"/>
<path d="M85.6421 88.7928H64.3583C62.5339 88.7928 61.0137 87.2775 61.0137 85.4592V64.1449C61.0137 62.3266 62.5339 60.8114 64.3583 60.8114H85.7434C87.5677 60.8114 89.088 62.3266 89.088 64.1449V85.4592C89.088 87.2775 87.5677 88.7928 85.6421 88.7928Z" fill="#2059EB"/>
<defs>
<linearGradient id="paint0_linear" x1="75" y1="149.503" x2="75" y2="0" gradientUnits="userSpaceOnUse">
<stop stop-color="#1447EA"/>
<stop offset="1" stop-color="#2B65FB"/>
</linearGradient>
</defs>
</svg>
