<svg width="150" height="150" viewBox="0 0 150 150" fill="none" xmlns="http://www.w3.org/2000/svg">
<circle cx="75" cy="75" r="75" fill="#E7EEFC"/>
<path d="M42.065 54.1332C60.2408 36.3376 89.7096 36.3376 107.885 54.1332L110.073 56.2749C110.982 57.1647 110.982 58.6073 110.073 59.4971L102.59 66.8236C102.136 67.2685 101.399 67.2685 100.944 66.8236L97.9342 63.8763C85.2543 51.4616 64.6961 51.4616 52.0163 63.8763L48.7925 67.0326C48.3381 67.4775 47.6014 67.4775 47.147 67.0326L39.6641 59.7061C38.7553 58.8164 38.7553 57.3737 39.6641 56.484L42.065 54.1332ZM123.361 69.2851L130.021 75.8056C130.929 76.6954 130.929 78.138 130.021 79.0278L99.991 108.43C99.0822 109.32 97.6088 109.32 96.7 108.43C96.7 108.43 96.7 108.43 96.7 108.43L75.3868 87.5624C75.1596 87.3399 74.7912 87.3399 74.564 87.5624C74.564 87.5624 74.564 87.5624 74.564 87.5624L53.2512 108.43C52.3424 109.32 50.869 109.32 49.9602 108.43C49.9602 108.43 49.9602 108.43 49.9602 108.43L19.9296 79.0274C19.0208 78.1376 19.0208 76.695 19.9296 75.8052L26.5895 69.2847C27.4983 68.3949 28.9717 68.3949 29.8805 69.2847L51.1941 90.1524C51.4213 90.3749 51.7896 90.3749 52.0168 90.1524C52.0168 90.1524 52.0168 90.1524 52.0168 90.1524L73.3293 69.2847C74.2381 68.3949 75.7115 68.3948 76.6203 69.2846C76.6204 69.2846 76.6204 69.2846 76.6204 69.2846L97.9339 90.1524C98.1611 90.3749 98.5295 90.3749 98.7567 90.1524L120.07 69.2851C120.979 68.3953 122.452 68.3953 123.361 69.2851Z" fill="#3B99FC"/>
</svg>
