<svg xmlns="http://www.w3.org/2000/svg" xmlns:xlink="http://www.w3.org/1999/xlink" width="400" zoomAndPan="magnify" viewBox="0 0 300 225" height="300" preserveAspectRatio="xMidYMid meet" version="1.0"><defs><clipPath id="id1"><path d="M 292 171.066406 L 300 171.066406 L 300 179.394531 L 292 179.394531 Z M 292 171.066406 " clip-rule="nonzero"/></clipPath><clipPath id="id2"><path d="M 292 156 L 300 156 L 300 164.386719 L 292 164.386719 Z M 292 156 " clip-rule="nonzero"/></clipPath><clipPath id="id3"><path d="M 292 108 L 300 108 L 300 116.421875 L 292 116.421875 Z M 292 108 " clip-rule="nonzero"/></clipPath><clipPath id="id4"><path d="M 292 121.277344 L 300 121.277344 L 300 129.777344 L 292 129.777344 Z M 292 121.277344 " clip-rule="nonzero"/></clipPath><clipPath id="id5"><path d="M 292 96.386719 L 300 96.386719 L 300 104.886719 L 292 104.886719 Z M 292 96.386719 " clip-rule="nonzero"/></clipPath><clipPath id="id6"><path d="M 290 45.9375 L 299 45.9375 L 299 54 L 290 54 Z M 290 45.9375 " clip-rule="nonzero"/></clipPath></defs><path fill="#28dbd1" d="M 23.386719 107.699219 L 27.445312 107.589844 L 31.503906 107.507812 L 39.617188 107.34375 L 47.734375 107.230469 L 55.851562 107.144531 L 63.96875 107.085938 L 72.082031 107.046875 L 80.199219 107.03125 L 88.316406 107.042969 L 87.855469 107.234375 L 93.957031 101.144531 L 100.082031 95.082031 L 100.257812 94.90625 L 100.492188 94.910156 L 109.296875 94.996094 L 118.105469 95.113281 C 121.039062 95.148438 123.976562 95.222656 126.910156 95.28125 L 131.3125 95.371094 L 135.71875 95.488281 L 131.3125 95.609375 L 126.910156 95.699219 C 123.976562 95.753906 121.039062 95.828125 118.105469 95.863281 L 109.296875 95.980469 L 100.492188 96.066406 L 100.898438 95.898438 L 94.851562 102.042969 L 88.78125 108.164062 L 88.589844 108.355469 L 88.316406 108.355469 L 80.199219 108.363281 L 72.082031 108.347656 L 63.96875 108.308594 L 55.851562 108.253906 L 47.734375 108.164062 L 39.617188 108.050781 L 31.503906 107.890625 L 27.445312 107.808594 L 23.386719 107.699219 " fill-opacity="1" fill-rule="nonzero"/><path fill="#28dbd1" d="M 3.90625 143.511719 L 6.59375 139.792969 L 9.296875 136.085938 L 14.707031 128.679688 L 14.792969 128.566406 L 14.945312 128.5625 C 18.867188 128.5 22.792969 128.484375 26.714844 128.441406 L 38.480469 128.335938 L 44.367188 128.289062 L 50.25 128.261719 L 62.019531 128.214844 L 61.5625 128.402344 L 70.476562 119.4375 L 70.671875 119.242188 L 70.949219 119.242188 L 91.96875 119.261719 L 102.480469 119.308594 C 105.984375 119.328125 109.488281 119.339844 112.992188 119.375 L 113.214844 119.378906 L 113.367188 119.53125 L 122.734375 129.101562 L 122.449219 128.980469 L 129.660156 129.046875 L 136.875 129.148438 L 144.085938 129.253906 L 151.300781 129.390625 L 144.085938 129.523438 L 136.875 129.632812 L 129.660156 129.734375 L 122.449219 129.796875 L 122.28125 129.800781 L 122.160156 129.679688 L 112.617188 120.28125 L 112.992188 120.4375 C 109.488281 120.476562 105.984375 120.488281 102.480469 120.503906 L 91.96875 120.550781 L 70.949219 120.570312 L 71.417969 120.378906 L 62.476562 129.316406 L 62.285156 129.507812 L 62.019531 129.507812 L 50.25 129.457031 L 44.367188 129.433594 L 38.480469 129.386719 L 26.714844 129.277344 C 22.792969 129.234375 18.867188 129.222656 14.945312 129.15625 L 15.179688 129.039062 L 9.554688 136.285156 L 6.738281 139.902344 L 3.90625 143.511719 " fill-opacity="1" fill-rule="nonzero"/><path fill="#28dbd1" d="M 17.21875 73.835938 L 17.332031 85.558594 L 17.300781 85.476562 L 27.113281 95.167969 L 26.957031 95.105469 L 46.761719 94.96875 L 46.507812 95.070312 L 56.363281 85.097656 L 56.484375 84.96875 L 56.664062 84.96875 L 81.050781 84.855469 C 89.183594 84.808594 97.3125 84.820312 105.441406 84.800781 L 154.222656 84.726562 L 154.5 84.726562 L 154.695312 84.921875 L 169.890625 100.207031 L 169.441406 100.019531 L 197.726562 100.066406 L 197.308594 100.238281 L 207.90625 89.644531 L 218.535156 79.078125 L 218.683594 78.929688 L 218.890625 78.933594 L 256.519531 79.117188 L 275.335938 79.261719 L 294.152344 79.433594 L 275.335938 79.605469 L 256.519531 79.753906 L 218.890625 79.9375 L 219.246094 79.789062 L 208.710938 90.449219 L 198.144531 101.078125 L 197.972656 101.25 L 197.726562 101.25 L 169.441406 101.292969 L 169.179688 101.292969 L 168.992188 101.109375 L 153.75 85.871094 L 154.222656 86.066406 L 105.441406 85.992188 C 97.3125 85.972656 89.183594 85.984375 81.050781 85.9375 L 56.664062 85.820312 L 56.964844 85.699219 L 47.015625 95.582031 L 46.90625 95.6875 L 46.761719 95.6875 L 26.957031 95.546875 L 26.863281 95.546875 L 26.800781 95.484375 L 17.132812 85.640625 L 17.097656 85.605469 L 17.101562 85.558594 L 17.21875 73.835938 " fill-opacity="1" fill-rule="nonzero"/><path fill="#28dbd1" d="M 176.949219 90.441406 L 180.476562 86.738281 L 184.023438 83.050781 C 186.390625 80.59375 188.75 78.128906 191.128906 75.6875 L 198.269531 68.363281 L 205.433594 61.054688 L 205.601562 60.886719 L 205.84375 60.886719 L 214.527344 60.839844 L 223.210938 60.8125 L 231.894531 60.796875 L 240.582031 60.8125 L 240.121094 61.003906 L 245.898438 55.238281 L 251.691406 49.492188 L 251.871094 49.320312 L 252.109375 49.320312 L 262.617188 49.40625 L 273.128906 49.523438 L 278.382812 49.597656 L 288.894531 49.789062 L 294.152344 49.910156 L 288.894531 50.03125 L 278.382812 50.21875 L 273.128906 50.296875 L 262.617188 50.414062 L 252.109375 50.496094 L 252.523438 50.324219 L 246.792969 56.136719 L 241.042969 61.929688 L 240.851562 62.121094 L 240.582031 62.121094 L 231.894531 62.136719 L 223.210938 62.121094 L 214.527344 62.09375 L 205.84375 62.046875 L 206.253906 61.878906 L 198.96875 69.0625 L 191.664062 76.222656 C 189.230469 78.609375 186.769531 80.972656 184.320312 83.347656 L 180.644531 86.902344 L 176.949219 90.441406 " fill-opacity="1" fill-rule="nonzero"/><path fill="#28dbd1" d="M 29.230469 139.605469 L 42.296875 139.46875 L 55.367188 139.359375 L 68.433594 139.257812 L 81.5 139.191406 L 81.207031 139.3125 L 90.414062 129.988281 L 90.550781 129.847656 L 90.75 129.847656 L 101.546875 129.792969 L 112.339844 129.753906 L 112.578125 129.753906 L 112.746094 129.921875 L 124.859375 142.027344 L 124.4375 141.851562 L 150.691406 141.808594 L 163.820312 141.785156 L 176.949219 141.800781 L 177.21875 141.800781 L 177.410156 141.992188 L 200.949219 165.675781 L 200.527344 165.503906 L 214.222656 165.523438 L 227.921875 165.585938 L 228.136719 165.585938 L 228.28125 165.734375 L 237.589844 175.164062 L 237.273438 175.03125 L 259.332031 175.144531 L 266.6875 175.207031 L 281.390625 175.328125 L 296.097656 175.480469 L 281.390625 175.628906 L 266.6875 175.75 L 259.332031 175.8125 L 237.273438 175.925781 L 237.09375 175.925781 L 236.960938 175.792969 L 227.554688 166.460938 L 227.921875 166.613281 L 214.222656 166.671875 L 200.527344 166.691406 L 200.28125 166.691406 L 200.109375 166.519531 L 176.492188 142.914062 L 176.949219 143.101562 L 163.820312 143.121094 L 150.691406 143.097656 L 124.4375 143.054688 L 124.1875 143.054688 L 124.011719 142.878906 L 111.9375 130.730469 L 112.339844 130.898438 L 101.546875 130.859375 L 90.75 130.804688 L 91.089844 130.664062 L 81.789062 139.898438 L 81.667969 140.015625 L 81.5 140.015625 L 68.433594 139.949219 L 55.367188 139.847656 L 42.296875 139.738281 L 29.230469 139.605469 " fill-opacity="1" fill-rule="nonzero"/><path fill="#28dbd1" d="M 122.40625 109.976562 L 130.238281 109.847656 L 145.902344 109.636719 L 153.738281 109.574219 L 169.398438 109.449219 C 174.621094 109.398438 179.84375 109.390625 185.0625 109.367188 L 185.316406 109.363281 L 185.496094 109.542969 L 193.394531 117.414062 L 201.277344 125.296875 L 200.808594 125.105469 L 224.632812 125.125 L 236.542969 125.164062 L 248.453125 125.230469 L 272.277344 125.425781 L 284.1875 125.582031 L 290.140625 125.660156 L 296.097656 125.769531 L 290.140625 125.871094 L 284.1875 125.953125 L 272.277344 126.109375 L 248.453125 126.304688 L 236.542969 126.367188 L 224.632812 126.414062 L 200.808594 126.429688 L 200.535156 126.429688 L 200.34375 126.234375 L 192.480469 118.332031 L 184.632812 110.410156 L 185.0625 110.589844 C 179.84375 110.5625 174.621094 110.558594 169.398438 110.507812 L 153.738281 110.378906 L 145.902344 110.3125 L 130.238281 110.109375 L 122.40625 109.976562 " fill-opacity="1" fill-rule="nonzero"/><path fill="#28dbd1" d="M 205.84375 117.871094 L 207.902344 115.667969 L 209.976562 113.480469 L 214.128906 109.105469 L 218.304688 104.761719 L 222.503906 100.433594 L 222.648438 100.285156 L 222.867188 100.28125 C 225.921875 100.238281 228.972656 100.214844 232.023438 100.191406 L 236.597656 100.160156 L 241.175781 100.148438 C 244.226562 100.140625 247.277344 100.121094 250.328125 100.136719 L 259.480469 100.164062 L 268.636719 100.238281 L 277.789062 100.359375 L 282.367188 100.441406 C 283.894531 100.464844 285.417969 100.511719 286.945312 100.546875 L 291.519531 100.660156 C 293.046875 100.691406 294.570312 100.75 296.097656 100.800781 C 294.570312 100.847656 293.046875 100.910156 291.519531 100.941406 L 286.945312 101.054688 C 285.417969 101.089844 283.894531 101.136719 282.367188 101.15625 L 277.789062 101.242188 L 268.636719 101.363281 L 259.480469 101.433594 L 250.328125 101.464844 C 247.277344 101.480469 244.226562 101.457031 241.175781 101.453125 L 236.597656 101.441406 L 232.023438 101.410156 C 228.972656 101.386719 225.921875 101.363281 222.867188 101.320312 L 223.234375 101.167969 L 218.917969 105.375 L 214.585938 109.566406 L 210.222656 113.726562 L 208.042969 115.808594 L 205.84375 117.871094 " fill-opacity="1" fill-rule="nonzero"/><path fill="#28dbd1" d="M 235.550781 125.769531 C 236.613281 124.582031 237.691406 123.410156 238.769531 122.242188 C 239.855469 121.078125 240.9375 119.90625 242.03125 118.753906 C 243.128906 117.601562 244.210938 116.4375 245.316406 115.296875 L 248.621094 111.855469 L 248.78125 111.691406 L 249.023438 111.6875 L 254.910156 111.621094 L 260.792969 111.59375 L 263.734375 111.589844 L 266.675781 111.601562 C 268.636719 111.609375 270.601562 111.605469 272.5625 111.636719 C 274.519531 111.660156 276.484375 111.671875 278.445312 111.710938 C 280.40625 111.753906 282.367188 111.773438 284.328125 111.832031 C 286.289062 111.882812 288.253906 111.933594 290.214844 112.007812 L 293.15625 112.121094 C 294.136719 112.15625 295.117188 112.210938 296.097656 112.257812 C 295.117188 112.300781 294.136719 112.359375 293.15625 112.394531 L 290.214844 112.503906 C 288.253906 112.578125 286.289062 112.628906 284.328125 112.679688 C 282.367188 112.734375 280.40625 112.757812 278.445312 112.800781 C 276.484375 112.839844 274.519531 112.851562 272.5625 112.875 C 270.601562 112.90625 268.636719 112.902344 266.675781 112.914062 L 263.734375 112.921875 L 260.792969 112.917969 L 254.910156 112.890625 L 249.023438 112.824219 L 249.421875 112.65625 L 245.992188 115.972656 C 244.851562 117.082031 243.691406 118.167969 242.542969 119.265625 C 241.390625 120.367188 240.222656 121.445312 239.066406 122.539062 C 237.902344 123.621094 236.730469 124.699219 235.550781 125.769531 " fill-opacity="1" fill-rule="nonzero"/><path fill="#28dbd1" d="M 172.402344 127.558594 C 174.460938 127.507812 176.515625 127.449219 178.570312 127.417969 L 184.738281 127.300781 L 184.839844 127.300781 L 184.921875 127.375 L 189.296875 131.617188 L 193.65625 135.875 L 202.34375 144.414062 L 201.949219 144.25 L 213.472656 144.183594 L 224.996094 144.152344 C 228.839844 144.140625 232.679688 144.148438 236.523438 144.15625 L 248.050781 144.191406 L 259.574219 144.269531 L 271.097656 144.386719 C 274.941406 144.4375 278.785156 144.492188 282.625 144.570312 L 288.386719 144.679688 C 290.308594 144.707031 292.226562 144.769531 294.152344 144.8125 C 292.226562 144.859375 290.308594 144.917969 288.386719 144.949219 L 282.625 145.058594 C 278.785156 145.136719 274.941406 145.1875 271.097656 145.238281 L 259.574219 145.359375 L 248.050781 145.433594 L 236.523438 145.46875 C 232.679688 145.480469 228.839844 145.488281 224.996094 145.476562 L 213.472656 145.445312 L 201.949219 145.378906 L 201.710938 145.375 L 201.550781 145.210938 L 193.03125 136.496094 L 188.789062 132.125 L 184.558594 127.738281 L 184.738281 127.816406 L 178.570312 127.699219 C 176.515625 127.667969 174.460938 127.605469 172.402344 127.558594 " fill-opacity="1" fill-rule="nonzero"/><path fill="#28dbd1" d="M 240.90625 146.441406 L 242.71875 148.082031 L 244.515625 149.738281 C 245.707031 150.847656 246.902344 151.960938 248.082031 153.082031 C 249.265625 154.199219 250.441406 155.328125 251.613281 156.457031 C 252.789062 157.585938 253.960938 158.71875 255.121094 159.859375 L 254.703125 159.6875 C 256.429688 159.667969 258.152344 159.632812 259.878906 159.632812 L 265.050781 159.609375 L 267.640625 159.613281 L 270.226562 159.625 C 271.953125 159.628906 273.675781 159.644531 275.402344 159.667969 C 277.125 159.691406 278.851562 159.707031 280.574219 159.746094 C 282.300781 159.785156 284.023438 159.8125 285.75 159.867188 C 287.476562 159.914062 289.199219 159.96875 290.925781 160.035156 L 293.511719 160.144531 C 294.375 160.179688 295.238281 160.234375 296.097656 160.277344 C 295.238281 160.320312 294.375 160.375 293.511719 160.410156 L 290.925781 160.519531 C 289.199219 160.585938 287.476562 160.640625 285.75 160.6875 C 284.023438 160.742188 282.300781 160.769531 280.574219 160.808594 C 278.851562 160.847656 277.125 160.863281 275.402344 160.886719 C 273.675781 160.914062 271.953125 160.929688 270.226562 160.929688 L 267.640625 160.941406 L 265.050781 160.945312 L 259.878906 160.925781 C 258.152344 160.921875 256.429688 160.886719 254.703125 160.871094 L 254.453125 160.867188 L 254.285156 160.695312 C 253.148438 159.53125 252.019531 158.355469 250.894531 157.179688 C 249.765625 156.003906 248.644531 154.824219 247.53125 153.636719 C 246.410156 152.453125 245.300781 151.257812 244.195312 150.0625 L 242.542969 148.257812 L 240.90625 146.441406 " fill-opacity="1" fill-rule="nonzero"/><path fill="#28dbd1" d="M 21.125 73.835938 C 21.125 76.003906 19.375 77.753906 17.21875 77.753906 C 15.058594 77.753906 13.308594 76.003906 13.308594 73.835938 C 13.308594 71.675781 15.058594 69.921875 17.21875 69.921875 C 19.375 69.921875 21.125 71.675781 21.125 73.835938 " fill-opacity="1" fill-rule="nonzero"/><path fill="#28dbd1" d="M 27.292969 107.699219 C 27.292969 109.863281 25.542969 111.617188 23.386719 111.617188 C 21.230469 111.617188 19.476562 109.863281 19.476562 107.699219 C 19.476562 105.535156 21.230469 103.78125 23.386719 103.78125 C 25.542969 103.78125 27.292969 105.535156 27.292969 107.699219 " fill-opacity="1" fill-rule="nonzero"/><path fill="#28dbd1" d="M 7.8125 143.511719 C 7.8125 145.675781 6.0625 147.429688 3.90625 147.429688 C 1.746094 147.429688 0 145.675781 0 143.511719 C 0 141.347656 1.746094 139.59375 3.90625 139.59375 C 6.0625 139.59375 7.8125 141.347656 7.8125 143.511719 " fill-opacity="1" fill-rule="nonzero"/><path fill="#28dbd1" d="M 35.105469 139.59375 C 35.105469 141.757812 33.355469 143.511719 31.199219 143.511719 C 29.039062 143.511719 27.292969 141.757812 27.292969 139.59375 C 27.292969 137.429688 29.039062 135.675781 31.199219 135.675781 C 33.355469 135.675781 35.105469 137.429688 35.105469 139.59375 " fill-opacity="1" fill-rule="nonzero"/><path fill="#28dbd1" d="M 139.625 95.488281 C 139.625 97.652344 137.875 99.40625 135.71875 99.40625 C 133.5625 99.40625 131.808594 97.652344 131.808594 95.488281 C 131.808594 93.324219 133.5625 91.570312 135.71875 91.570312 C 137.875 91.570312 139.625 93.324219 139.625 95.488281 " fill-opacity="1" fill-rule="nonzero"/><path fill="#28dbd1" d="M 153.238281 129.753906 C 153.238281 131.914062 151.492188 133.667969 149.332031 133.667969 C 147.175781 133.667969 145.429688 131.914062 145.429688 129.753906 C 145.429688 127.585938 147.175781 125.835938 149.332031 125.835938 C 151.492188 125.835938 153.238281 127.585938 153.238281 129.753906 " fill-opacity="1" fill-rule="nonzero"/><path fill="#28dbd1" d="M 126.3125 109.976562 C 126.3125 112.140625 124.5625 113.894531 122.40625 113.894531 C 120.246094 113.894531 118.5 112.140625 118.5 109.976562 C 118.5 107.8125 120.246094 106.058594 122.40625 106.058594 C 124.5625 106.058594 126.3125 107.8125 126.3125 109.976562 " fill-opacity="1" fill-rule="nonzero"/><path fill="#28dbd1" d="M 176.308594 127.558594 C 176.308594 129.722656 174.5625 131.476562 172.402344 131.476562 C 170.246094 131.476562 168.496094 129.722656 168.496094 127.558594 C 168.496094 125.394531 170.246094 123.640625 172.402344 123.640625 C 174.5625 123.640625 176.308594 125.394531 176.308594 127.558594 " fill-opacity="1" fill-rule="nonzero"/><path fill="#28dbd1" d="M 180.855469 90.441406 C 180.855469 92.605469 179.105469 94.359375 176.949219 94.359375 C 174.789062 94.359375 173.042969 92.605469 173.042969 90.441406 C 173.042969 88.277344 174.789062 86.527344 176.949219 86.527344 C 179.105469 86.527344 180.855469 88.277344 180.855469 90.441406 " fill-opacity="1" fill-rule="nonzero"/><path fill="#28dbd1" d="M 209.75 117.871094 C 209.75 120.035156 208 121.789062 205.84375 121.789062 C 203.6875 121.789062 201.9375 120.035156 201.9375 117.871094 C 201.9375 115.707031 203.6875 113.953125 205.84375 113.953125 C 208 113.953125 209.75 115.707031 209.75 117.871094 " fill-opacity="1" fill-rule="nonzero"/><path fill="#28dbd1" d="M 247.183594 149.398438 C 247.183594 151.5625 245.433594 153.316406 243.277344 153.316406 C 241.117188 153.316406 239.371094 151.5625 239.371094 149.398438 C 239.371094 147.234375 241.117188 145.480469 243.277344 145.480469 C 245.433594 145.480469 247.183594 147.234375 247.183594 149.398438 " fill-opacity="1" fill-rule="nonzero"/><g clip-path="url(#id1)"><path fill="#28dbd1" d="M 300.003906 175.480469 C 300.003906 177.640625 298.253906 179.394531 296.097656 179.394531 C 293.941406 179.394531 292.191406 177.640625 292.191406 175.480469 C 292.191406 173.316406 293.941406 171.5625 296.097656 171.5625 C 298.253906 171.5625 300.003906 173.316406 300.003906 175.480469 " fill-opacity="1" fill-rule="nonzero"/></g><g clip-path="url(#id2)"><path fill="#28dbd1" d="M 300.003906 160.277344 C 300.003906 162.441406 298.253906 164.195312 296.097656 164.195312 C 293.941406 164.195312 292.191406 162.441406 292.191406 160.277344 C 292.191406 158.113281 293.941406 156.359375 296.097656 156.359375 C 298.253906 156.359375 300.003906 158.113281 300.003906 160.277344 " fill-opacity="1" fill-rule="nonzero"/></g><path fill="#28dbd1" d="M 298.054688 145.480469 C 298.054688 147.644531 296.308594 149.398438 294.152344 149.398438 C 291.992188 149.398438 290.246094 147.644531 290.246094 145.480469 C 290.246094 143.320312 291.992188 141.5625 294.152344 141.5625 C 296.308594 141.5625 298.054688 143.320312 298.054688 145.480469 " fill-opacity="1" fill-rule="nonzero"/><g clip-path="url(#id3)"><path fill="#28dbd1" d="M 300.003906 112.257812 C 300.003906 114.417969 298.253906 116.171875 296.097656 116.171875 C 293.941406 116.171875 292.191406 114.417969 292.191406 112.257812 C 292.191406 110.089844 293.941406 108.339844 296.097656 108.339844 C 298.253906 108.339844 300.003906 110.089844 300.003906 112.257812 " fill-opacity="1" fill-rule="nonzero"/></g><path fill="#28dbd1" d="M 242.722656 121.851562 C 242.722656 124.011719 240.972656 125.769531 238.816406 125.769531 C 236.660156 125.769531 234.910156 124.011719 234.910156 121.851562 C 234.910156 119.6875 236.660156 117.933594 238.816406 117.933594 C 240.972656 117.933594 242.722656 119.6875 242.722656 121.851562 " fill-opacity="1" fill-rule="nonzero"/><g clip-path="url(#id4)"><path fill="#28dbd1" d="M 300.003906 125.769531 C 300.003906 127.929688 298.253906 129.683594 296.097656 129.683594 C 293.941406 129.683594 292.191406 127.929688 292.191406 125.769531 C 292.191406 123.605469 293.941406 121.851562 296.097656 121.851562 C 298.253906 121.851562 300.003906 123.605469 300.003906 125.769531 " fill-opacity="1" fill-rule="nonzero"/></g><g clip-path="url(#id5)"><path fill="#28dbd1" d="M 300.003906 100.800781 C 300.003906 102.964844 298.253906 104.71875 296.097656 104.71875 C 293.941406 104.71875 292.191406 102.964844 292.191406 100.800781 C 292.191406 98.636719 293.941406 96.882812 296.097656 96.882812 C 298.253906 96.882812 300.003906 98.636719 300.003906 100.800781 " fill-opacity="1" fill-rule="nonzero"/></g><path fill="#28dbd1" d="M 298.054688 79.433594 C 298.054688 81.597656 296.308594 83.351562 294.152344 83.351562 C 291.992188 83.351562 290.246094 81.597656 290.246094 79.433594 C 290.246094 77.273438 291.992188 75.515625 294.152344 75.515625 C 296.308594 75.515625 298.054688 77.273438 298.054688 79.433594 " fill-opacity="1" fill-rule="nonzero"/><g clip-path="url(#id6)"><path fill="#28dbd1" d="M 298.054688 49.910156 C 298.054688 52.074219 296.308594 53.824219 294.152344 53.824219 C 291.992188 53.824219 290.246094 52.074219 290.246094 49.910156 C 290.246094 47.746094 291.992188 45.992188 294.152344 45.992188 C 296.308594 45.992188 298.054688 47.746094 298.054688 49.910156 " fill-opacity="1" fill-rule="nonzero"/></g></svg>