<svg xmlns="http://www.w3.org/2000/svg" xmlns:xlink="http://www.w3.org/1999/xlink" width="400" zoomAndPan="magnify" viewBox="0 0 300 225" height="300" preserveAspectRatio="xMidYMid meet" version="1.0"><defs><clipPath id="id1"><path d="M 0 171.066406 L 8 171.066406 L 8 179.394531 L 0 179.394531 Z M 0 171.066406 " clip-rule="nonzero"/></clipPath><clipPath id="id2"><path d="M 0 156 L 8 156 L 8 164.386719 L 0 164.386719 Z M 0 156 " clip-rule="nonzero"/></clipPath><clipPath id="id3"><path d="M 0 108 L 8 108 L 8 116.421875 L 0 116.421875 Z M 0 108 " clip-rule="nonzero"/></clipPath><clipPath id="id4"><path d="M 0 121.277344 L 8 121.277344 L 8 129.777344 L 0 129.777344 Z M 0 121.277344 " clip-rule="nonzero"/></clipPath><clipPath id="id5"><path d="M 0 96.386719 L 8 96.386719 L 8 104.886719 L 0 104.886719 Z M 0 96.386719 " clip-rule="nonzero"/></clipPath><clipPath id="id6"><path d="M 1 45.9375 L 10 45.9375 L 10 54 L 1 54 Z M 1 45.9375 " clip-rule="nonzero"/></clipPath></defs><path fill="#28dbd1" d="M 276.613281 107.699219 L 272.554688 107.589844 L 268.496094 107.507812 L 260.382812 107.34375 L 252.265625 107.230469 L 244.148438 107.144531 L 236.03125 107.085938 L 227.917969 107.046875 L 219.800781 107.03125 L 211.683594 107.042969 L 212.144531 107.234375 L 206.042969 101.144531 L 199.917969 95.082031 L 199.742188 94.90625 L 199.507812 94.910156 L 190.703125 94.996094 L 181.894531 95.113281 C 178.960938 95.148438 176.023438 95.222656 173.089844 95.28125 L 168.6875 95.371094 L 164.28125 95.488281 L 168.6875 95.609375 L 173.089844 95.699219 C 176.023438 95.753906 178.960938 95.828125 181.894531 95.863281 L 190.703125 95.980469 L 199.507812 96.066406 L 199.101562 95.898438 L 205.148438 102.042969 L 211.21875 108.164062 L 211.410156 108.355469 L 211.683594 108.355469 L 219.800781 108.363281 L 227.917969 108.347656 L 236.03125 108.308594 L 244.148438 108.253906 L 252.265625 108.164062 L 260.382812 108.050781 L 268.496094 107.890625 L 272.554688 107.808594 L 276.613281 107.699219 " fill-opacity="1" fill-rule="nonzero"/><path fill="#28dbd1" d="M 296.09375 143.511719 L 293.40625 139.792969 L 290.703125 136.085938 L 285.292969 128.679688 L 285.207031 128.566406 L 285.054688 128.5625 C 281.132812 128.5 277.207031 128.484375 273.285156 128.441406 L 261.519531 128.335938 L 255.632812 128.289062 L 249.75 128.261719 L 237.980469 128.214844 L 238.4375 128.402344 L 229.523438 119.4375 L 229.328125 119.242188 L 229.050781 119.242188 L 208.03125 119.261719 L 197.519531 119.308594 C 194.015625 119.328125 190.511719 119.339844 187.007812 119.375 L 186.785156 119.378906 L 186.632812 119.53125 L 177.265625 129.101562 L 177.550781 128.980469 L 170.339844 129.046875 L 163.125 129.148438 L 155.914062 129.253906 L 148.699219 129.390625 L 155.914062 129.523438 L 163.125 129.632812 L 170.339844 129.734375 L 177.550781 129.796875 L 177.71875 129.800781 L 177.839844 129.679688 L 187.382812 120.28125 L 187.007812 120.4375 C 190.511719 120.476562 194.015625 120.488281 197.519531 120.503906 L 208.03125 120.550781 L 229.050781 120.570312 L 228.582031 120.378906 L 237.523438 129.316406 L 237.714844 129.507812 L 237.980469 129.507812 L 249.75 129.457031 L 255.632812 129.433594 L 261.519531 129.386719 L 273.285156 129.277344 C 277.207031 129.234375 281.132812 129.222656 285.054688 129.15625 L 284.820312 129.039062 L 290.445312 136.285156 L 293.261719 139.902344 L 296.09375 143.511719 " fill-opacity="1" fill-rule="nonzero"/><path fill="#28dbd1" d="M 282.78125 73.835938 L 282.667969 85.558594 L 282.699219 85.476562 L 272.886719 95.167969 L 273.042969 95.105469 L 253.238281 94.96875 L 253.492188 95.070312 L 243.636719 85.097656 L 243.515625 84.96875 L 243.335938 84.96875 L 218.949219 84.855469 C 210.816406 84.808594 202.6875 84.820312 194.558594 84.800781 L 145.777344 84.726562 L 145.5 84.726562 L 145.304688 84.921875 L 130.109375 100.207031 L 130.558594 100.019531 L 102.273438 100.066406 L 102.691406 100.238281 L 92.09375 89.644531 L 81.464844 79.078125 L 81.316406 78.929688 L 81.109375 78.933594 L 43.480469 79.117188 L 24.664062 79.261719 L 5.847656 79.433594 L 24.664062 79.605469 L 43.480469 79.753906 L 81.109375 79.9375 L 80.753906 79.789062 L 91.289062 90.449219 L 101.855469 101.078125 L 102.027344 101.25 L 102.273438 101.25 L 130.558594 101.292969 L 130.820312 101.292969 L 131.007812 101.109375 L 146.25 85.871094 L 145.777344 86.066406 L 194.558594 85.992188 C 202.6875 85.972656 210.816406 85.984375 218.949219 85.9375 L 243.335938 85.820312 L 243.035156 85.699219 L 252.984375 95.582031 L 253.09375 95.6875 L 253.238281 95.6875 L 273.042969 95.546875 L 273.136719 95.546875 L 273.199219 95.484375 L 282.867188 85.640625 L 282.902344 85.605469 L 282.898438 85.558594 L 282.78125 73.835938 " fill-opacity="1" fill-rule="nonzero"/><path fill="#28dbd1" d="M 123.050781 90.441406 L 119.523438 86.738281 L 115.976562 83.050781 C 113.609375 80.59375 111.25 78.128906 108.871094 75.6875 L 101.730469 68.363281 L 94.566406 61.054688 L 94.398438 60.886719 L 94.15625 60.886719 L 85.472656 60.839844 L 76.789062 60.8125 L 68.105469 60.796875 L 59.417969 60.8125 L 59.878906 61.003906 L 54.101562 55.238281 L 48.308594 49.492188 L 48.128906 49.320312 L 47.890625 49.320312 L 37.382812 49.40625 L 26.871094 49.523438 L 21.617188 49.597656 L 11.105469 49.789062 L 5.847656 49.910156 L 11.105469 50.03125 L 21.617188 50.21875 L 26.871094 50.296875 L 37.382812 50.414062 L 47.890625 50.496094 L 47.476562 50.324219 L 53.207031 56.136719 L 58.957031 61.929688 L 59.148438 62.121094 L 59.417969 62.121094 L 68.105469 62.136719 L 76.789062 62.121094 L 85.472656 62.09375 L 94.15625 62.046875 L 93.746094 61.878906 L 101.03125 69.0625 L 108.335938 76.222656 C 110.769531 78.609375 113.230469 80.972656 115.679688 83.347656 L 119.355469 86.902344 L 123.050781 90.441406 " fill-opacity="1" fill-rule="nonzero"/><path fill="#28dbd1" d="M 270.769531 139.605469 L 257.703125 139.46875 L 244.632812 139.359375 L 231.566406 139.257812 L 218.5 139.191406 L 218.792969 139.3125 L 209.585938 129.988281 L 209.449219 129.847656 L 209.25 129.847656 L 198.453125 129.792969 L 187.660156 129.753906 L 187.421875 129.753906 L 187.253906 129.921875 L 175.140625 142.027344 L 175.5625 141.851562 L 149.308594 141.808594 L 136.179688 141.785156 L 123.050781 141.800781 L 122.78125 141.800781 L 122.589844 141.992188 L 99.050781 165.675781 L 99.472656 165.503906 L 85.777344 165.523438 L 72.078125 165.585938 L 71.863281 165.585938 L 71.71875 165.734375 L 62.410156 175.164062 L 62.726562 175.03125 L 40.667969 175.144531 L 33.3125 175.207031 L 18.609375 175.328125 L 3.902344 175.480469 L 18.609375 175.628906 L 33.3125 175.75 L 40.667969 175.8125 L 62.726562 175.925781 L 62.90625 175.925781 L 63.039062 175.792969 L 72.445312 166.460938 L 72.078125 166.613281 L 85.777344 166.671875 L 99.472656 166.691406 L 99.71875 166.691406 L 99.890625 166.519531 L 123.507812 142.914062 L 123.050781 143.101562 L 136.179688 143.121094 L 149.308594 143.097656 L 175.5625 143.054688 L 175.8125 143.054688 L 175.988281 142.878906 L 188.0625 130.730469 L 187.660156 130.898438 L 198.453125 130.859375 L 209.25 130.804688 L 208.910156 130.664062 L 218.210938 139.898438 L 218.332031 140.015625 L 218.5 140.015625 L 231.566406 139.949219 L 244.632812 139.847656 L 257.703125 139.738281 L 270.769531 139.605469 " fill-opacity="1" fill-rule="nonzero"/><path fill="#28dbd1" d="M 177.59375 109.976562 L 169.761719 109.847656 L 154.097656 109.636719 L 146.261719 109.574219 L 130.597656 109.449219 C 125.378906 109.398438 120.15625 109.390625 114.9375 109.367188 L 114.683594 109.363281 L 114.503906 109.542969 L 106.605469 117.414062 L 98.722656 125.296875 L 99.191406 125.105469 L 75.367188 125.125 L 63.457031 125.164062 L 51.546875 125.230469 L 27.722656 125.425781 L 15.8125 125.582031 L 9.859375 125.660156 L 3.902344 125.769531 L 9.859375 125.871094 L 15.8125 125.953125 L 27.722656 126.109375 L 51.546875 126.304688 L 63.457031 126.367188 L 75.367188 126.414062 L 99.191406 126.429688 L 99.464844 126.429688 L 99.65625 126.234375 L 107.519531 118.332031 L 115.367188 110.410156 L 114.9375 110.589844 C 120.15625 110.5625 125.378906 110.558594 130.597656 110.507812 L 146.261719 110.378906 L 154.097656 110.3125 L 169.761719 110.109375 L 177.59375 109.976562 " fill-opacity="1" fill-rule="nonzero"/><path fill="#28dbd1" d="M 94.15625 117.871094 L 92.097656 115.667969 L 90.023438 113.480469 L 85.871094 109.105469 L 81.695312 104.761719 L 77.496094 100.433594 L 77.351562 100.285156 L 77.132812 100.28125 C 74.078125 100.238281 71.027344 100.214844 67.976562 100.191406 L 63.402344 100.160156 L 58.824219 100.148438 C 55.773438 100.140625 52.722656 100.121094 49.671875 100.136719 L 40.519531 100.164062 L 31.363281 100.238281 L 22.210938 100.359375 L 17.632812 100.441406 C 16.105469 100.464844 14.582031 100.511719 13.054688 100.546875 L 8.480469 100.660156 C 6.953125 100.691406 5.429688 100.75 3.902344 100.800781 C 5.429688 100.847656 6.953125 100.910156 8.480469 100.941406 L 13.054688 101.054688 C 14.582031 101.089844 16.105469 101.136719 17.632812 101.15625 L 22.210938 101.242188 L 31.363281 101.363281 L 40.519531 101.433594 L 49.671875 101.464844 C 52.722656 101.480469 55.773438 101.457031 58.824219 101.453125 L 63.402344 101.441406 L 67.976562 101.410156 C 71.027344 101.386719 74.078125 101.363281 77.132812 101.320312 L 76.765625 101.167969 L 81.082031 105.375 L 85.414062 109.566406 L 89.777344 113.726562 L 91.957031 115.808594 L 94.15625 117.871094 " fill-opacity="1" fill-rule="nonzero"/><path fill="#28dbd1" d="M 64.449219 125.769531 C 63.386719 124.582031 62.308594 123.410156 61.230469 122.242188 C 60.144531 121.078125 59.0625 119.90625 57.96875 118.753906 C 56.871094 117.601562 55.789062 116.4375 54.683594 115.296875 L 51.378906 111.855469 L 51.21875 111.691406 L 50.976562 111.6875 L 45.089844 111.621094 L 39.207031 111.59375 L 36.265625 111.589844 L 33.324219 111.601562 C 31.363281 111.609375 29.398438 111.605469 27.4375 111.636719 C 25.480469 111.660156 23.515625 111.671875 21.554688 111.710938 C 19.59375 111.753906 17.632812 111.773438 15.671875 111.832031 C 13.710938 111.882812 11.746094 111.933594 9.785156 112.007812 L 6.84375 112.121094 C 5.863281 112.15625 4.882812 112.210938 3.902344 112.257812 C 4.882812 112.300781 5.863281 112.359375 6.84375 112.394531 L 9.785156 112.503906 C 11.746094 112.578125 13.710938 112.628906 15.671875 112.679688 C 17.632812 112.734375 19.59375 112.757812 21.554688 112.800781 C 23.515625 112.839844 25.480469 112.851562 27.4375 112.875 C 29.398438 112.90625 31.363281 112.902344 33.324219 112.914062 L 36.265625 112.921875 L 39.207031 112.917969 L 45.089844 112.890625 L 50.976562 112.824219 L 50.578125 112.65625 L 54.007812 115.972656 C 55.148438 117.082031 56.308594 118.167969 57.457031 119.265625 C 58.609375 120.367188 59.777344 121.445312 60.933594 122.539062 C 62.097656 123.621094 63.269531 124.699219 64.449219 125.769531 " fill-opacity="1" fill-rule="nonzero"/><path fill="#28dbd1" d="M 127.597656 127.558594 C 125.539062 127.507812 123.484375 127.449219 121.429688 127.417969 L 115.261719 127.300781 L 115.160156 127.300781 L 115.078125 127.375 L 110.703125 131.617188 L 106.34375 135.875 L 97.65625 144.414062 L 98.050781 144.25 L 86.527344 144.183594 L 75.003906 144.152344 C 71.160156 144.140625 67.316406 144.148438 63.476562 144.15625 L 51.949219 144.191406 L 40.425781 144.269531 L 28.902344 144.386719 C 25.058594 144.4375 21.214844 144.492188 17.375 144.570312 L 11.613281 144.679688 C 9.691406 144.707031 7.773438 144.769531 5.847656 144.8125 C 7.773438 144.859375 9.691406 144.917969 11.613281 144.949219 L 17.375 145.058594 C 21.214844 145.136719 25.058594 145.1875 28.902344 145.238281 L 40.425781 145.359375 L 51.949219 145.433594 L 63.476562 145.46875 C 67.316406 145.480469 71.160156 145.488281 75.003906 145.476562 L 86.527344 145.445312 L 98.050781 145.378906 L 98.289062 145.375 L 98.449219 145.210938 L 106.96875 136.496094 L 111.210938 132.125 L 115.441406 127.738281 L 115.261719 127.816406 L 121.429688 127.699219 C 123.484375 127.667969 125.539062 127.605469 127.597656 127.558594 " fill-opacity="1" fill-rule="nonzero"/><path fill="#28dbd1" d="M 59.09375 146.441406 L 57.28125 148.082031 L 55.484375 149.738281 C 54.292969 150.847656 53.097656 151.960938 51.917969 153.082031 C 50.734375 154.199219 49.558594 155.328125 48.386719 156.457031 C 47.210938 157.585938 46.039062 158.71875 44.878906 159.859375 L 45.296875 159.6875 C 43.570312 159.667969 41.847656 159.632812 40.121094 159.632812 L 34.949219 159.609375 L 32.359375 159.613281 L 29.773438 159.625 C 28.046875 159.628906 26.324219 159.644531 24.597656 159.667969 C 22.875 159.691406 21.148438 159.707031 19.425781 159.746094 C 17.699219 159.785156 15.976562 159.8125 14.25 159.867188 C 12.523438 159.914062 10.800781 159.96875 9.074219 160.035156 L 6.488281 160.144531 C 5.625 160.179688 4.761719 160.234375 3.902344 160.277344 C 4.761719 160.320312 5.625 160.375 6.488281 160.410156 L 9.074219 160.519531 C 10.800781 160.585938 12.523438 160.640625 14.25 160.6875 C 15.976562 160.742188 17.699219 160.769531 19.425781 160.808594 C 21.148438 160.847656 22.875 160.863281 24.597656 160.886719 C 26.324219 160.914062 28.046875 160.929688 29.773438 160.929688 L 32.359375 160.941406 L 34.949219 160.945312 L 40.121094 160.925781 C 41.847656 160.921875 43.570312 160.886719 45.296875 160.871094 L 45.546875 160.867188 L 45.714844 160.695312 C 46.851562 159.53125 47.980469 158.355469 49.105469 157.179688 C 50.234375 156.003906 51.355469 154.824219 52.46875 153.636719 C 53.589844 152.453125 54.699219 151.257812 55.804688 150.0625 L 57.457031 148.257812 L 59.09375 146.441406 " fill-opacity="1" fill-rule="nonzero"/><path fill="#28dbd1" d="M 278.875 73.835938 C 278.875 76.003906 280.625 77.753906 282.78125 77.753906 C 284.9375 77.753906 286.691406 76.003906 286.691406 73.835938 C 286.691406 71.675781 284.9375 69.921875 282.78125 69.921875 C 280.625 69.921875 278.875 71.675781 278.875 73.835938 " fill-opacity="1" fill-rule="nonzero"/><path fill="#28dbd1" d="M 272.707031 107.699219 C 272.707031 109.863281 274.457031 111.617188 276.613281 111.617188 C 278.769531 111.617188 280.523438 109.863281 280.523438 107.699219 C 280.523438 105.535156 278.769531 103.78125 276.613281 103.78125 C 274.457031 103.78125 272.707031 105.535156 272.707031 107.699219 " fill-opacity="1" fill-rule="nonzero"/><path fill="#28dbd1" d="M 292.1875 143.511719 C 292.1875 145.675781 293.9375 147.429688 296.09375 147.429688 C 298.253906 147.429688 300 145.675781 300 143.511719 C 300 141.347656 298.253906 139.59375 296.09375 139.59375 C 293.9375 139.59375 292.1875 141.347656 292.1875 143.511719 " fill-opacity="1" fill-rule="nonzero"/><path fill="#28dbd1" d="M 264.894531 139.59375 C 264.894531 141.757812 266.644531 143.511719 268.800781 143.511719 C 270.960938 143.511719 272.707031 141.757812 272.707031 139.59375 C 272.707031 137.429688 270.960938 135.675781 268.800781 135.675781 C 266.644531 135.675781 264.894531 137.429688 264.894531 139.59375 " fill-opacity="1" fill-rule="nonzero"/><path fill="#28dbd1" d="M 160.375 95.488281 C 160.375 97.652344 162.125 99.40625 164.28125 99.40625 C 166.4375 99.40625 168.191406 97.652344 168.191406 95.488281 C 168.191406 93.324219 166.4375 91.570312 164.28125 91.570312 C 162.125 91.570312 160.375 93.324219 160.375 95.488281 " fill-opacity="1" fill-rule="nonzero"/><path fill="#28dbd1" d="M 146.761719 129.753906 C 146.761719 131.914062 148.507812 133.667969 150.667969 133.667969 C 152.824219 133.667969 154.570312 131.914062 154.570312 129.753906 C 154.570312 127.585938 152.824219 125.835938 150.667969 125.835938 C 148.507812 125.835938 146.761719 127.585938 146.761719 129.753906 " fill-opacity="1" fill-rule="nonzero"/><path fill="#28dbd1" d="M 173.6875 109.976562 C 173.6875 112.140625 175.4375 113.894531 177.59375 113.894531 C 179.753906 113.894531 181.5 112.140625 181.5 109.976562 C 181.5 107.8125 179.753906 106.058594 177.59375 106.058594 C 175.4375 106.058594 173.6875 107.8125 173.6875 109.976562 " fill-opacity="1" fill-rule="nonzero"/><path fill="#28dbd1" d="M 123.691406 127.558594 C 123.691406 129.722656 125.4375 131.476562 127.597656 131.476562 C 129.753906 131.476562 131.503906 129.722656 131.503906 127.558594 C 131.503906 125.394531 129.753906 123.640625 127.597656 123.640625 C 125.4375 123.640625 123.691406 125.394531 123.691406 127.558594 " fill-opacity="1" fill-rule="nonzero"/><path fill="#28dbd1" d="M 119.144531 90.441406 C 119.144531 92.605469 120.894531 94.359375 123.050781 94.359375 C 125.210938 94.359375 126.957031 92.605469 126.957031 90.441406 C 126.957031 88.277344 125.210938 86.527344 123.050781 86.527344 C 120.894531 86.527344 119.144531 88.277344 119.144531 90.441406 " fill-opacity="1" fill-rule="nonzero"/><path fill="#28dbd1" d="M 90.25 117.871094 C 90.25 120.035156 92 121.789062 94.15625 121.789062 C 96.3125 121.789062 98.0625 120.035156 98.0625 117.871094 C 98.0625 115.707031 96.3125 113.953125 94.15625 113.953125 C 92 113.953125 90.25 115.707031 90.25 117.871094 " fill-opacity="1" fill-rule="nonzero"/><path fill="#28dbd1" d="M 52.816406 149.398438 C 52.816406 151.5625 54.566406 153.316406 56.722656 153.316406 C 58.882812 153.316406 60.628906 151.5625 60.628906 149.398438 C 60.628906 147.234375 58.882812 145.480469 56.722656 145.480469 C 54.566406 145.480469 52.816406 147.234375 52.816406 149.398438 " fill-opacity="1" fill-rule="nonzero"/><g clip-path="url(#id1)"><path fill="#28dbd1" d="M -0.00390625 175.480469 C -0.00390625 177.640625 1.746094 179.394531 3.902344 179.394531 C 6.058594 179.394531 7.808594 177.640625 7.808594 175.480469 C 7.808594 173.316406 6.058594 171.5625 3.902344 171.5625 C 1.746094 171.5625 -0.00390625 173.316406 -0.00390625 175.480469 " fill-opacity="1" fill-rule="nonzero"/></g><g clip-path="url(#id2)"><path fill="#28dbd1" d="M -0.00390625 160.277344 C -0.00390625 162.441406 1.746094 164.195312 3.902344 164.195312 C 6.058594 164.195312 7.808594 162.441406 7.808594 160.277344 C 7.808594 158.113281 6.058594 156.359375 3.902344 156.359375 C 1.746094 156.359375 -0.00390625 158.113281 -0.00390625 160.277344 " fill-opacity="1" fill-rule="nonzero"/></g><path fill="#28dbd1" d="M 1.945312 145.480469 C 1.945312 147.644531 3.691406 149.398438 5.847656 149.398438 C 8.007812 149.398438 9.753906 147.644531 9.753906 145.480469 C 9.753906 143.320312 8.007812 141.5625 5.847656 141.5625 C 3.691406 141.5625 1.945312 143.320312 1.945312 145.480469 " fill-opacity="1" fill-rule="nonzero"/><g clip-path="url(#id3)"><path fill="#28dbd1" d="M -0.00390625 112.257812 C -0.00390625 114.417969 1.746094 116.171875 3.902344 116.171875 C 6.058594 116.171875 7.808594 114.417969 7.808594 112.257812 C 7.808594 110.089844 6.058594 108.339844 3.902344 108.339844 C 1.746094 108.339844 -0.00390625 110.089844 -0.00390625 112.257812 " fill-opacity="1" fill-rule="nonzero"/></g><path fill="#28dbd1" d="M 57.277344 121.851562 C 57.277344 124.011719 59.027344 125.769531 61.183594 125.769531 C 63.339844 125.769531 65.089844 124.011719 65.089844 121.851562 C 65.089844 119.6875 63.339844 117.933594 61.183594 117.933594 C 59.027344 117.933594 57.277344 119.6875 57.277344 121.851562 " fill-opacity="1" fill-rule="nonzero"/><g clip-path="url(#id4)"><path fill="#28dbd1" d="M -0.00390625 125.769531 C -0.00390625 127.929688 1.746094 129.683594 3.902344 129.683594 C 6.058594 129.683594 7.808594 127.929688 7.808594 125.769531 C 7.808594 123.605469 6.058594 121.851562 3.902344 121.851562 C 1.746094 121.851562 -0.00390625 123.605469 -0.00390625 125.769531 " fill-opacity="1" fill-rule="nonzero"/></g><g clip-path="url(#id5)"><path fill="#28dbd1" d="M -0.00390625 100.800781 C -0.00390625 102.964844 1.746094 104.71875 3.902344 104.71875 C 6.058594 104.71875 7.808594 102.964844 7.808594 100.800781 C 7.808594 98.636719 6.058594 96.882812 3.902344 96.882812 C 1.746094 96.882812 -0.00390625 98.636719 -0.00390625 100.800781 " fill-opacity="1" fill-rule="nonzero"/></g><path fill="#28dbd1" d="M 1.945312 79.433594 C 1.945312 81.597656 3.691406 83.351562 5.847656 83.351562 C 8.007812 83.351562 9.753906 81.597656 9.753906 79.433594 C 9.753906 77.273438 8.007812 75.515625 5.847656 75.515625 C 3.691406 75.515625 1.945312 77.273438 1.945312 79.433594 " fill-opacity="1" fill-rule="nonzero"/><g clip-path="url(#id6)"><path fill="#28dbd1" d="M 1.945312 49.910156 C 1.945312 52.074219 3.691406 53.824219 5.847656 53.824219 C 8.007812 53.824219 9.753906 52.074219 9.753906 49.910156 C 9.753906 47.746094 8.007812 45.992188 5.847656 45.992188 C 3.691406 45.992188 1.945312 47.746094 1.945312 49.910156 " fill-opacity="1" fill-rule="nonzero"/></g></svg>