<svg xmlns="http://www.w3.org/2000/svg" viewBox="0 0 205.4 40.58"><defs><style>.cls-1{fill:#28dbd1;}</style></defs><g id="Layer_2" data-name="Layer 2"><g id="Layer_1-2" data-name="Layer 1"><path class="cls-1" d="M151.1,9.32l1.64-2.93,1.63-2.93h51V.05L21.06,0,19.51,3.46,17.94,6.18,16.37,8.9l-2.31,4-2.31,4h3.93l2.07-3.58,2.07-3.57L21.64,6.6l1.82-3.14H52.34L50.76,6.18,49.19,8.9l-2.31,4-2.31,4h3.92l2.07-3.58,2.07-3.57L54.45,6.6l1.82-3.14H85.16L83.59,6.18,82,8.9l-2.31,4-2.31,4h3.92l2.06-3.58,2.07-3.57L87.27,6.6l1.82-3.14H118l-1.57,2.72L114.84,8.9l-2.31,4-2.31,4h3.92l2.07-3.58,2.07-3.57,1.81-3.16,1.82-3.14h28.56l-2.59,4.63-2.58,4.64L140.13,22h32.1L170,25.79l-2.19,3.79-4.39,7.59h-61L104,34.45l1.57-2.73,2.31-4,2.3-4h-3.92l-2.06,3.58-2.07,3.57L100.33,34l-1.82,3.15H69.62l1.57-2.72,1.57-2.73,2.31-4,2.31-4H73.46L71.39,27.3l-2.06,3.57L67.51,34l-1.82,3.15H36.8l1.57-2.72,1.57-2.73,2.31-4,2.31-4H40.64L38.57,27.3,36.5,30.87,34.69,34l-1.83,3.15H4l1.57-2.72,1.57-2.73,2.31-4,2.31-4H7.81L5.75,27.3,3.68,30.87,1.86,34,0,37.17a11.27,11.27,0,0,1,0,3.14.21.21,0,0,0,.19.27H165.43l3.18-5.5,3.18-5.5L175,24.09l3.18-5.5H145.93L148.52,14Z"/></g></g></svg>