<svg id="Layer_1" data-name="Layer 1" xmlns="http://www.w3.org/2000/svg" viewBox="0 0 490.49 68.78"><defs><style>.cls-1{fill:#28dbd1;}</style></defs><path class="cls-1" d="M464.48,13.27H277.3l3.83-6.63L285,0H205.53l3.84,6.64,3.83,6.63H0v3.42H51l1.64,2.93,1.63,2.93,2.59,4.63,2.59,4.64H27.26l3.17,5.49,3.18,5.5,3.18,5.5L40,53.8H215.76V50.39h-10.4l-1.82-3.14-1.82-3.15-2.07-3.58L197.59,37h-3.94L196,41l2.31,4,1.57,2.72,1.57,2.72H172.54l-1.82-3.14L168.9,44.1l-2.07-3.58L164.76,37h-3.91l2.3,4,2.31,4L167,47.67l1.56,2.72H139.71l-1.82-3.14-1.82-3.15L134,40.52,131.94,37H128l2.31,4,2.31,4,1.57,2.72,1.57,2.72H106.89l-1.82-3.14-1.82-3.15-2.07-3.58L99.11,37H95.2l2.3,4,2.31,4,1.58,2.72L103,50.39h-61L39.74,46.6l-2.19-3.79L35.36,39l-2.19-3.79h32.1l-2.58-4.64L60.1,26l-2.59-4.63-2.58-4.63H83.48l1.83,3.14L87.12,23l2.07,3.57,2.07,3.58h3.92l-2.31-4-2.31-4L89,19.41l-1.57-2.72h28.89l1.82,3.14L120,23,122,26.55l2.07,3.58H128l-2.31-4-2.31-4-1.57-2.72-1.57-2.72h28.89L151,19.83,152.78,23l2.06,3.57,2.07,3.58h3.92l-2.31-4-2.31-4-1.57-2.72-1.57-2.72h28.87l1.82,3.14L185.58,23l2.07,3.57,2.06,3.58h3.94l-2.31-4-2.31-4-1.57-2.72-1.57-2.72h28.88l5.12,8.85L225,34.39l4.62,8,4.62,8H215.76V53.8H236.6l4.32,7.49,4.33,7.49,4.32-7.49,4.33-7.49h20.83V50.39H256.25l4.63-8,4.62-8,5.11-8.85,5.11-8.85h28.89L303,19.41l-1.56,2.72-2.31,4-2.31,4h3.93l2.07-3.58L304.92,23l1.82-3.15,1.82-3.14h28.87l-1.57,2.72-1.57,2.72-2.31,4-2.31,4h3.92l2.07-3.58L337.72,23l1.82-3.15,1.83-3.14h28.89l-1.58,2.72-1.57,2.72-2.3,4-2.32,4h3.92l2.07-3.58L370.55,23l1.82-3.15,1.82-3.14h28.89l-1.57,2.72-1.57,2.72-2.31,4-2.31,4h3.92l2.07-3.58L403.37,23l1.82-3.15L407,16.69h28.56L433,21.32,430.4,26l-2.59,4.64-2.59,4.64h32.11L455.14,39,453,42.81l-2.2,3.79-2.19,3.79h-61l1.57-2.72L390.68,45,393,41l2.31-4h-3.92l-2.06,3.57-2.07,3.58-1.82,3.15-1.82,3.14H354.72l1.57-2.72L357.86,45l2.31-4,2.31-4h-3.92l-2.07,3.57-2.07,3.58-1.82,3.15-1.82,3.14H321.89l1.57-2.72L325,45l2.32-4,2.3-4h-3.91l-2.07,3.57L321.6,44.1l-1.82,3.15L318,50.39H289.09l1.57-2.72L292.23,45l2.31-4,2.31-4h-3.94l-2.07,3.57-2.07,3.58L287,47.25l-1.82,3.14h-10.4V53.8H450.53l3.18-5.49,3.18-5.5,3.17-5.5,3.18-5.49H431l2.59-4.64,2.58-4.63,1.64-2.93,1.63-2.93h51V13.27h-26Z"/></svg>