<svg id="Layer_1" data-name="Layer 1" xmlns="http://www.w3.org/2000/svg" width="150" height="150" viewBox="0 0 150 150"><defs><style>.cls-1{fill:#28dbd1;fill-rule:evenodd;}</style></defs><path class="cls-1" d="M46.2462,95.9a4.1287,4.1287,0,0,0-7.1519-4.1273L30.2058,107.16A58.2319,58.2319,0,0,1,85.07,12.6023a61.899,61.899,0,0,1,5.517-3.4839,62.8063,62.8063,0,0,0-62.8033,102.24l-3.6166,6.2628a4.1332,4.1332,0,1,0,7.1621,4.1277Z"/><path class="cls-1" d="M135.6437,53.7049A62.72,62.72,0,0,0,119.89,26.0272a63.2547,63.2547,0,0,1-.2556,6.529,58.2446,58.2446,0,0,1-54.456,94.792l8.8784-15.3869a4.1311,4.1311,0,1,0-7.1516-4.1375L51.9779,133.6827A4.1331,4.1331,0,0,0,59.14,137.81l3.6064-6.2628a62.7894,62.7894,0,0,0,72.8973-77.8424Z"/><path class="cls-1" d="M62.8077,91.0579A4.1409,4.1409,0,0,0,57.1682,92.58L31.1761,137.5957a4.1332,4.1332,0,1,0,7.1621,4.1278L64.33,96.7079A4.156,4.156,0,0,0,62.8077,91.0579Z"/><path class="cls-1" d="M64.6365,49.23A40.7484,40.7484,0,0,0,25.8327,82.5371c31.4886-21.7109,65.9194-1.84,62.8543,36.29a40.7323,40.7323,0,0,0,9.4405-50.2564,58.3064,58.3064,0,0,0,13.68-62.3638A58.313,58.313,0,0,0,64.6365,49.23ZM84.917,32.3517a10.21,10.21,0,1,1,3.7394,13.9461A10.2186,10.2186,0,0,1,84.917,32.3517Z"/></svg>