<svg width="36" height="39" viewBox="0 0 36 39" fill="none" xmlns="http://www.w3.org/2000/svg">
<path d="M12.8604 12.6987V28.3366L17.9168 31.2558L22.9732 28.3366V12.6987H12.8604Z" fill="url(#paint0_linear_7352_17231)"/>
<path d="M13.6182 27.9003V13.4534H22.2189V27.9003L17.9185 30.3825L13.6182 27.9003Z" fill="#333F54"/>
<path d="M10.3486 26.8854L12.1063 27.9003V12.6987H10.3486V26.8854Z" fill="url(#paint1_linear_7352_17231)"/>
<path d="M23.7295 12.6987V27.8993L25.4872 26.8844V12.6987H23.7295Z" fill="url(#paint2_linear_7352_17231)"/>
<path d="M5.92644 19.9792L18.582 27.2848V18.0768L4.59082 10V17.6624C4.59036 18.1319 4.71357 18.5932 4.94803 18.9999C5.1825 19.4066 5.51995 19.7444 5.92644 19.9792Z" fill="url(#paint3_linear_7352_17231)"/>
<path d="M20.5908 19.076V26L30.5407 20.5074C30.8598 20.3312 31.1249 20.0778 31.3092 19.7726C31.4936 19.4673 31.5907 19.121 31.5908 18.7685V13L20.5908 19.076Z" fill="url(#paint4_linear_7352_17231)"/>
<path d="M1.92644 12.9078L14.582 20.2133V11.0097L0.59082 2.93286V10.5953C0.591291 11.0638 0.714935 11.524 0.949354 11.9297C1.18377 12.3354 1.52073 12.6724 1.92644 12.9068V12.9078Z" fill="url(#paint5_linear_7352_17231)"/>
<path d="M21.2549 11.0097V20.2136L33.9104 12.908C34.3162 12.6737 34.6533 12.3368 34.8877 11.9311C35.1221 11.5253 35.2457 11.0651 35.246 10.5965V2.93286L21.2549 11.0097Z" fill="url(#paint6_linear_7352_17231)"/>
<path d="M3.8161 16.4878L16.4716 23.7941V14.5897L2.48145 6.51294V14.1754C2.48133 14.644 2.60462 15.1045 2.8389 15.5104C3.07319 15.9164 3.41022 16.2535 3.8161 16.4878Z" fill="url(#paint7_linear_7352_17231)"/>
<path d="M19.3643 14.5897V23.7944L32.0198 16.4881C32.4258 16.254 32.763 15.9171 32.9974 15.5113C33.2319 15.1056 33.3553 14.6452 33.3554 14.1766V6.51294L19.3643 14.5897Z" fill="url(#paint8_linear_7352_17231)"/>
<path d="M29.9477 18.4982V10.4274C29.9477 9.54255 29.7148 8.6733 29.2724 7.90701C28.83 7.14072 28.1937 6.50439 27.4274 6.062L20.4375 2.02672C19.6712 1.58442 18.8021 1.35156 17.9173 1.35156C17.0326 1.35156 16.1634 1.58442 15.3972 2.02672L8.40968 6.06224C7.64331 6.50453 7.00693 7.14084 6.56455 7.90716C6.12218 8.67348 5.8894 9.54278 5.88965 10.4276V18.4982C5.88965 19.383 6.12264 20.2522 6.56518 21.0184C7.00773 21.7846 7.64422 22.4207 8.41064 22.8628L15.3994 26.8988C16.1656 27.3411 17.0348 27.574 17.9195 27.574C18.8042 27.574 19.6734 27.3411 20.4396 26.8988L27.4296 22.8626C28.1953 22.42 28.8311 21.7837 29.2731 21.0176C29.7151 20.2515 29.9478 19.3826 29.9477 18.4982Z" fill="#333F54" stroke="#EFF3F8" stroke-miterlimit="10"/>
<path d="M17.9179 25.684C17.3648 25.684 16.8215 25.5385 16.3425 25.2619L9.35352 21.2267C8.87517 20.9497 8.47791 20.552 8.20148 20.0733C7.92505 19.5947 7.77913 19.0518 7.77832 18.4991V10.4276C7.77913 9.87469 7.92504 9.33171 8.20146 8.8529C8.47789 8.37408 8.87514 7.9762 9.35352 7.69903L16.341 3.66376C16.82 3.38742 17.3632 3.24194 17.9162 3.24194C18.4692 3.24194 19.0124 3.38742 19.4914 3.66376L26.4813 7.69903C26.9596 7.97633 27.3568 8.37424 27.6332 8.85303C27.9096 9.33182 28.0555 9.87473 28.0565 10.4276V18.4984C28.0556 19.0511 27.9096 19.5939 27.6331 20.0725C27.3567 20.5511 26.9596 20.9488 26.4813 21.2259L19.4914 25.2615C19.0131 25.538 18.4704 25.6837 17.9179 25.684Z" fill="url(#paint9_linear_7352_17231)"/>
<path style="mix-blend-mode:screen" d="M17.9173 24.1721C17.6297 24.1721 17.3473 24.096 17.0986 23.9517L10.1087 19.9162C9.86007 19.7721 9.65361 19.5653 9.50995 19.3165C9.36628 19.0676 9.29046 18.7854 9.29004 18.498V10.4275C9.29036 10.14 9.36614 9.85757 9.5098 9.60853C9.65346 9.35949 9.85998 9.15251 10.1087 9.00829L17.0996 4.97302C17.3485 4.82932 17.6308 4.75366 17.9182 4.75366C18.2056 4.75366 18.488 4.82932 18.7369 4.97302L25.7268 9.00854C25.9756 9.1527 26.1821 9.35966 26.3258 9.60871C26.4695 9.85777 26.5452 10.1402 26.5455 10.4277V18.4985C26.545 18.7858 26.4691 19.068 26.3255 19.3169C26.1818 19.5657 25.9754 19.7726 25.7268 19.9167L18.7359 23.9522C18.4872 24.0963 18.2048 24.1723 17.9173 24.1723V24.1721Z" fill="url(#paint10_linear_7352_17231)"/>
<path style="mix-blend-mode:multiply" opacity="0.3" d="M11.4561 18.1937V10.7314L17.9179 7.00049L24.3805 10.7314V18.194L17.9179 21.9249L11.4561 18.1937Z" fill="url(#paint11_linear_7352_17231)"/>
<path d="M12.3232 17.6925V11.233L17.9169 8.00342L23.5105 11.233V17.6925L17.9169 20.9214L12.3232 17.6925Z" fill="#1D212F"/>
<path d="M17.9191 8.53516L12.7861 11.4989L17.9191 14.4627V8.53516Z" fill="url(#paint12_linear_7352_17231)"/>
<path d="M17.917 14.463L23.051 11.4992L17.917 8.53516V14.463Z" fill="url(#paint13_linear_7352_17231)"/>
<path d="M17.917 14.4628L23.051 17.4259V11.499L17.917 14.4628Z" fill="url(#paint14_linear_7352_17231)"/>
<path d="M17.917 14.4631V20.3912L23.051 17.4281L17.917 14.4631Z" fill="url(#paint15_linear_7352_17231)"/>
<path d="M12.7861 17.4262L17.9191 20.3912V14.4631L12.7861 17.4262Z" fill="url(#paint16_linear_7352_17231)"/>
<path d="M17.9191 14.4628L12.7861 11.499V17.4259L17.9191 14.4628Z" fill="url(#paint17_linear_7352_17231)"/>
<path d="M17.9182 10.5615L14.54 12.5119V16.4125L17.9182 18.3629L21.2964 16.4125V12.5119L17.9182 10.5615Z" fill="url(#paint18_linear_7352_17231)"/>
<g style="mix-blend-mode:overlay">
<path opacity="0.33" d="M19.772 12.0314C19.6834 12.2625 19.6588 12.537 19.5711 12.7713C19.5667 12.7827 19.5667 12.7953 19.5711 12.8067C19.5923 12.8438 19.6193 12.8789 19.6378 12.9172C19.6693 12.9755 19.6881 13.0397 19.693 13.1057C19.698 13.1717 19.6889 13.238 19.6665 13.3003C19.6352 13.387 19.5876 13.4669 19.5264 13.5358C19.5209 13.5413 19.5179 13.5488 19.5179 13.5565C19.5179 13.5642 19.5209 13.5717 19.5264 13.5772C19.5661 13.635 19.5929 13.7007 19.6049 13.7698C19.6064 13.7882 19.612 13.806 19.6214 13.822C19.6307 13.8379 19.6435 13.8515 19.6588 13.8618C19.7652 13.9285 19.868 14.002 19.9718 14.0711C20.0291 14.1098 20.0867 14.1486 20.1464 14.1833C20.2061 14.2179 20.2562 14.2389 20.3091 14.2675C20.4176 14.3215 20.5019 14.4142 20.5454 14.5273C20.5645 14.5956 20.5797 14.6649 20.5909 14.7349C20.5909 14.746 20.5909 14.759 20.6087 14.7619C20.6535 14.7703 20.6626 14.7821 20.6626 14.8286V15.0624C20.6649 15.0891 20.6576 15.1158 20.6423 15.1378C20.6269 15.1598 20.6042 15.1757 20.5783 15.1828L20.5396 15.1972C20.5355 15.1979 20.5317 15.1994 20.5282 15.2017C20.5247 15.2039 20.5217 15.2068 20.5194 15.2101C20.517 15.2135 20.5154 15.2173 20.5145 15.2213C20.5136 15.2254 20.5136 15.2295 20.5143 15.2336C20.5143 15.3111 20.5015 15.2918 20.5733 15.3279L20.5851 15.333C20.5922 15.3358 20.5985 15.3401 20.6038 15.3457C20.609 15.3512 20.613 15.3578 20.6154 15.365C20.6178 15.3723 20.6186 15.3799 20.6177 15.3875C20.6168 15.3951 20.6143 15.4023 20.6104 15.4088C20.601 15.43 20.5909 15.4503 20.5807 15.4695C20.572 15.4859 20.558 15.4989 20.5411 15.5065C20.5241 15.5141 20.5052 15.5159 20.4871 15.5117C20.463 15.5049 20.4389 15.4955 20.4148 15.4905C20.4093 15.4895 20.4037 15.4898 20.3983 15.4913C20.3929 15.4927 20.3878 15.4953 20.3835 15.4989C20.3049 15.5875 20.1973 15.6452 20.0799 15.6617C19.8849 15.6982 19.6833 15.6716 19.5045 15.5858C19.4202 15.5461 19.3359 15.5015 19.2514 15.4609C19.2049 15.4336 19.1526 15.4176 19.0987 15.4144C18.9705 15.4136 18.8442 15.4455 18.7318 15.5071C18.7166 15.5155 18.7099 15.5249 18.7166 15.5425C18.7311 15.5829 18.7436 15.6268 18.7597 15.6648C18.8093 15.7957 18.8838 15.9157 18.9791 16.0183C19.0959 16.1392 19.2348 16.2366 19.3884 16.305C19.537 16.3741 19.6879 16.4367 19.8382 16.5025C19.8474 16.5076 19.8562 16.5136 19.8644 16.5203L19.8403 16.5263C19.7561 16.5374 19.6718 16.5465 19.5931 16.561C19.4316 16.5876 19.2725 16.6272 19.1173 16.6792C18.9052 16.7529 18.6943 16.8291 18.4845 16.908C18.3175 16.973 18.1462 17.026 17.9716 17.0666C17.843 17.0947 17.7124 17.1136 17.5811 17.1232C17.2792 17.152 16.9749 17.108 16.6936 16.9949C16.4765 16.9063 16.2875 16.7605 16.1467 16.573C15.9836 16.3455 15.8862 16.0776 15.865 15.7984C15.847 15.6241 15.8493 15.4483 15.8718 15.2745C15.8731 15.2682 15.8722 15.2617 15.8691 15.2561C15.866 15.2506 15.8609 15.2463 15.8549 15.2442C15.8232 15.2301 15.7925 15.214 15.7629 15.196C15.6575 15.1229 15.5584 15.0411 15.4668 14.9514C15.4626 14.9457 15.4589 14.9397 15.4557 14.9335L15.8108 14.8931C15.5913 14.8237 15.4016 14.6821 15.2725 14.4915C15.2807 14.489 15.2895 14.489 15.2977 14.4915C15.3286 14.4946 15.3593 14.4995 15.3897 14.5059C15.4746 14.5178 15.5612 14.5103 15.6428 14.484C15.7432 14.4501 15.8293 14.3836 15.8874 14.295C15.9717 14.1633 16.056 14.0284 16.1405 13.8926C16.2427 13.7118 16.3638 13.5423 16.5017 13.387C16.5236 13.3629 16.5464 13.3415 16.57 13.3179L16.5582 13.3112L16.538 13.3044C16.4676 13.2853 16.4043 13.2459 16.356 13.1912C16.3077 13.1364 16.2766 13.0687 16.2664 12.9964C16.2512 12.9062 16.2435 12.8142 16.2327 12.7232C16.2333 12.7163 16.2348 12.7095 16.237 12.7029L16.2623 12.7224C16.2886 12.7427 16.3129 12.7646 16.3391 12.7848C16.4156 12.852 16.515 12.8873 16.6167 12.8835C16.7158 12.8743 16.8121 12.8456 16.9001 12.7992C16.9001 12.7992 16.9001 12.7942 16.9079 12.7882C16.9156 12.7821 16.8968 12.7814 16.8927 12.7771C16.8658 12.7523 16.8444 12.7222 16.8299 12.6886C16.8154 12.6551 16.8081 12.6189 16.8084 12.5823C16.8093 12.5205 16.8271 12.4601 16.8599 12.4077C16.9325 12.2975 17.0212 12.1988 17.1231 12.1149C17.1291 12.112 17.1353 12.1095 17.1417 12.1072C17.1417 12.119 17.1417 12.1275 17.1417 12.1352C17.1387 12.1632 17.1372 12.1913 17.1373 12.2194C17.1424 12.2917 17.1804 12.3249 17.2495 12.3172C17.2894 12.3134 17.3289 12.3067 17.3677 12.297C17.4978 12.264 17.6268 12.2269 17.7566 12.1958C17.9365 12.1519 18.1219 12.1351 18.3068 12.146C18.4364 12.1509 18.5635 12.1831 18.6798 12.2404C18.7347 12.269 18.7862 12.3054 18.8409 12.3391L18.8519 12.3189C18.8884 12.2473 18.9477 12.19 19.0205 12.1561C19.0501 12.1417 19.0542 12.145 19.0619 12.178C19.0707 12.2344 19.0916 12.2881 19.1232 12.3356C19.1548 12.3831 19.1963 12.4231 19.2449 12.453C19.2779 12.4725 19.2769 12.4742 19.3005 12.4446C19.4245 12.2902 19.6017 12.1612 19.7224 12.0066" fill="url(#paint19_radial_7352_17231)"/>
<path opacity="0.33" d="M19.8856 11.814C19.797 12.0451 19.6568 12.5404 19.5692 12.7716C19.5647 12.7829 19.5647 12.7956 19.5692 12.807C19.5904 12.844 19.6173 12.8792 19.6359 12.9175C19.6673 12.9757 19.6861 13.0399 19.6911 13.106C19.696 13.172 19.687 13.2383 19.6645 13.3006C19.6333 13.3873 19.5857 13.4672 19.5244 13.536C19.519 13.5416 19.516 13.549 19.516 13.5567C19.516 13.5645 19.519 13.5719 19.5244 13.5775C19.5642 13.6352 19.591 13.701 19.6029 13.7701C19.6044 13.7885 19.6101 13.8063 19.6194 13.8222C19.6288 13.8381 19.6415 13.8517 19.6568 13.8621C19.763 13.9288 19.8661 14.0022 19.9699 14.0713C20.0272 14.1101 20.0847 14.1488 20.1444 14.1835C20.2041 14.2182 20.2542 14.2391 20.3072 14.2678C20.4157 14.3218 20.4999 14.4145 20.5434 14.5276C20.5624 14.5959 20.5776 14.6652 20.5889 14.7351C20.5889 14.7462 20.5889 14.7592 20.6067 14.7621C20.6515 14.7705 20.6607 14.7823 20.6607 14.8288V15.0626C20.6629 15.0894 20.6557 15.116 20.6403 15.138C20.6249 15.16 20.6023 15.1759 20.5764 15.183L20.5376 15.1974C20.5336 15.1982 20.5297 15.1997 20.5262 15.2019C20.5228 15.2041 20.5198 15.207 20.5174 15.2104C20.5151 15.2138 20.5134 15.2176 20.5126 15.2216C20.5117 15.2256 20.5116 15.2298 20.5123 15.2338C20.5123 15.3113 20.4996 15.2921 20.5713 15.3282L20.5831 15.3332C20.5902 15.336 20.5966 15.3404 20.6018 15.3459C20.6071 15.3514 20.611 15.3581 20.6134 15.3653C20.6158 15.3725 20.6166 15.3802 20.6158 15.3877C20.6149 15.3953 20.6124 15.4026 20.6084 15.4091C20.599 15.4303 20.5889 15.4505 20.5788 15.4698C20.57 15.4861 20.5561 15.4991 20.5391 15.5068C20.5222 15.5144 20.5032 15.5162 20.4851 15.5119C20.4611 15.5052 20.437 15.4958 20.4129 15.4907C20.4074 15.4898 20.4017 15.49 20.3963 15.4915C20.3909 15.493 20.3859 15.4956 20.3816 15.4991C20.3029 15.5877 20.1953 15.6454 20.078 15.6619C19.883 15.6985 19.6814 15.6719 19.5025 15.5861C19.4182 15.5463 19.3339 15.5018 19.2494 15.4611C19.2029 15.4338 19.1506 15.4179 19.0968 15.4146C18.9686 15.4138 18.8423 15.4457 18.7298 15.5073C18.7147 15.5158 18.7079 15.5251 18.7147 15.5427C18.7291 15.5832 18.7416 15.627 18.7578 15.665C18.8073 15.7959 18.8818 15.916 18.9771 16.0185C19.0939 16.1394 19.2329 16.2368 19.3864 16.3053C19.535 16.3744 19.686 16.437 19.8362 16.5027C19.8455 16.5079 19.8543 16.5138 19.8625 16.5205L19.8384 16.5266C19.7541 16.5376 19.6698 16.5468 19.5911 16.5612C19.4296 16.5879 19.2705 16.6274 19.1153 16.6795C18.9033 16.7531 18.6923 16.8294 18.4825 16.9082C18.3156 16.9733 18.1442 17.0263 17.9697 17.0669C17.841 17.095 17.7105 17.1139 17.5791 17.1235C17.2773 17.1522 16.9729 17.1082 16.6916 16.9951C16.4746 16.9065 16.2856 16.7607 16.1448 16.5733C15.9817 16.3458 15.8842 16.0778 15.8631 15.7987C15.8451 15.6244 15.8473 15.4485 15.8698 15.2747C15.8712 15.2685 15.8702 15.262 15.8671 15.2564C15.864 15.2508 15.859 15.2465 15.853 15.2444C15.8213 15.2303 15.7906 15.2143 15.761 15.1962C15.6556 15.1232 15.5565 15.0413 15.4648 14.9516C15.4607 14.9459 15.457 14.94 15.4537 14.9338L15.8089 14.8933C15.5895 14.8242 15.3998 14.6831 15.2705 14.4929C15.2788 14.4905 15.2875 14.4905 15.2958 14.4929C15.3267 14.4961 15.3574 14.5009 15.3878 14.5074C15.4727 14.5193 15.5592 14.5118 15.6408 14.4854C15.7412 14.4515 15.8273 14.385 15.8855 14.2964C15.9697 14.1647 16.054 14.0299 16.1385 13.8941C16.2408 13.7133 16.3618 13.5438 16.4997 13.3884C16.5216 13.3644 16.5445 13.3429 16.5681 13.3193L16.5563 13.3126L16.5361 13.3059C16.4656 13.2867 16.4023 13.2474 16.3541 13.1926C16.3058 13.1379 16.2746 13.0702 16.2645 12.9979C16.2493 12.9076 16.2416 12.8156 16.2307 12.7246C16.2314 12.7177 16.2328 12.7109 16.2351 12.7044L16.2604 12.7239C16.2866 12.7441 16.3109 12.766 16.3372 12.7862C16.4137 12.8534 16.513 12.8888 16.6148 12.885C16.7139 12.8757 16.8102 12.8471 16.8982 12.8007C16.8982 12.8007 16.8982 12.7956 16.9059 12.7896C16.9136 12.7836 16.8948 12.7829 16.8907 12.7785C16.8639 12.7538 16.8425 12.7236 16.8279 12.6901C16.8134 12.6565 16.8061 12.6203 16.8065 12.5837C16.8073 12.5219 16.8251 12.4615 16.858 12.4092C16.9305 12.2989 17.0193 12.2002 17.1212 12.1164C17.1272 12.1135 17.1334 12.1109 17.1397 12.1087C17.1397 12.1205 17.1397 12.1289 17.1397 12.1366C17.1367 12.1646 17.1353 12.1927 17.1354 12.2209C17.1404 12.2931 17.1785 12.3264 17.2476 12.3186C17.2874 12.3149 17.3269 12.3081 17.3658 12.2984C17.4958 12.2654 17.6249 12.2284 17.7547 12.1973C17.9345 12.1533 18.12 12.1365 18.3048 12.1475C18.4344 12.1524 18.5615 12.1845 18.6778 12.2418C18.7327 12.2705 18.7842 12.3068 18.8389 12.3406L18.85 12.3203C18.8864 12.2488 18.9457 12.1915 19.0185 12.1576C19.0481 12.1431 19.0522 12.1465 19.0599 12.1795C19.0687 12.2358 19.0896 12.2896 19.1212 12.3371C19.1528 12.3845 19.1943 12.4246 19.2429 12.4544C19.2759 12.474 19.275 12.4756 19.2986 12.446C19.4226 12.2917 19.7204 11.9685 19.8461 11.8149L19.8856 11.814ZM19.3272 13.5336C19.3204 13.526 19.3122 13.5198 19.3031 13.5151C19.2949 13.5126 19.2861 13.5126 19.2778 13.5151C19.2711 13.5151 19.266 13.5211 19.2593 13.5228C19.1548 13.5569 19.0415 13.5522 18.9401 13.5096C18.8388 13.4669 18.7562 13.3892 18.7074 13.2907C18.6947 13.2695 18.6846 13.2469 18.672 13.2249C18.6666 13.2186 18.6596 13.2136 18.6518 13.2105C18.6114 13.192 18.5675 13.1734 18.5314 13.1573C18.5218 13.1537 18.5132 13.1479 18.5062 13.1405C18.4991 13.133 18.4939 13.124 18.491 13.1142C18.4154 12.9186 18.2897 12.7464 18.1264 12.6148C18.0722 12.5686 18.0117 12.5303 17.9468 12.5009V12.5195C18.0075 12.6545 18.0657 12.7903 18.1308 12.9235C18.169 13.0099 18.2336 13.082 18.3154 13.1294C18.3366 13.1404 18.3585 13.1489 18.3845 13.1597L18.2427 13.185C18.025 13.2267 17.8196 13.3173 17.642 13.4498C17.3878 13.642 17.198 13.9068 17.0978 14.2093C17.0078 14.4653 16.9769 14.7385 17.0075 15.0082C17.0367 15.3246 17.1629 15.6243 17.3687 15.8663C17.5405 16.0643 17.7665 16.2077 18.0188 16.2788C18.0653 16.2923 18.1125 16.3029 18.1597 16.3142C18.1681 16.3151 18.1765 16.3151 18.1849 16.3142C17.932 16.0486 17.7505 15.7232 17.6576 15.3684C17.9171 15.7621 18.295 16.0632 18.7368 16.2282L18.7428 16.2215C18.7187 16.1952 18.6947 16.1683 18.6706 16.1413C18.5416 16.0024 18.4426 15.8385 18.3795 15.6597C18.3643 15.6116 18.3554 15.562 18.3407 15.5138C18.3391 15.5083 18.3364 15.5031 18.3328 15.4986C18.3291 15.4941 18.3246 15.4903 18.3195 15.4876C18.1411 15.4095 17.9838 15.2901 17.8606 15.1392C17.735 14.9906 17.6578 14.8072 17.6396 14.6135C17.6238 14.4295 17.6705 14.2456 17.772 14.0913C17.778 14.0811 17.7868 14.0727 17.7973 14.0672C17.796 14.0866 17.7926 14.1058 17.7872 14.1245C17.7657 14.2246 17.7556 14.3268 17.7568 14.4291C17.754 14.5791 17.7907 14.7273 17.8633 14.8587C17.9089 14.9414 17.9716 15.0134 18.0473 15.07C18.1229 15.1266 18.2097 15.1664 18.302 15.1868C18.4189 15.2143 18.5402 15.2176 18.6584 15.1965C18.7766 15.1755 18.8893 15.1306 18.9896 15.0645C19.0445 15.0282 19.0975 14.989 19.1483 14.9473C19.1531 14.9427 19.1574 14.9376 19.1611 14.9321C19.098 14.9011 19.0441 14.8542 19.0046 14.7961C18.9651 14.738 18.9413 14.6706 18.9357 14.6005C18.9305 14.5499 18.9374 14.4987 18.9559 14.4513C18.9677 14.4809 18.9771 14.5052 18.9879 14.5288C19.0087 14.5753 19.0415 14.6153 19.0829 14.645C19.1242 14.6746 19.1728 14.6927 19.2234 14.6973C19.3077 14.7074 19.3879 14.705 19.4698 14.7084C19.5363 14.7064 19.603 14.7104 19.6689 14.7202C19.6967 14.7265 19.7228 14.7386 19.7457 14.7556C19.7534 14.7607 19.7558 14.7741 19.7609 14.7835C19.7518 14.7874 19.7425 14.7906 19.7329 14.7929L19.5466 14.8057H19.5271C19.5356 14.8132 19.5447 14.8203 19.554 14.8269C19.7176 14.9269 19.8934 15.0055 20.077 15.0607C20.1798 15.0952 20.2886 15.1087 20.3968 15.1004C20.436 15.0945 20.4745 15.0843 20.5116 15.0701C20.517 15.0666 20.5216 15.062 20.5251 15.0566C20.5286 15.0512 20.5309 15.0451 20.5318 15.0388C20.5336 15.0154 20.5336 14.992 20.5318 14.9687C20.4743 15.0063 20.4051 15.0219 20.337 15.0125C20.3515 15.0048 20.3667 14.9974 20.3801 14.9884C20.3975 14.977 20.4141 14.9647 20.43 14.9514C20.4419 14.9409 20.4513 14.9279 20.4574 14.9133C20.4635 14.8987 20.4663 14.8829 20.4654 14.8671C20.4697 14.777 20.4585 14.6869 20.4324 14.6005C20.4 14.5216 20.3507 14.4508 20.2879 14.393L20.2769 14.3862H20.2675L20.2944 14.5921H20.2884L20.2362 14.5078C20.2049 14.4556 20.1738 14.4024 20.1418 14.3501C20.1342 14.3375 20.1241 14.3266 20.1122 14.3181L19.3031 13.7696C19.2915 13.7621 19.2812 13.7527 19.2728 13.7417L19.4702 13.767C19.4516 13.6753 19.4025 13.5927 19.3311 13.5324L19.3272 13.5336ZM15.8782 15.0583C15.9762 15.0819 16.0773 15.09 16.1778 15.0823C16.2599 15.0769 16.3387 15.0476 16.4043 14.998C16.47 14.9483 16.5197 14.8806 16.5474 14.803C16.5064 14.8564 16.4547 14.9006 16.3955 14.9327C16.3364 14.9648 16.2711 14.9841 16.204 14.9894V14.9827L16.2606 14.954C16.346 14.8999 16.4171 14.8262 16.4682 14.739C16.5457 14.6186 16.6191 14.4927 16.6952 14.3687C16.7746 14.2307 16.8685 14.1015 16.9752 13.9834C17.0082 13.9487 17.0444 13.9177 17.079 13.8847L17.1019 13.8695V13.8628L17.0015 13.9109C16.8234 14.0113 16.6772 14.1599 16.5796 14.3395C16.5139 14.4517 16.4506 14.5649 16.3805 14.6766C16.3005 14.8104 16.1786 14.9141 16.0338 14.9718C15.9647 14.9981 15.8912 15.0123 15.8195 15.0318L15.7954 15.0378V15.0455L15.8782 15.0583ZM19.4218 15.0684C19.4218 15.0896 19.4387 15.0913 19.4539 15.0946C19.5261 15.1091 19.5983 15.1233 19.6706 15.1428H19.6503L19.464 15.1572C19.4336 15.1572 19.4293 15.1649 19.4399 15.1936C19.4518 15.2224 19.4653 15.2505 19.4803 15.2779C19.4881 15.294 19.5006 15.2974 19.5191 15.293C19.6764 15.2619 19.8362 15.2449 19.9966 15.2425C20.1206 15.2421 20.2444 15.2514 20.3669 15.2704C20.3898 15.2704 20.3965 15.2644 20.3932 15.2425C20.3898 15.2206 20.378 15.2273 20.3662 15.2263C20.2988 15.2196 20.2311 15.2162 20.1647 15.2061C20.0531 15.186 19.9444 15.1528 19.8406 15.1074C19.7091 15.0537 19.5826 14.9885 19.4625 14.9126L19.4385 14.8998C19.4317 14.9648 19.4267 15.0164 19.4223 15.0684H19.4218ZM17.8837 12.9025C17.8238 12.792 17.5327 12.734 17.4315 12.754C17.2709 12.7949 17.1146 12.8514 16.9649 12.9225C16.8806 12.9562 16.791 12.9899 16.7017 13.0169C16.6125 13.0452 16.5167 13.0452 16.4275 13.0169C16.4034 13.0085 16.3827 12.9967 16.3567 12.9849C16.3576 12.9906 16.3591 12.9963 16.361 13.0017C16.3801 13.0472 16.4151 13.0841 16.4594 13.1056C16.5036 13.1272 16.5543 13.132 16.6018 13.119C16.6979 13.0967 16.7917 13.0653 16.8818 13.0253C17.0075 12.9748 17.1349 12.9233 17.2615 12.8785C17.3425 12.8494 17.4293 12.8402 17.5146 12.8515C17.6542 12.8773 17.7874 12.93 17.9068 13.0068C17.9147 13.0167 17.9218 13.0272 17.928 13.0381L17.9408 13.0297C17.9196 12.9849 17.9054 12.9394 17.8835 12.903L17.8837 12.9025ZM19.1493 12.8722C19.1982 12.931 19.2638 12.9736 19.3373 12.9945C19.3433 12.9945 19.3559 12.9945 19.3575 12.9868C19.3855 12.9177 19.4132 12.8476 19.4418 12.7769C19.442 12.7732 19.4413 12.7695 19.4399 12.7661C19.4384 12.7627 19.4362 12.7597 19.4334 12.7574C19.3937 12.7287 19.3542 12.7008 19.313 12.6731C19.3091 12.671 19.3048 12.6699 19.3004 12.6699C19.296 12.6699 19.2916 12.671 19.2877 12.6731C19.2396 12.7297 19.1941 12.787 19.1476 12.8416C19.1475 12.8439 19.1469 12.8462 19.1459 12.8482C19.1448 12.8502 19.1434 12.852 19.1416 12.8534L19.1493 12.8722ZM19.1493 13.4628C19.1931 13.3564 19.2335 13.2493 19.275 13.1414C19.2751 13.1357 19.274 13.13 19.2716 13.1247C19.2693 13.1195 19.2658 13.1148 19.2615 13.1111C19.2015 13.068 19.1411 13.0268 19.0785 12.9854C19.0726 12.9823 19.0661 12.9806 19.0595 12.9806C19.0528 12.9806 19.0463 12.9823 19.0404 12.9854C18.9682 13.0696 18.896 13.1599 18.8269 13.2469C18.823 13.2525 18.8196 13.2585 18.8168 13.2647C18.8434 13.3286 18.8896 13.3823 18.9488 13.4182C19.0079 13.4542 19.0769 13.4704 19.1459 13.4645L19.1493 13.4628ZM20.2809 15.4033C20.1044 15.3671 19.9224 15.3671 19.7459 15.4033C19.8223 15.4614 19.9157 15.4929 20.0116 15.4929C20.1076 15.4929 20.2009 15.4614 20.2773 15.4033H20.2809ZM19.4794 12.4335C19.4413 12.48 19.4052 12.5272 19.3672 12.5727C19.3537 12.5888 19.3544 12.6006 19.3672 12.6114L19.4394 12.6654C19.4563 12.6772 19.4664 12.6731 19.4741 12.6536C19.5054 12.5693 19.5364 12.485 19.5685 12.4063L19.6258 12.257H19.6207C19.5743 12.3124 19.5261 12.3723 19.4779 12.4313L19.4794 12.4335ZM19.222 15.1274C19.223 15.1686 19.2367 15.2085 19.2613 15.2416C19.286 15.2747 19.3203 15.2993 19.3595 15.3121C19.316 15.1759 19.303 15.0319 19.3214 14.8902C19.266 14.9582 19.2314 15.0409 19.222 15.1281V15.1274Z" fill="#010101"/>
<path opacity="0.33" d="M19.4361 14.9019C19.4301 14.9608 19.425 15.0141 19.4209 15.0704C19.4209 15.0916 19.4378 15.0933 19.4529 15.0966C19.5252 15.1111 19.5974 15.1253 19.6696 15.1448H19.6494L19.463 15.1593C19.4327 15.1593 19.4284 15.167 19.439 15.1956C19.4509 15.2244 19.4644 15.2526 19.4794 15.2799C19.4871 15.296 19.4996 15.2994 19.5182 15.2951C19.6755 15.2639 19.8353 15.247 19.9957 15.2445C20.1196 15.2441 20.2435 15.2535 20.366 15.2724C20.3888 15.2724 20.3956 15.2664 20.3922 15.2445C20.3888 15.2226 20.377 15.2293 20.3652 15.2284C20.2978 15.2216 20.2302 15.2182 20.1637 15.2081C20.0522 15.188 19.9434 15.1548 19.8396 15.1094C19.7082 15.0557 19.5817 14.9905 19.4616 14.9146L19.4361 14.9019Z" fill="white"/>
<path opacity="0.33" d="M18.3008 13.6969C18.3851 13.6006 18.4797 13.5525 18.5943 13.6228C18.6547 13.663 18.713 13.7064 18.7689 13.7528C18.8149 13.7889 18.8632 13.8221 18.9133 13.8523C18.9203 13.8558 18.928 13.8577 18.9358 13.8578C18.9436 13.858 18.9514 13.8564 18.9585 13.8532C18.9656 13.8499 18.9719 13.8451 18.9769 13.8392C18.982 13.8332 18.9856 13.8261 18.9875 13.8185C18.9921 13.7924 18.9941 13.7659 18.9935 13.7393C18.993 13.7276 18.9914 13.716 18.9885 13.7047C18.9933 13.7079 18.9978 13.7116 19.0019 13.7157C19.0389 13.7572 19.0658 13.8066 19.0804 13.8602C19.0862 13.874 19.0883 13.889 19.0863 13.9038C19.0844 13.9186 19.0785 13.9327 19.0694 13.9445C19.0532 13.9623 19.0617 13.9707 19.0754 13.9825L19.2543 14.1361C19.2704 14.1496 19.2856 14.1641 19.3008 14.1783C19.298 14.1796 19.2949 14.1802 19.2919 14.1802C19.2888 14.1802 19.2857 14.1796 19.2829 14.1783L18.8881 13.9943C18.8744 13.9898 18.8596 13.9898 18.8459 13.9943C18.7911 14.0097 18.7342 14.016 18.6774 14.0129C18.6456 14.0117 18.6146 14.0025 18.5873 13.9861C18.56 13.9698 18.5373 13.9467 18.5213 13.9192C18.4901 13.8676 18.4695 13.8103 18.4607 13.7506C18.4506 13.6924 18.4337 13.6798 18.3764 13.6873C18.3587 13.6909 18.3412 13.6958 18.3241 13.7018L18.3046 13.7085C18.2991 13.7025 18.2991 13.701 18.3008 13.6969ZM18.602 13.8809C18.6246 13.9025 18.6525 13.9176 18.683 13.9246C18.7134 13.9316 18.7452 13.9302 18.7749 13.9206C18.7883 13.9181 18.8016 13.9147 18.8146 13.9105C18.7347 13.8242 18.6409 13.752 18.537 13.6969C18.54 13.7644 18.5626 13.8295 18.602 13.8843V13.8809Z" fill="#010101"/>
<path opacity="0.33" d="M19.6331 14.4376C19.6351 14.429 19.6394 14.421 19.6455 14.4145C19.6516 14.408 19.6592 14.4031 19.6677 14.4005C19.6762 14.3979 19.6853 14.3975 19.694 14.3994C19.7027 14.4013 19.7107 14.4054 19.7173 14.4114C19.7571 14.4355 19.8016 14.4738 19.844 14.5051L19.8669 14.5236V14.5077C19.8355 14.4269 19.7851 14.3549 19.72 14.2978C19.7028 14.2845 19.6837 14.274 19.6634 14.2664C19.6503 14.2603 19.6355 14.2583 19.6212 14.2609C19.6069 14.2634 19.5937 14.2704 19.5836 14.2807C19.5734 14.2911 19.5667 14.3044 19.5644 14.3187C19.5621 14.3331 19.5643 14.3478 19.5707 14.3608C19.5819 14.3929 19.604 14.4201 19.6331 14.4376Z" fill="#010101"/>
<path opacity="0.33" d="M18.5361 13.6968C18.5394 13.7636 18.562 13.8281 18.6011 13.8824C18.6237 13.904 18.6517 13.9192 18.6821 13.9261C18.7125 13.9331 18.7443 13.9318 18.774 13.9222C18.7875 13.9196 18.8007 13.9162 18.8138 13.912C18.734 13.8251 18.6401 13.7524 18.5361 13.6968Z" fill="url(#paint20_radial_7352_17231)"/>
<path opacity="0.33" d="M19.5198 12.9014C19.5198 12.9014 19.7365 13.1335 19.47 13.4995C19.4321 13.3845 19.4214 13.2624 19.4387 13.1426C19.4784 13.0078 19.5198 12.9014 19.5198 12.9014Z" fill="url(#paint21_linear_7352_17231)"/>
<path opacity="0.33" d="M19.0084 12.2239C19.0084 12.2239 18.9899 12.5056 19.1712 12.6043L18.9865 12.8075C18.9312 12.7193 18.9037 12.6164 18.9076 12.5123C18.9115 12.4082 18.9466 12.3077 19.0084 12.2239Z" fill="url(#paint22_linear_7352_17231)"/>
<path opacity="0.33" d="M16.7385 15.084C16.7385 15.084 14.9327 17.7839 19.4924 16.4564C19.4924 16.4577 16.3343 16.9257 16.7385 15.084Z" fill="url(#paint23_linear_7352_17231)"/>
<path opacity="0.33" d="M16.8875 14.5237C16.8875 14.5237 16.2058 15.1642 16.226 15.953C16.3181 15.427 16.5462 14.9343 16.8875 14.5237Z" fill="url(#paint24_linear_7352_17231)"/>
<path opacity="0.33" d="M18.1299 13.1155C18.1299 13.1155 16.4509 13.2142 16.0132 14.4653C15.9697 14.538 15.9016 14.5927 15.8213 14.6196C15.741 14.6465 15.6537 14.6439 15.5752 14.6122C15.5752 14.6122 15.986 15.1951 16.3859 14.4653C16.3859 14.4687 16.6898 13.4588 18.1299 13.1155Z" fill="url(#paint25_linear_7352_17231)"/>
<path opacity="0.33" d="M18.9081 12.9017C18.9081 12.9017 18.558 11.8319 17.3962 12.4621C17.3962 12.4621 16.8527 12.7683 17.0832 12.2629C17.0832 12.2629 16.7651 12.5548 16.9989 12.7582C17.2327 12.9617 17.7978 12.2731 18.0164 12.674L17.9497 12.5237V12.5052C18.0809 12.5665 18.1962 12.6571 18.2868 12.77C18.2868 12.77 18.5021 12.5338 18.9081 12.9017Z" fill="url(#paint26_linear_7352_17231)"/>
<path opacity="0.33" d="M17.8383 13.045C17.8383 13.045 17.3632 12.6426 16.7803 13.3707C16.9059 13.2195 17.0728 13.1081 17.2607 13.0502C17.4486 12.9924 17.6493 12.9905 17.8383 13.045Z" fill="url(#paint27_linear_7352_17231)"/>
</g>
<g filter="url(#filter0_d_7352_17231)">
<path d="M24.9278 8.34817L17.8682 3.00928L10.8063 8.34817L8.28711 10.3351L17.8682 27.0423L27.4493 10.3351L24.9278 8.34817Z" fill="#C5FFFD"/>
<path d="M21.7294 8.99058H14.0044L17.868 3.00928L21.7294 8.99058Z" fill="#61FFFF"/>
<path d="M21.7294 8.99048H14.0044L17.868 12.4503L21.7294 8.99048Z" fill="#00B8C1"/>
<path d="M17.8682 12.4504L11.9971 11.5693L17.8682 27.0423V12.4504Z" fill="#2BDCEF"/>
<path d="M14.0044 8.99058L10.8062 8.34817L17.8681 3.00928L14.0044 8.99058Z" fill="#C5F8FF"/>
<path d="M17.8682 12.4503L11.9971 11.5693L14.0046 8.99048L17.8682 12.4503Z" fill="#26D3EF"/>
<path d="M10.1641 11.3467L14.0048 8.99048L11.9972 11.5693L10.1641 11.3467Z" fill="#C5F8FF"/>
<path d="M10.8063 8.34814L8.28711 10.335L10.1639 11.3468L10.8063 8.34814Z" fill="#C5F8FF"/>
<path d="M10.8065 8.34814L14.0048 8.99056L10.1641 11.3468L10.8065 8.34814Z" fill="#8AFFFC"/>
<path d="M10.1641 11.3469L11.9972 11.5695L17.8684 27.0424L10.1641 11.3469Z" fill="#00B8C1"/>
<path d="M8.28711 10.335L10.1639 11.3468L17.8682 27.0422L8.28711 10.335Z" fill="#26D3EF"/>
<path d="M17.8682 12.4504L23.737 11.5693L17.8682 27.0423V12.4504Z" fill="#0497A3"/>
<path d="M21.7295 8.99058L24.9278 8.34817L17.8682 3.00928L21.7295 8.99058Z" fill="#16C5D8"/>
<path d="M17.8682 12.4503L23.737 11.5693L21.7295 8.99048L17.8682 12.4503Z" fill="#047399"/>
<path d="M25.5702 11.3467L21.7295 8.99048L23.737 11.5693L25.5702 11.3467Z" fill="#04909B"/>
<path d="M24.9277 8.34814L27.4492 10.335L25.5701 11.3468L24.9277 8.34814Z" fill="#04909B"/>
<path d="M24.9278 8.34814L21.7295 8.99056L25.5702 11.3468L24.9278 8.34814Z" fill="#006187"/>
<path d="M25.5702 11.3469L23.737 11.5695L17.8682 27.0424L25.5702 11.3469Z" fill="#007E93"/>
<path d="M27.4493 10.335L25.5702 11.3468L17.8682 27.0422L27.4493 10.335Z" fill="#00B8C1"/>
<path d="M29.8328 10.1607C29.8328 10.1584 29.8351 10.1584 29.8374 10.1561C29.8374 10.1515 29.8351 10.1469 29.8305 10.1423C29.8305 10.14 29.8305 10.1377 29.8305 10.1377C29.8305 10.1377 29.8305 10.1377 29.8282 10.1377V10.1354L26.685 7.65755L17.8817 1.00172C17.8794 1.00172 17.8771 1.00172 17.8771 1.00172C17.8702 0.999426 17.8656 0.999426 17.8587 1.00172C17.8565 1.00172 17.8542 0.999426 17.8542 1.00172L9.05084 7.65755L5.90761 10.1354V10.1377C5.90761 10.1377 5.90761 10.1377 5.90532 10.1377C5.90303 10.1377 5.90532 10.14 5.90532 10.1423C5.90073 10.1469 5.89844 10.1492 5.89844 10.1561C5.89844 10.1584 5.90073 10.1607 5.90303 10.1607C5.90303 10.163 5.90073 10.163 5.90303 10.1652L17.8473 30.9931H17.8496C17.8519 30.9954 17.8519 30.9977 17.8542 30.9977C17.8542 30.9977 17.8542 31 17.8565 31C17.8587 31 17.8587 31 17.861 31C17.8633 31 17.8633 31 17.8656 31C17.8656 31 17.8679 31 17.8702 31C17.8702 31 17.8702 31 17.8725 31C17.8725 31 17.8748 31 17.8771 31C17.8771 31 17.8771 31 17.8794 31C17.8817 31 17.8817 30.9977 17.8817 30.9977C17.884 30.9954 17.8863 30.9954 17.8863 30.9931C17.8863 30.9931 17.8863 30.9931 17.8886 30.9931L29.8328 10.1652C29.8328 10.1652 29.8328 10.163 29.8328 10.1607ZM10.744 8.03841L12.9856 8.4881L8.30059 11.3629L9.08525 7.70573L10.744 8.03841ZM26.6506 7.70573L27.4353 11.3629L22.7479 8.4881L24.9895 8.03841L26.6506 7.70573ZM22.6791 8.51334L25.1386 11.6749L17.9436 12.7555L22.6791 8.51334ZM17.7899 12.7555L10.5926 11.6749L13.0544 8.51334L17.7899 12.7555ZM17.8679 12.7601L13.1141 8.50186H22.6195L17.8679 12.7601ZM16.5716 12.6225L17.8427 12.8129V30.8509L10.5857 11.7231L16.5716 12.6225ZM17.8909 12.8129L19.1619 12.6225L25.1455 11.7231L17.8886 30.8509V12.8129H17.8909ZM22.7847 8.5684L27.3985 11.3996L25.196 11.668L22.7847 8.5684ZM13.0957 8.45368L17.8679 1.06596L22.6378 8.45368H13.0957ZM12.9512 8.5684L10.5376 11.668L8.33501 11.3996L12.9512 8.5684ZM8.30518 11.4432L8.78011 11.5005L10.5307 11.7139L17.6591 30.5067L12.8021 20.6044L8.30518 11.4432ZM18.0744 30.5067L25.2029 11.7139L26.9534 11.5005L27.4284 11.4432L22.9338 20.6044L18.0744 30.5067ZM27.527 11.356L27.488 11.3767L27.2288 10.1675L26.708 7.73785L29.7686 10.1492L27.527 11.356ZM22.6952 8.4491L17.962 1.12332L26.6116 7.66444L22.6952 8.4491ZM17.7716 1.12332L13.0407 8.4491L9.12426 7.66214L17.7716 1.12332ZM9.02789 7.73785L8.50708 10.1675L8.24782 11.3767L8.20882 11.356L5.96727 10.1492L9.02789 7.73785ZM5.98562 10.2157L8.24553 11.4317L17.5123 30.3186L5.98562 10.2157ZM27.488 11.4317L29.7479 10.2157L18.2212 30.3186L27.488 11.4317Z" fill="white"/>
</g>
<defs>
<filter id="filter0_d_7352_17231" x="1.89844" y="1" width="31.939" height="38" filterUnits="userSpaceOnUse" color-interpolation-filters="sRGB">
<feFlood flood-opacity="0" result="BackgroundImageFix"/>
<feColorMatrix in="SourceAlpha" type="matrix" values="0 0 0 0 0 0 0 0 0 0 0 0 0 0 0 0 0 0 127 0" result="hardAlpha"/>
<feOffset dy="4"/>
<feGaussianBlur stdDeviation="2"/>
<feComposite in2="hardAlpha" operator="out"/>
<feColorMatrix type="matrix" values="0 0 0 0 0.0123958 0 0 0 0 0.425 0 0 0 0 0.425 0 0 0 0.4 0"/>
<feBlend mode="normal" in2="BackgroundImageFix" result="effect1_dropShadow_7352_17231"/>
<feBlend mode="normal" in="SourceGraphic" in2="effect1_dropShadow_7352_17231" result="shape"/>
</filter>
<linearGradient id="paint0_linear_7352_17231" x1="17.9168" y1="12.6987" x2="17.9168" y2="31.2558" gradientUnits="userSpaceOnUse">
<stop stop-color="#76CAC5"/>
<stop offset="1" stop-color="#2C8B98"/>
</linearGradient>
<linearGradient id="paint1_linear_7352_17231" x1="11.2275" y1="12.6987" x2="11.2275" y2="27.9003" gradientUnits="userSpaceOnUse">
<stop stop-color="#76CAC5"/>
<stop offset="1" stop-color="#2C8B98"/>
</linearGradient>
<linearGradient id="paint2_linear_7352_17231" x1="24.6084" y1="12.6987" x2="24.6084" y2="27.8993" gradientUnits="userSpaceOnUse">
<stop stop-color="#76CAC5"/>
<stop offset="1" stop-color="#2C8B98"/>
</linearGradient>
<linearGradient id="paint3_linear_7352_17231" x1="11.5864" y1="10" x2="11.5864" y2="27.2848" gradientUnits="userSpaceOnUse">
<stop stop-color="#76CAC5"/>
<stop offset="1" stop-color="#2C8B98"/>
</linearGradient>
<linearGradient id="paint4_linear_7352_17231" x1="26.0908" y1="13" x2="26.0908" y2="26" gradientUnits="userSpaceOnUse">
<stop stop-color="#76CAC5"/>
<stop offset="1" stop-color="#2C8B98"/>
</linearGradient>
<linearGradient id="paint5_linear_7352_17231" x1="7.58639" y1="2.93286" x2="7.58639" y2="20.2133" gradientUnits="userSpaceOnUse">
<stop stop-color="#76CAC5"/>
<stop offset="1" stop-color="#2C8B98"/>
</linearGradient>
<linearGradient id="paint6_linear_7352_17231" x1="28.2505" y1="2.93286" x2="28.2505" y2="20.2136" gradientUnits="userSpaceOnUse">
<stop stop-color="#76CAC5"/>
<stop offset="1" stop-color="#2C8B98"/>
</linearGradient>
<linearGradient id="paint7_linear_7352_17231" x1="9.47654" y1="6.51294" x2="9.47654" y2="23.7941" gradientUnits="userSpaceOnUse">
<stop stop-color="#76CAC5"/>
<stop offset="1" stop-color="#2C8B98"/>
</linearGradient>
<linearGradient id="paint8_linear_7352_17231" x1="26.3598" y1="6.51294" x2="26.3598" y2="23.7944" gradientUnits="userSpaceOnUse">
<stop stop-color="#76CAC5"/>
<stop offset="1" stop-color="#2C8B98"/>
</linearGradient>
<linearGradient id="paint9_linear_7352_17231" x1="17.9174" y1="3.24194" x2="17.9174" y2="25.684" gradientUnits="userSpaceOnUse">
<stop stop-color="white"/>
<stop offset="0.5" stop-color="#76BBCA"/>
<stop offset="1" stop-color="#2C987E"/>
</linearGradient>
<linearGradient id="paint10_linear_7352_17231" x1="17.9178" y1="4.75366" x2="17.9178" y2="24.1723" gradientUnits="userSpaceOnUse">
<stop stop-color="white"/>
<stop offset="1" stop-color="#336CB5"/>
</linearGradient>
<linearGradient id="paint11_linear_7352_17231" x1="17.9183" y1="21.9249" x2="17.9183" y2="7.00049" gradientUnits="userSpaceOnUse">
<stop stop-color="white"/>
<stop offset="1" stop-color="#010101"/>
</linearGradient>
<linearGradient id="paint12_linear_7352_17231" x1="15.3526" y1="8.53516" x2="15.3526" y2="14.4627" gradientUnits="userSpaceOnUse">
<stop stop-color="white"/>
<stop offset="0.5" stop-color="#CAD6ED"/>
<stop offset="1" stop-color="#5167B0"/>
</linearGradient>
<linearGradient id="paint13_linear_7352_17231" x1="20.484" y1="14.463" x2="20.484" y2="8.53516" gradientUnits="userSpaceOnUse">
<stop stop-color="white"/>
<stop offset="0.5" stop-color="#CAD6ED"/>
<stop offset="1" stop-color="#5167B0"/>
</linearGradient>
<linearGradient id="paint14_linear_7352_17231" x1="20.484" y1="17.4259" x2="20.484" y2="11.499" gradientUnits="userSpaceOnUse">
<stop stop-color="white"/>
<stop offset="0.5" stop-color="#CAD6ED"/>
<stop offset="1" stop-color="#5167B0"/>
</linearGradient>
<linearGradient id="paint15_linear_7352_17231" x1="20.484" y1="20.3912" x2="20.484" y2="14.4631" gradientUnits="userSpaceOnUse">
<stop stop-color="white"/>
<stop offset="0.5" stop-color="#CAD6ED"/>
<stop offset="1" stop-color="#5167B0"/>
</linearGradient>
<linearGradient id="paint16_linear_7352_17231" x1="15.3526" y1="14.4631" x2="15.3526" y2="20.3912" gradientUnits="userSpaceOnUse">
<stop stop-color="white"/>
<stop offset="0.5" stop-color="#CAD6ED"/>
<stop offset="1" stop-color="#5167B0"/>
</linearGradient>
<linearGradient id="paint17_linear_7352_17231" x1="15.3526" y1="17.4259" x2="15.3526" y2="11.499" gradientUnits="userSpaceOnUse">
<stop stop-color="white"/>
<stop offset="0.5" stop-color="#CAD6ED"/>
<stop offset="1" stop-color="#5167B0"/>
</linearGradient>
<linearGradient id="paint18_linear_7352_17231" x1="17.9182" y1="10.5615" x2="17.9182" y2="18.3629" gradientUnits="userSpaceOnUse">
<stop stop-color="white"/>
<stop offset="0.5" stop-color="#CAD6ED"/>
<stop offset="1" stop-color="#5167B0"/>
</linearGradient>
<radialGradient id="paint19_radial_7352_17231" cx="0" cy="0" r="1" gradientUnits="userSpaceOnUse" gradientTransform="translate(-146.367 13.9952) rotate(180) scale(3.92684 3.92588)">
<stop stop-color="#6274AF"/>
<stop offset="0.29" stop-color="#6476B1"/>
<stop offset="0.45" stop-color="#6C7EB7"/>
<stop offset="0.58" stop-color="#7A8CC2"/>
<stop offset="0.69" stop-color="#8D9FD1"/>
<stop offset="0.7" stop-color="#90A2D3"/>
</radialGradient>
<radialGradient id="paint20_radial_7352_17231" cx="0" cy="0" r="1" gradientUnits="userSpaceOnUse" gradientTransform="translate(8.89516 13.8141) scale(0.744295 0.744302)">
<stop stop-color="#6274AF"/>
<stop offset="0.05" stop-color="#6A7CB5"/>
<stop offset="0.23" stop-color="#7F91C6"/>
<stop offset="0.4" stop-color="#8C9ED0"/>
<stop offset="0.56" stop-color="#90A2D3"/>
</radialGradient>
<linearGradient id="paint21_linear_7352_17231" x1="19.4308" y1="13.1998" x2="19.6033" y2="13.1998" gradientUnits="userSpaceOnUse">
<stop stop-color="#161F49"/>
<stop offset="0.27" stop-color="#18204D"/>
<stop offset="0.54" stop-color="#1C255A"/>
<stop offset="0.83" stop-color="#242C6E"/>
<stop offset="1" stop-color="#2B327F"/>
</linearGradient>
<linearGradient id="paint22_linear_7352_17231" x1="18.9091" y1="12.5157" x2="19.1712" y2="12.5157" gradientUnits="userSpaceOnUse">
<stop stop-color="#161F49"/>
<stop offset="0.27" stop-color="#18204D"/>
<stop offset="0.54" stop-color="#1C255A"/>
<stop offset="0.83" stop-color="#242C6E"/>
<stop offset="1" stop-color="#2B327F"/>
</linearGradient>
<linearGradient id="paint23_linear_7352_17231" x1="16.3857" y1="15.952" x2="19.4924" y2="15.952" gradientUnits="userSpaceOnUse">
<stop stop-color="#161F49"/>
<stop offset="0.27" stop-color="#18204D"/>
<stop offset="0.54" stop-color="#1C255A"/>
<stop offset="0.83" stop-color="#242C6E"/>
<stop offset="1" stop-color="#2B327F"/>
</linearGradient>
<linearGradient id="paint24_linear_7352_17231" x1="16.2262" y1="15.2383" x2="16.8875" y2="15.2383" gradientUnits="userSpaceOnUse">
<stop stop-color="#161F49"/>
<stop offset="0.27" stop-color="#18204D"/>
<stop offset="0.54" stop-color="#1C255A"/>
<stop offset="0.83" stop-color="#242C6E"/>
<stop offset="1" stop-color="#2B327F"/>
</linearGradient>
<linearGradient id="paint25_linear_7352_17231" x1="15.5752" y1="13.9758" x2="18.1299" y2="13.9758" gradientUnits="userSpaceOnUse">
<stop stop-color="#161F49"/>
<stop offset="0.27" stop-color="#18204D"/>
<stop offset="0.54" stop-color="#1C255A"/>
<stop offset="0.83" stop-color="#242C6E"/>
<stop offset="1" stop-color="#2B327F"/>
</linearGradient>
<linearGradient id="paint26_linear_7352_17231" x1="16.9131" y1="12.583" x2="18.9081" y2="12.583" gradientUnits="userSpaceOnUse">
<stop stop-color="#161F49"/>
<stop offset="0.27" stop-color="#18204D"/>
<stop offset="0.54" stop-color="#1C255A"/>
<stop offset="0.83" stop-color="#242C6E"/>
<stop offset="1" stop-color="#2B327F"/>
</linearGradient>
<linearGradient id="paint27_linear_7352_17231" x1="16.7803" y1="13.1524" x2="17.8383" y2="13.1524" gradientUnits="userSpaceOnUse">
<stop stop-color="#161F49"/>
<stop offset="0.27" stop-color="#18204D"/>
<stop offset="0.54" stop-color="#1C255A"/>
<stop offset="0.83" stop-color="#242C6E"/>
<stop offset="1" stop-color="#2B327F"/>
</linearGradient>
</defs>
</svg>
