<svg width="36" height="32" viewBox="0 0 36 32" fill="none" xmlns="http://www.w3.org/2000/svg">
<path d="M13.2065 12.6987V28.3366L18.263 31.2558L23.3194 28.3366V12.6987H13.2065Z" fill="url(#paint0_linear_1698_9705)"/>
<path d="M13.9629 27.9003V13.4534H22.5636V27.9003L18.2633 30.3825L13.9629 27.9003Z" fill="#333F54"/>
<path d="M10.6938 26.8854L12.4516 27.9003V12.6987H10.6938V26.8854Z" fill="url(#paint1_linear_1698_9705)"/>
<path d="M24.0757 12.6987V27.8993L25.8334 26.8844V12.6987H24.0757Z" fill="url(#paint2_linear_1698_9705)"/>
<path d="M4.22869 19.0121L16.8842 26.3176V17.1096L2.89307 9.03284V16.6953C2.89261 17.1647 3.01581 17.626 3.25028 18.0327C3.48474 18.4394 3.8222 18.7772 4.22869 19.0121Z" fill="url(#paint3_linear_1698_9705)"/>
<path d="M19.7754 17.1096V26.3136L32.43 19.0123C32.8359 18.7781 33.173 18.4412 33.4075 18.0355C33.6419 17.6297 33.7654 17.1694 33.7656 16.7008V9.03284L19.7754 17.1096Z" fill="url(#paint4_linear_1698_9705)"/>
<path d="M2.27214 12.9079L14.9277 20.2135V11.0098L0.936523 2.93298V10.5954C0.936994 11.064 1.06064 11.5242 1.29506 11.9299C1.52948 12.3356 1.86643 12.6725 2.27214 12.9069V12.9079Z" fill="url(#paint5_linear_1698_9705)"/>
<path d="M21.6001 11.0098V20.2137L34.2556 12.9081C34.6614 12.6738 34.9985 12.3369 35.2329 11.9312C35.4673 11.5255 35.5909 11.0652 35.5912 10.5966V2.93298L21.6001 11.0098Z" fill="url(#paint6_linear_1698_9705)"/>
<path d="M4.16278 16.4877L16.8183 23.794V14.5896L2.82813 6.51282V14.1752C2.82801 14.6439 2.9513 15.1044 3.18558 15.5103C3.41987 15.9162 3.7569 16.2533 4.16278 16.4877Z" fill="url(#paint7_linear_1698_9705)"/>
<path d="M19.71 14.5896V23.7942L32.3655 16.4879C32.7715 16.2539 33.1087 15.917 33.3431 15.5112C33.5776 15.1054 33.701 14.6451 33.7011 14.1764V6.51282L19.71 14.5896Z" fill="url(#paint8_linear_1698_9705)"/>
<path d="M30.2939 18.4982V10.4274C30.2939 9.54255 30.061 8.6733 29.6186 7.90701C29.1762 7.14072 28.5399 6.50439 27.7736 6.062L20.7837 2.02672C20.0174 1.58442 19.1483 1.35156 18.2635 1.35156C17.3788 1.35156 16.5096 1.58442 15.7434 2.02672L8.75587 6.06224C7.9895 6.50453 7.35312 7.14084 6.91074 7.90716C6.46837 8.67348 6.23559 9.54278 6.23584 10.4276V18.4982C6.23584 19.383 6.46883 20.2522 6.91137 21.0184C7.35392 21.7846 7.99041 22.4207 8.75683 22.8628L15.7455 26.8988C16.5118 27.3411 17.3809 27.574 18.2657 27.574C19.1504 27.574 20.0196 27.3411 20.7858 26.8988L27.7758 22.8626C28.5415 22.42 29.1773 21.7837 29.6193 21.0176C30.0613 20.2515 30.294 19.3826 30.2939 18.4982Z" fill="#333F54" stroke="#EFF3F8" stroke-miterlimit="10"/>
<path d="M18.2636 25.6839C17.7105 25.6839 17.1672 25.5383 16.6882 25.2618L9.69922 21.2265C9.22087 20.9496 8.82361 20.5519 8.54718 20.0732C8.27075 19.5946 8.12483 19.0517 8.12402 18.499V10.4275C8.12484 9.87457 8.27075 9.33159 8.54717 8.85278C8.82359 8.37396 9.22084 7.97608 9.69922 7.6989L16.6867 3.66363C17.1657 3.38729 17.709 3.24182 18.2619 3.24182C18.8149 3.24182 19.3581 3.38729 19.8371 3.66363L26.827 7.6989C27.3053 7.97621 27.7025 8.37412 27.9789 8.85291C28.2553 9.33169 28.4013 9.87461 28.4022 10.4275V18.4982C28.4013 19.0509 28.2553 19.5937 27.9789 20.0724C27.7024 20.551 27.3053 20.9487 26.827 21.2258L19.8371 25.2613C19.3588 25.5378 18.8161 25.6836 18.2636 25.6839Z" fill="url(#paint9_linear_1698_9705)"/>
<path style="mix-blend-mode:screen" d="M18.2635 24.1721C17.9759 24.1721 17.6935 24.096 17.4448 23.9517L10.4549 19.9162C10.2063 19.7721 9.9998 19.5653 9.85614 19.3165C9.71248 19.0676 9.63665 18.7854 9.63623 18.498V10.4275C9.63655 10.14 9.71233 9.85757 9.85599 9.60853C9.99966 9.35949 10.2062 9.15251 10.4549 9.00829L17.4458 4.97302C17.6947 4.82932 17.977 4.75366 18.2644 4.75366C18.5518 4.75366 18.8342 4.82932 19.0831 4.97302L26.073 9.00854C26.3218 9.1527 26.5283 9.35966 26.672 9.60871C26.8157 9.85777 26.8914 10.1402 26.8917 10.4277V18.4985C26.8912 18.7858 26.8153 19.068 26.6717 19.3169C26.528 19.5657 26.3216 19.7726 26.073 19.9167L19.0821 23.9522C18.8334 24.0963 18.551 24.1723 18.2635 24.1723V24.1721Z" fill="url(#paint10_linear_1698_9705)"/>
<path style="mix-blend-mode:multiply" opacity="0.3" d="M11.8022 18.1936V10.7313L18.2641 7.00037L24.7267 10.7313V18.1939L18.2641 21.9248L11.8022 18.1936Z" fill="url(#paint11_linear_1698_9705)"/>
<path d="M12.6699 17.6925V11.233L18.2635 8.00342L23.8572 11.233V17.6925L18.2635 20.9214L12.6699 17.6925Z" fill="#1D212F"/>
<path d="M18.2639 8.53516L13.1309 11.4989L18.2639 14.4627V8.53516Z" fill="url(#paint12_linear_1698_9705)"/>
<path d="M18.2632 14.463L23.3971 11.4992L18.2632 8.53516V14.463Z" fill="url(#paint13_linear_1698_9705)"/>
<path d="M18.2632 14.4627L23.3971 17.4258V11.4989L18.2632 14.4627Z" fill="url(#paint14_linear_1698_9705)"/>
<path d="M18.2632 14.463V20.3911L23.3971 17.428L18.2632 14.463Z" fill="url(#paint15_linear_1698_9705)"/>
<path d="M13.1309 17.4261L18.2639 20.3911V14.463L13.1309 17.4261Z" fill="url(#paint16_linear_1698_9705)"/>
<path d="M18.2639 14.4627L13.1309 11.4989V17.4258L18.2639 14.4627Z" fill="url(#paint17_linear_1698_9705)"/>
<path d="M18.2639 10.5616L14.8857 12.512V16.4127L18.2639 18.363L21.6421 16.4127V12.512L18.2639 10.5616Z" fill="url(#paint18_linear_1698_9705)"/>
<g style="mix-blend-mode:overlay">
<path opacity="0.33" d="M20.1162 12.0314C20.0276 12.2625 20.003 12.537 19.9154 12.7713C19.9109 12.7827 19.9109 12.7953 19.9154 12.8067C19.9366 12.8438 19.9635 12.8789 19.9821 12.9172C20.0135 12.9755 20.0323 13.0397 20.0373 13.1057C20.0422 13.1717 20.0332 13.238 20.0107 13.3003C19.9794 13.387 19.9319 13.4669 19.8706 13.5358C19.8652 13.5413 19.8622 13.5488 19.8622 13.5565C19.8622 13.5642 19.8652 13.5717 19.8706 13.5772C19.9104 13.635 19.9372 13.7007 19.9491 13.7698C19.9506 13.7882 19.9563 13.806 19.9656 13.822C19.9749 13.8379 19.9877 13.8515 20.003 13.8618C20.1095 13.9285 20.2123 14.002 20.316 14.0711C20.3734 14.1098 20.4309 14.1486 20.4906 14.1833C20.5503 14.2179 20.6004 14.2389 20.6534 14.2675C20.7619 14.3215 20.8461 14.4142 20.8896 14.5273C20.9087 14.5956 20.9239 14.6649 20.9351 14.7349C20.9351 14.746 20.9351 14.759 20.9529 14.7619C20.9977 14.7703 21.0069 14.7821 21.0069 14.8286V15.0624C21.0091 15.0891 21.0019 15.1158 20.9865 15.1378C20.9711 15.1598 20.9485 15.1757 20.9226 15.1828L20.8838 15.1972C20.8798 15.1979 20.8759 15.1994 20.8724 15.2017C20.869 15.2039 20.866 15.2068 20.8636 15.2101C20.8613 15.2135 20.8596 15.2173 20.8588 15.2213C20.8579 15.2254 20.8578 15.2295 20.8585 15.2336C20.8585 15.3111 20.8458 15.2918 20.9175 15.3279L20.9293 15.333C20.9364 15.3358 20.9428 15.3401 20.948 15.3457C20.9532 15.3512 20.9572 15.3578 20.9596 15.365C20.962 15.3723 20.9628 15.3799 20.962 15.3875C20.9611 15.3951 20.9586 15.4023 20.9546 15.4088C20.9452 15.43 20.9351 15.4503 20.925 15.4695C20.9162 15.4859 20.9023 15.4989 20.8853 15.5065C20.8684 15.5141 20.8494 15.5159 20.8313 15.5117C20.8072 15.5049 20.7832 15.4955 20.7591 15.4905C20.7536 15.4895 20.7479 15.4898 20.7425 15.4913C20.7371 15.4927 20.7321 15.4953 20.7278 15.4989C20.6491 15.5875 20.5415 15.6452 20.4242 15.6617C20.2292 15.6982 20.0276 15.6716 19.8487 15.5858C19.7644 15.5461 19.6801 15.5015 19.5956 15.4609C19.5491 15.4336 19.4968 15.4176 19.443 15.4144C19.3148 15.4136 19.1885 15.4455 19.076 15.5071C19.0608 15.5155 19.0541 15.5249 19.0609 15.5425C19.0753 15.5829 19.0878 15.6268 19.104 15.6648C19.1535 15.7957 19.228 15.9157 19.3233 16.0183C19.4401 16.1392 19.5791 16.2366 19.7326 16.305C19.8812 16.3741 20.0322 16.4367 20.1824 16.5025C20.1917 16.5076 20.2005 16.5136 20.2087 16.5203L20.1846 16.5263C20.1003 16.5374 20.016 16.5465 19.9373 16.561C19.7758 16.5876 19.6167 16.6272 19.4615 16.6792C19.2495 16.7529 19.0385 16.8291 18.8287 16.908C18.6618 16.973 18.4904 17.026 18.3159 17.0666C18.1872 17.0947 18.0567 17.1136 17.9253 17.1232C17.6235 17.152 17.3191 17.108 17.0378 16.9949C16.8207 16.9063 16.6318 16.7605 16.491 16.573C16.3278 16.3455 16.2304 16.0776 16.2093 15.7984C16.1913 15.6241 16.1935 15.4483 16.216 15.2745C16.2174 15.2682 16.2164 15.2617 16.2133 15.2561C16.2102 15.2506 16.2052 15.2463 16.1991 15.2442C16.1675 15.2301 16.1368 15.214 16.1072 15.196C16.0017 15.1229 15.9027 15.0411 15.811 14.9514C15.8069 14.9457 15.8032 14.9397 15.7999 14.9335L16.1551 14.8931C15.9355 14.8237 15.7458 14.6821 15.6167 14.4915C15.625 14.489 15.6337 14.489 15.642 14.4915C15.6729 14.4946 15.7036 14.4995 15.734 14.5059C15.8189 14.5178 15.9054 14.5103 15.987 14.484C16.0874 14.4501 16.1735 14.3836 16.2317 14.295C16.3159 14.1633 16.4002 14.0284 16.4847 13.8926C16.587 13.7118 16.708 13.5423 16.8459 13.387C16.8678 13.3629 16.8907 13.3415 16.9143 13.3179L16.9025 13.3112L16.8823 13.3044C16.8118 13.2853 16.7485 13.2459 16.7003 13.1912C16.652 13.1364 16.6208 13.0687 16.6106 12.9964C16.5955 12.9062 16.5878 12.8142 16.5769 12.7232C16.5775 12.7163 16.579 12.7095 16.5813 12.7029L16.6066 12.7224C16.6328 12.7427 16.6571 12.7646 16.6834 12.7848C16.7599 12.852 16.8592 12.8873 16.961 12.8835C17.0601 12.8743 17.1564 12.8456 17.2444 12.7992C17.2444 12.7992 17.2444 12.7942 17.2521 12.7882C17.2598 12.7821 17.241 12.7814 17.2369 12.7771C17.21 12.7523 17.1887 12.7222 17.1741 12.6886C17.1596 12.6551 17.1523 12.6189 17.1526 12.5823C17.1535 12.5205 17.1713 12.4601 17.2042 12.4077C17.2767 12.2975 17.3655 12.1988 17.4674 12.1149C17.4734 12.112 17.4796 12.1095 17.4859 12.1072C17.4859 12.119 17.4859 12.1275 17.4859 12.1352C17.4829 12.1632 17.4815 12.1913 17.4816 12.2194C17.4866 12.2917 17.5247 12.3249 17.5938 12.3172C17.6336 12.3134 17.6731 12.3067 17.712 12.297C17.842 12.264 17.9711 12.2269 18.1009 12.1958C18.2807 12.1519 18.4662 12.1351 18.651 12.146C18.7806 12.1509 18.9077 12.1831 19.024 12.2404C19.0789 12.269 19.1304 12.3054 19.1851 12.3391L19.1962 12.3189C19.2326 12.2473 19.2919 12.19 19.3647 12.1561C19.3943 12.1417 19.3984 12.145 19.4061 12.178C19.4149 12.2344 19.4358 12.2881 19.4674 12.3356C19.499 12.3831 19.5405 12.4231 19.5891 12.453C19.6221 12.4725 19.6212 12.4742 19.6447 12.4446C19.7688 12.2902 19.946 12.1612 20.0666 12.0066" fill="url(#paint19_radial_1698_9705)"/>
<path opacity="0.33" d="M20.2303 11.814C20.1417 12.0451 20.0016 12.5404 19.9139 12.7716C19.9094 12.7829 19.9094 12.7956 19.9139 12.807C19.9351 12.844 19.9621 12.8792 19.9806 12.9175C20.0121 12.9757 20.0309 13.0399 20.0358 13.106C20.0407 13.172 20.0317 13.2383 20.0093 13.3006C19.978 13.3873 19.9304 13.4672 19.8691 13.536C19.8637 13.5416 19.8607 13.549 19.8607 13.5567C19.8607 13.5645 19.8637 13.5719 19.8691 13.5775C19.9089 13.6352 19.9357 13.701 19.9476 13.7701C19.9492 13.7885 19.9548 13.8063 19.9641 13.8222C19.9735 13.8381 19.9863 13.8517 20.0016 13.8621C20.1078 13.9288 20.2108 14.0022 20.3146 14.0713C20.3719 14.1101 20.4294 14.1488 20.4892 14.1835C20.5489 14.2182 20.5989 14.2391 20.6519 14.2678C20.7604 14.3218 20.8447 14.4145 20.8881 14.5276C20.9072 14.5959 20.9224 14.6652 20.9336 14.7351C20.9336 14.7462 20.9336 14.7592 20.9515 14.7621C20.9962 14.7705 21.0054 14.7823 21.0054 14.8288V15.0626C21.0076 15.0894 21.0004 15.116 20.985 15.138C20.9696 15.16 20.947 15.1759 20.9211 15.183L20.8823 15.1974C20.8783 15.1982 20.8744 15.1997 20.871 15.2019C20.8675 15.2041 20.8645 15.207 20.8622 15.2104C20.8598 15.2138 20.8582 15.2176 20.8573 15.2216C20.8564 15.2256 20.8563 15.2298 20.8571 15.2338C20.8571 15.3113 20.8443 15.2921 20.9161 15.3282L20.9279 15.3332C20.9349 15.336 20.9413 15.3404 20.9465 15.3459C20.9518 15.3514 20.9557 15.3581 20.9581 15.3653C20.9606 15.3725 20.9614 15.3802 20.9605 15.3877C20.9596 15.3953 20.9571 15.4026 20.9531 15.4091C20.9437 15.4303 20.9336 15.4505 20.9235 15.4698C20.9147 15.4861 20.9008 15.4991 20.8839 15.5068C20.8669 15.5144 20.8479 15.5162 20.8299 15.5119C20.8058 15.5052 20.7817 15.4958 20.7576 15.4907C20.7521 15.4898 20.7465 15.49 20.741 15.4915C20.7356 15.493 20.7306 15.4956 20.7263 15.4991C20.6477 15.5877 20.54 15.6454 20.4227 15.6619C20.2277 15.6985 20.0261 15.6719 19.8472 15.5861C19.763 15.5463 19.6787 15.5018 19.5942 15.4611C19.5476 15.4338 19.4953 15.4179 19.4415 15.4146C19.3133 15.4138 19.187 15.4457 19.0746 15.5073C19.0594 15.5158 19.0526 15.5251 19.0594 15.5427C19.0738 15.5832 19.0864 15.627 19.1025 15.665C19.152 15.7959 19.2265 15.916 19.3218 16.0185C19.4386 16.1394 19.5776 16.2368 19.7312 16.3053C19.8797 16.3744 20.0307 16.437 20.1809 16.5027C20.1902 16.5079 20.199 16.5138 20.2072 16.5205L20.1831 16.5266C20.0988 16.5376 20.0146 16.5468 19.9358 16.5612C19.7743 16.5879 19.6152 16.6274 19.46 16.6795C19.248 16.7531 19.0371 16.8294 18.8273 16.9082C18.6603 16.9733 18.4889 17.0263 18.3144 17.0669C18.1857 17.095 18.0552 17.1139 17.9239 17.1235C17.622 17.1522 17.3177 17.1082 17.0363 16.9951C16.8193 16.9065 16.6303 16.7607 16.4895 16.5733C16.3264 16.3458 16.2289 16.0778 16.2078 15.7987C16.1898 15.6244 16.1921 15.4485 16.2145 15.2747C16.2159 15.2685 16.2149 15.262 16.2118 15.2564C16.2087 15.2508 16.2037 15.2465 16.1977 15.2444C16.166 15.2303 16.1353 15.2143 16.1057 15.1962C16.0003 15.1232 15.9012 15.0413 15.8095 14.9516C15.8054 14.9459 15.8017 14.94 15.7985 14.9338L16.1536 14.8933C15.9342 14.8242 15.7446 14.6831 15.6152 14.4929C15.6235 14.4905 15.6323 14.4905 15.6405 14.4929C15.6714 14.4961 15.7021 14.5009 15.7325 14.5074C15.8174 14.5193 15.9039 14.5118 15.9856 14.4854C16.0859 14.4515 16.1721 14.385 16.2302 14.2964C16.3145 14.1647 16.3987 14.0299 16.4833 13.8941C16.5855 13.7133 16.7066 13.5438 16.8444 13.3884C16.8663 13.3644 16.8892 13.3429 16.9128 13.3193L16.901 13.3126L16.8808 13.3059C16.8103 13.2867 16.7471 13.2474 16.6988 13.1926C16.6505 13.1379 16.6194 13.0702 16.6092 12.9979C16.594 12.9076 16.5863 12.8156 16.5755 12.7246C16.5761 12.7177 16.5775 12.7109 16.5798 12.7044L16.6051 12.7239C16.6313 12.7441 16.6557 12.766 16.6819 12.7862C16.7584 12.8534 16.8578 12.8888 16.9595 12.885C17.0586 12.8757 17.1549 12.8471 17.2429 12.8007C17.2429 12.8007 17.2429 12.7956 17.2506 12.7896C17.2583 12.7836 17.2396 12.7829 17.2355 12.7785C17.2086 12.7538 17.1872 12.7236 17.1727 12.6901C17.1582 12.6565 17.1508 12.6203 17.1512 12.5837C17.152 12.5219 17.1699 12.4615 17.2027 12.4092C17.2753 12.2989 17.364 12.2002 17.4659 12.1164C17.4719 12.1135 17.4781 12.1109 17.4844 12.1087C17.4844 12.1205 17.4844 12.1289 17.4844 12.1366C17.4815 12.1646 17.48 12.1927 17.4801 12.2209C17.4851 12.2931 17.5232 12.3264 17.5923 12.3186C17.6322 12.3149 17.6717 12.3081 17.7105 12.2984C17.8405 12.2654 17.9696 12.2284 18.0994 12.1973C18.2793 12.1533 18.4647 12.1365 18.6496 12.1475C18.7791 12.1524 18.9062 12.1845 19.0225 12.2418C19.0774 12.2705 19.129 12.3068 19.1836 12.3406L19.1947 12.3203C19.2311 12.2488 19.2905 12.1915 19.3633 12.1576C19.3929 12.1431 19.397 12.1465 19.4047 12.1795C19.4134 12.2358 19.4344 12.2896 19.466 12.3371C19.4975 12.3845 19.5391 12.4246 19.5877 12.4544C19.6206 12.474 19.6197 12.4756 19.6433 12.446C19.7673 12.2917 20.0651 11.9685 20.1908 11.8149L20.2303 11.814ZM19.6719 13.5336C19.6651 13.526 19.6569 13.5198 19.6479 13.5151C19.6396 13.5126 19.6308 13.5126 19.6226 13.5151C19.6158 13.5151 19.6108 13.5211 19.604 13.5228C19.4995 13.5569 19.3862 13.5522 19.2849 13.5096C19.1835 13.4669 19.1009 13.3892 19.0522 13.2907C19.0394 13.2695 19.0293 13.2469 19.0168 13.2249C19.0113 13.2186 19.0044 13.2136 18.9965 13.2105C18.9561 13.192 18.9123 13.1734 18.8761 13.1573C18.8665 13.1537 18.8579 13.1479 18.8509 13.1405C18.8439 13.133 18.8387 13.124 18.8357 13.1142C18.7601 12.9186 18.6344 12.7464 18.4712 12.6148C18.4169 12.5686 18.3565 12.5303 18.2915 12.5009V12.5195C18.3522 12.6545 18.4105 12.7903 18.4755 12.9235C18.5137 13.0099 18.5784 13.082 18.6602 13.1294C18.6814 13.1404 18.7033 13.1489 18.7293 13.1597L18.5875 13.185C18.3698 13.2267 18.1644 13.3173 17.9867 13.4498C17.7325 13.642 17.5428 13.9068 17.4425 14.2093C17.3525 14.4653 17.3216 14.7385 17.3522 15.0082C17.3815 15.3246 17.5076 15.6243 17.7134 15.8663C17.8852 16.0643 18.1112 16.2077 18.3635 16.2788C18.41 16.2923 18.4572 16.3029 18.5044 16.3142C18.5128 16.3151 18.5213 16.3151 18.5297 16.3142C18.2767 16.0486 18.0953 15.7232 18.0024 15.3684C18.2619 15.7621 18.6398 16.0632 19.0815 16.2282L19.0876 16.2215C19.0635 16.1952 19.0394 16.1683 19.0153 16.1413C18.8864 16.0024 18.7873 15.8385 18.7242 15.6597C18.709 15.6116 18.7001 15.562 18.6854 15.5138C18.6838 15.5083 18.6811 15.5031 18.6775 15.4986C18.6738 15.4941 18.6694 15.4903 18.6643 15.4876C18.4858 15.4095 18.3285 15.2901 18.2053 15.1392C18.0797 14.9906 18.0026 14.8072 17.9843 14.6135C17.9686 14.4295 18.0152 14.2456 18.1167 14.0913C18.1228 14.0811 18.1315 14.0727 18.142 14.0672C18.1407 14.0866 18.1374 14.1058 18.1319 14.1245C18.1105 14.2246 18.1003 14.3268 18.1016 14.4291C18.0987 14.5791 18.1354 14.7273 18.208 14.8587C18.2536 14.9414 18.3164 15.0134 18.392 15.07C18.4676 15.1266 18.5545 15.1664 18.6467 15.1868C18.7636 15.2143 18.8849 15.2176 19.0031 15.1965C19.1214 15.1755 19.2341 15.1306 19.3344 15.0645C19.3892 15.0282 19.4422 14.989 19.493 14.9473C19.4978 14.9427 19.5021 14.9376 19.5058 14.9321C19.4427 14.9011 19.3888 14.8542 19.3493 14.7961C19.3098 14.738 19.2861 14.6706 19.2804 14.6005C19.2752 14.5499 19.2822 14.4987 19.3006 14.4513C19.3124 14.4809 19.3218 14.5052 19.3327 14.5288C19.3534 14.5753 19.3862 14.6153 19.4276 14.645C19.469 14.6746 19.5175 14.6927 19.5682 14.6973C19.6524 14.7074 19.7326 14.705 19.8145 14.7084C19.8811 14.7064 19.9477 14.7104 20.0136 14.7202C20.0414 14.7265 20.0676 14.7386 20.0904 14.7556C20.0981 14.7607 20.1005 14.7741 20.1056 14.7835C20.0965 14.7874 20.0872 14.7906 20.0777 14.7929L19.8913 14.8057H19.8718C19.8804 14.8132 19.8894 14.8203 19.8988 14.8269C20.0623 14.9269 20.2381 15.0055 20.4217 15.0607C20.5246 15.0952 20.6333 15.1087 20.7415 15.1004C20.7808 15.0945 20.8193 15.0843 20.8563 15.0701C20.8617 15.0666 20.8663 15.062 20.8698 15.0566C20.8733 15.0512 20.8756 15.0451 20.8766 15.0388C20.8783 15.0154 20.8783 14.992 20.8766 14.9687C20.819 15.0063 20.7499 15.0219 20.6818 15.0125C20.6962 15.0048 20.7114 14.9974 20.7249 14.9884C20.7422 14.977 20.7588 14.9647 20.7747 14.9514C20.7866 14.9409 20.796 14.9279 20.8021 14.9133C20.8083 14.8987 20.811 14.8829 20.8101 14.8671C20.8144 14.777 20.8032 14.6869 20.7771 14.6005C20.7447 14.5216 20.6954 14.4508 20.6327 14.393L20.6216 14.3862H20.6122L20.6392 14.5921H20.6331L20.5809 14.5078C20.5496 14.4556 20.5185 14.4024 20.4865 14.3501C20.4789 14.3375 20.4689 14.3266 20.4569 14.3181L19.6479 13.7696C19.6362 13.7621 19.6259 13.7527 19.6175 13.7417L19.815 13.767C19.7963 13.6753 19.7473 13.5927 19.6758 13.5324L19.6719 13.5336ZM16.223 15.0583C16.3209 15.0819 16.422 15.09 16.5225 15.0823C16.6046 15.0769 16.6834 15.0476 16.7491 14.998C16.8147 14.9483 16.8645 14.8806 16.8921 14.803C16.8511 14.8564 16.7994 14.9006 16.7402 14.9327C16.6811 14.9648 16.6158 14.9841 16.5487 14.9894V14.9827L16.6053 14.954C16.6907 14.8999 16.7619 14.8262 16.8129 14.739C16.8904 14.6186 16.9639 14.4927 17.0399 14.3687C17.1194 14.2307 17.2132 14.1015 17.32 13.9834C17.353 13.9487 17.3891 13.9177 17.4238 13.8847L17.4466 13.8695V13.8628L17.3462 13.9109C17.1681 14.0113 17.0219 14.1599 16.9244 14.3395C16.8586 14.4517 16.7953 14.5649 16.7252 14.6766C16.6452 14.8104 16.5234 14.9141 16.3785 14.9718C16.3094 14.9981 16.236 15.0123 16.1642 15.0318L16.1401 15.0378V15.0455L16.223 15.0583ZM19.7666 15.0684C19.7666 15.0896 19.7834 15.0913 19.7986 15.0946C19.8708 15.1091 19.9431 15.1233 20.0153 15.1428H19.9951L19.8087 15.1572C19.7784 15.1572 19.774 15.1649 19.7846 15.1936C19.7966 15.2224 19.8101 15.2505 19.8251 15.2779C19.8328 15.294 19.8453 15.2974 19.8638 15.293C20.0212 15.2619 20.181 15.2449 20.3413 15.2425C20.4653 15.2421 20.5891 15.2514 20.7116 15.2704C20.7345 15.2704 20.7412 15.2644 20.7379 15.2425C20.7345 15.2206 20.7227 15.2273 20.7109 15.2263C20.6435 15.2196 20.5758 15.2162 20.5094 15.2061C20.3979 15.186 20.2891 15.1528 20.1853 15.1074C20.0538 15.0537 19.9273 14.9885 19.8073 14.9126L19.7832 14.8998C19.7764 14.9648 19.7714 15.0164 19.767 15.0684H19.7666ZM18.2284 12.9025C18.1685 12.792 17.8774 12.734 17.7763 12.754C17.6156 12.7949 17.4593 12.8514 17.3096 12.9225C17.2253 12.9562 17.1358 12.9899 17.0464 13.0169C16.9572 13.0452 16.8614 13.0452 16.7722 13.0169C16.7481 13.0085 16.7274 12.9967 16.7014 12.9849C16.7023 12.9906 16.7038 12.9963 16.7057 13.0017C16.7248 13.0472 16.7598 13.0841 16.8041 13.1056C16.8484 13.1272 16.899 13.132 16.9465 13.119C17.0426 13.0967 17.1364 13.0653 17.2266 13.0253C17.3522 12.9748 17.4796 12.9233 17.6063 12.8785C17.6873 12.8494 17.774 12.8402 17.8593 12.8515C17.9989 12.8773 18.1321 12.93 18.2516 13.0068C18.2594 13.0167 18.2665 13.0272 18.2728 13.0381L18.2855 13.0297C18.2643 12.9849 18.2501 12.9394 18.2282 12.903L18.2284 12.9025ZM19.494 12.8722C19.543 12.931 19.6085 12.9736 19.682 12.9945C19.6881 12.9945 19.7006 12.9945 19.7023 12.9868C19.7302 12.9177 19.7579 12.8476 19.7865 12.7769C19.7867 12.7732 19.7861 12.7695 19.7846 12.7661C19.7831 12.7627 19.7809 12.7597 19.7781 12.7574C19.7384 12.7287 19.6989 12.7008 19.6577 12.6731C19.6538 12.671 19.6495 12.6699 19.6451 12.6699C19.6407 12.6699 19.6363 12.671 19.6324 12.6731C19.5843 12.7297 19.5388 12.787 19.4923 12.8416C19.4922 12.8439 19.4917 12.8462 19.4906 12.8482C19.4896 12.8502 19.4881 12.852 19.4863 12.8534L19.494 12.8722ZM19.494 13.4628C19.5378 13.3564 19.5783 13.2493 19.6197 13.1414C19.6198 13.1357 19.6187 13.13 19.6164 13.1247C19.614 13.1195 19.6106 13.1148 19.6062 13.1111C19.5462 13.068 19.4858 13.0268 19.4232 12.9854C19.4174 12.9823 19.4108 12.9806 19.4042 12.9806C19.3975 12.9806 19.391 12.9823 19.3852 12.9854C19.3129 13.0696 19.2407 13.1599 19.1716 13.2469C19.1677 13.2525 19.1643 13.2585 19.1615 13.2647C19.1881 13.3286 19.2343 13.3823 19.2935 13.4182C19.3526 13.4542 19.4217 13.4704 19.4906 13.4645L19.494 13.4628ZM20.6257 15.4033C20.4492 15.3671 20.2672 15.3671 20.0907 15.4033C20.167 15.4614 20.2604 15.4929 20.3564 15.4929C20.4523 15.4929 20.5457 15.4614 20.6221 15.4033H20.6257ZM19.8241 12.4335C19.7861 12.48 19.7499 12.5272 19.7119 12.5727C19.6984 12.5888 19.6991 12.6006 19.7119 12.6114L19.7841 12.6654C19.801 12.6772 19.8111 12.6731 19.8188 12.6536C19.8501 12.5693 19.8812 12.485 19.9132 12.4063L19.9705 12.257H19.9654C19.919 12.3124 19.8708 12.3723 19.8227 12.4313L19.8241 12.4335ZM19.5667 15.1274C19.5677 15.1686 19.5814 15.2085 19.6061 15.2416C19.6307 15.2747 19.665 15.2993 19.7042 15.3121C19.6607 15.1759 19.6477 15.0319 19.6662 14.8902C19.6107 14.9582 19.5762 15.0409 19.5667 15.1281V15.1274Z" fill="#010101"/>
<path opacity="0.33" d="M19.7803 14.9019C19.7743 14.9608 19.7692 15.0141 19.7651 15.0704C19.7651 15.0916 19.782 15.0933 19.7972 15.0966C19.8694 15.1111 19.9416 15.1253 20.0139 15.1448H19.9936L19.8073 15.1593C19.7769 15.1593 19.7726 15.167 19.7832 15.1956C19.7951 15.2244 19.8086 15.2526 19.8236 15.2799C19.8314 15.296 19.8439 15.2994 19.8624 15.2951C20.0197 15.2639 20.1795 15.247 20.3399 15.2445C20.4639 15.2441 20.5877 15.2535 20.7102 15.2724C20.7331 15.2724 20.7398 15.2664 20.7365 15.2445C20.7331 15.2226 20.7213 15.2293 20.7095 15.2284C20.6421 15.2216 20.5744 15.2182 20.508 15.2081C20.3964 15.188 20.2877 15.1548 20.1839 15.1094C20.0524 15.0557 19.9259 14.9905 19.8058 14.9146L19.7803 14.9019Z" fill="white"/>
<path opacity="0.33" d="M18.6445 13.6969C18.7288 13.6006 18.8234 13.5525 18.9381 13.6228C18.9985 13.663 19.0567 13.7064 19.1126 13.7528C19.1587 13.7889 19.2069 13.8221 19.2571 13.8523C19.2641 13.8558 19.2718 13.8577 19.2796 13.8578C19.2874 13.858 19.2951 13.8564 19.3022 13.8532C19.3094 13.8499 19.3157 13.8451 19.3207 13.8392C19.3257 13.8332 19.3293 13.8261 19.3313 13.8185C19.3358 13.7924 19.3378 13.7659 19.3373 13.7393C19.3368 13.7276 19.3351 13.716 19.3322 13.7047C19.3371 13.7079 19.3416 13.7116 19.3457 13.7157C19.3827 13.7572 19.4096 13.8066 19.4242 13.8602C19.43 13.874 19.432 13.889 19.4301 13.9038C19.4281 13.9186 19.4223 13.9327 19.4131 13.9445C19.397 13.9623 19.4054 13.9707 19.4191 13.9825L19.598 14.1361C19.6142 14.1496 19.6293 14.1641 19.6445 14.1783C19.6417 14.1796 19.6387 14.1802 19.6356 14.1802C19.6325 14.1802 19.6295 14.1796 19.6267 14.1783L19.2318 13.9943C19.2181 13.9898 19.2033 13.9898 19.1897 13.9943C19.1349 14.0097 19.0779 14.016 19.0211 14.0129C18.9893 14.0117 18.9583 14.0025 18.931 13.9861C18.9037 13.9698 18.8811 13.9467 18.8651 13.9192C18.8338 13.8676 18.8132 13.8103 18.8044 13.7506C18.7943 13.6924 18.7775 13.6798 18.7201 13.6873C18.7024 13.6909 18.685 13.6958 18.6679 13.7018L18.6484 13.7085C18.6429 13.7025 18.6429 13.701 18.6445 13.6969ZM18.9458 13.8809C18.9683 13.9025 18.9963 13.9176 19.0267 13.9246C19.0572 13.9316 19.0889 13.9302 19.1186 13.9206C19.1321 13.9181 19.1453 13.9147 19.1584 13.9105C19.0785 13.8242 18.9846 13.752 18.8807 13.6969C18.8837 13.7644 18.9063 13.8295 18.9458 13.8843V13.8809Z" fill="#010101"/>
<path opacity="0.33" d="M19.9768 14.4378C19.9789 14.4291 19.9831 14.4211 19.9892 14.4146C19.9953 14.4081 20.003 14.4033 20.0115 14.4006C20.02 14.398 20.029 14.3976 20.0377 14.3995C20.0464 14.4014 20.0545 14.4056 20.0611 14.4115C20.1008 14.4356 20.1454 14.4739 20.1877 14.5052L20.2106 14.5237V14.5078C20.1793 14.4271 20.1289 14.355 20.0637 14.2979C20.0466 14.2847 20.0275 14.2741 20.0072 14.2666C19.994 14.2604 19.9793 14.2584 19.965 14.261C19.9506 14.2635 19.9375 14.2705 19.9273 14.2809C19.9171 14.2912 19.9104 14.3045 19.9081 14.3189C19.9058 14.3332 19.908 14.3479 19.9145 14.361C19.9257 14.393 19.9477 14.4202 19.9768 14.4378Z" fill="#010101"/>
<path opacity="0.33" d="M18.8799 13.6969C18.8832 13.7638 18.9058 13.8282 18.9449 13.8825C18.9674 13.9042 18.9954 13.9193 19.0259 13.9263C19.0563 13.9333 19.0881 13.9319 19.1178 13.9223C19.1312 13.9197 19.1445 13.9163 19.1575 13.9122C19.0778 13.8253 18.9839 13.7525 18.8799 13.6969Z" fill="url(#paint20_radial_1698_9705)"/>
<path opacity="0.33" d="M19.8651 12.9014C19.8651 12.9014 20.0818 13.1335 19.8152 13.4995C19.7773 13.3845 19.7666 13.2624 19.7839 13.1426C19.8236 13.0078 19.8651 12.9014 19.8651 12.9014Z" fill="url(#paint21_linear_1698_9705)"/>
<path opacity="0.33" d="M19.3531 12.2238C19.3531 12.2238 19.3346 12.5055 19.5159 12.6042L19.3312 12.8074C19.2759 12.7192 19.2484 12.6163 19.2523 12.5122C19.2562 12.4081 19.2914 12.3076 19.3531 12.2238Z" fill="url(#paint22_linear_1698_9705)"/>
<path opacity="0.33" d="M17.0833 15.084C17.0833 15.084 15.2774 17.7839 19.8371 16.4564C19.8371 16.4577 16.679 16.9257 17.0833 15.084Z" fill="url(#paint23_linear_1698_9705)"/>
<path opacity="0.33" d="M17.2322 14.5238C17.2322 14.5238 16.5505 15.1643 16.5708 15.9531C16.6629 15.4271 16.8909 14.9344 17.2322 14.5238Z" fill="url(#paint24_linear_1698_9705)"/>
<path opacity="0.33" d="M18.4741 13.1155C18.4741 13.1155 16.7952 13.2142 16.3574 14.4653C16.3139 14.538 16.2458 14.5927 16.1655 14.6196C16.0852 14.6465 15.998 14.6439 15.9194 14.6122C15.9194 14.6122 16.3302 15.1951 16.7301 14.4653C16.7301 14.4687 17.034 13.4588 18.4741 13.1155Z" fill="url(#paint25_linear_1698_9705)"/>
<path opacity="0.33" d="M19.2518 12.9017C19.2518 12.9017 18.9017 11.8319 17.7399 12.4621C17.7399 12.4621 17.1965 12.7683 17.4269 12.2629C17.4269 12.2629 17.1088 12.5548 17.3426 12.7582C17.5764 12.9617 18.1416 12.2731 18.3602 12.674L18.2935 12.5237V12.5052C18.4246 12.5665 18.54 12.6571 18.6306 12.77C18.6306 12.77 18.8458 12.5338 19.2518 12.9017Z" fill="url(#paint26_linear_1698_9705)"/>
<path opacity="0.33" d="M18.1825 13.045C18.1825 13.045 17.7074 12.6426 17.1245 13.3707C17.2501 13.2195 17.4171 13.1081 17.605 13.0502C17.7929 12.9924 17.9936 12.9905 18.1825 13.045Z" fill="url(#paint27_linear_1698_9705)"/>
</g>
<defs>
<linearGradient id="paint0_linear_1698_9705" x1="18.263" y1="31.2558" x2="18.263" y2="12.6987" gradientUnits="userSpaceOnUse">
<stop stop-color="#7691CA"/>
<stop offset="1" stop-color="#2C3D98"/>
</linearGradient>
<linearGradient id="paint1_linear_1698_9705" x1="11.5727" y1="29.7093" x2="11.5727" y2="12.6987" gradientUnits="userSpaceOnUse">
<stop stop-color="#7691CA"/>
<stop offset="1" stop-color="#2C3D98"/>
</linearGradient>
<linearGradient id="paint2_linear_1698_9705" x1="24.9545" y1="29.7082" x2="24.9545" y2="12.6987" gradientUnits="userSpaceOnUse">
<stop stop-color="#7691CA"/>
<stop offset="1" stop-color="#2C3D98"/>
</linearGradient>
<linearGradient id="paint3_linear_1698_9705" x1="9.88864" y1="9.03284" x2="9.88864" y2="26.3176" gradientUnits="userSpaceOnUse">
<stop stop-color="#7691CA"/>
<stop offset="1" stop-color="#2C3D98"/>
</linearGradient>
<linearGradient id="paint4_linear_1698_9705" x1="26.7705" y1="9.03284" x2="26.7705" y2="26.3136" gradientUnits="userSpaceOnUse">
<stop stop-color="#7691CA"/>
<stop offset="1" stop-color="#2C3D98"/>
</linearGradient>
<linearGradient id="paint5_linear_1698_9705" x1="7.93209" y1="2.93298" x2="7.93209" y2="20.2135" gradientUnits="userSpaceOnUse">
<stop stop-color="#7691CA"/>
<stop offset="1" stop-color="#2C3D98"/>
</linearGradient>
<linearGradient id="paint6_linear_1698_9705" x1="28.5957" y1="2.93298" x2="28.5957" y2="20.2137" gradientUnits="userSpaceOnUse">
<stop stop-color="#7691CA"/>
<stop offset="1" stop-color="#2C3D98"/>
</linearGradient>
<linearGradient id="paint7_linear_1698_9705" x1="9.82322" y1="6.51282" x2="9.82322" y2="23.794" gradientUnits="userSpaceOnUse">
<stop stop-color="#7691CA"/>
<stop offset="1" stop-color="#2C3D98"/>
</linearGradient>
<linearGradient id="paint8_linear_1698_9705" x1="26.7055" y1="6.51282" x2="26.7055" y2="23.7942" gradientUnits="userSpaceOnUse">
<stop stop-color="#7691CA"/>
<stop offset="1" stop-color="#2C3D98"/>
</linearGradient>
<linearGradient id="paint9_linear_1698_9705" x1="18.2631" y1="3.24182" x2="18.2631" y2="25.6839" gradientUnits="userSpaceOnUse">
<stop stop-color="white"/>
<stop offset="0.5" stop-color="#7691CA"/>
<stop offset="1" stop-color="#2C3D98"/>
</linearGradient>
<linearGradient id="paint10_linear_1698_9705" x1="18.2639" y1="4.75366" x2="18.2639" y2="24.1723" gradientUnits="userSpaceOnUse">
<stop stop-color="white"/>
<stop offset="1" stop-color="#336CB5"/>
</linearGradient>
<linearGradient id="paint11_linear_1698_9705" x1="18.2645" y1="21.9248" x2="18.2645" y2="7.00037" gradientUnits="userSpaceOnUse">
<stop stop-color="white"/>
<stop offset="1" stop-color="#010101"/>
</linearGradient>
<linearGradient id="paint12_linear_1698_9705" x1="15.6974" y1="8.53516" x2="15.6974" y2="14.4627" gradientUnits="userSpaceOnUse">
<stop stop-color="white"/>
<stop offset="0.5" stop-color="#CAD6ED"/>
<stop offset="1" stop-color="#5167B0"/>
</linearGradient>
<linearGradient id="paint13_linear_1698_9705" x1="20.8302" y1="14.463" x2="20.8302" y2="8.53516" gradientUnits="userSpaceOnUse">
<stop stop-color="white"/>
<stop offset="0.5" stop-color="#CAD6ED"/>
<stop offset="1" stop-color="#5167B0"/>
</linearGradient>
<linearGradient id="paint14_linear_1698_9705" x1="20.8302" y1="17.4258" x2="20.8302" y2="11.4989" gradientUnits="userSpaceOnUse">
<stop stop-color="white"/>
<stop offset="0.5" stop-color="#CAD6ED"/>
<stop offset="1" stop-color="#5167B0"/>
</linearGradient>
<linearGradient id="paint15_linear_1698_9705" x1="20.8302" y1="20.3911" x2="20.8302" y2="14.463" gradientUnits="userSpaceOnUse">
<stop stop-color="white"/>
<stop offset="0.5" stop-color="#CAD6ED"/>
<stop offset="1" stop-color="#5167B0"/>
</linearGradient>
<linearGradient id="paint16_linear_1698_9705" x1="15.6974" y1="14.463" x2="15.6974" y2="20.3911" gradientUnits="userSpaceOnUse">
<stop stop-color="white"/>
<stop offset="0.5" stop-color="#CAD6ED"/>
<stop offset="1" stop-color="#5167B0"/>
</linearGradient>
<linearGradient id="paint17_linear_1698_9705" x1="15.6974" y1="17.4258" x2="15.6974" y2="11.4989" gradientUnits="userSpaceOnUse">
<stop stop-color="white"/>
<stop offset="0.5" stop-color="#CAD6ED"/>
<stop offset="1" stop-color="#5167B0"/>
</linearGradient>
<linearGradient id="paint18_linear_1698_9705" x1="18.2639" y1="10.5616" x2="18.2639" y2="18.363" gradientUnits="userSpaceOnUse">
<stop stop-color="white"/>
<stop offset="0.5" stop-color="#CAD6ED"/>
<stop offset="1" stop-color="#5167B0"/>
</linearGradient>
<radialGradient id="paint19_radial_1698_9705" cx="0" cy="0" r="1" gradientUnits="userSpaceOnUse" gradientTransform="translate(-146.023 13.9952) rotate(180) scale(3.92684 3.92588)">
<stop stop-color="#6274AF"/>
<stop offset="0.29" stop-color="#6476B1"/>
<stop offset="0.45" stop-color="#6C7EB7"/>
<stop offset="0.58" stop-color="#7A8CC2"/>
<stop offset="0.69" stop-color="#8D9FD1"/>
<stop offset="0.7" stop-color="#90A2D3"/>
</radialGradient>
<radialGradient id="paint20_radial_1698_9705" cx="0" cy="0" r="1" gradientUnits="userSpaceOnUse" gradientTransform="translate(9.23891 13.8142) scale(0.744295 0.744302)">
<stop stop-color="#6274AF"/>
<stop offset="0.05" stop-color="#6A7CB5"/>
<stop offset="0.23" stop-color="#7F91C6"/>
<stop offset="0.4" stop-color="#8C9ED0"/>
<stop offset="0.56" stop-color="#90A2D3"/>
</radialGradient>
<linearGradient id="paint21_linear_1698_9705" x1="19.7761" y1="13.1998" x2="19.9485" y2="13.1998" gradientUnits="userSpaceOnUse">
<stop stop-color="#161F49"/>
<stop offset="0.27" stop-color="#18204D"/>
<stop offset="0.54" stop-color="#1C255A"/>
<stop offset="0.83" stop-color="#242C6E"/>
<stop offset="1" stop-color="#2B327F"/>
</linearGradient>
<linearGradient id="paint22_linear_1698_9705" x1="19.2538" y1="12.5156" x2="19.5159" y2="12.5156" gradientUnits="userSpaceOnUse">
<stop stop-color="#161F49"/>
<stop offset="0.27" stop-color="#18204D"/>
<stop offset="0.54" stop-color="#1C255A"/>
<stop offset="0.83" stop-color="#242C6E"/>
<stop offset="1" stop-color="#2B327F"/>
</linearGradient>
<linearGradient id="paint23_linear_1698_9705" x1="16.7305" y1="15.952" x2="19.8371" y2="15.952" gradientUnits="userSpaceOnUse">
<stop stop-color="#161F49"/>
<stop offset="0.27" stop-color="#18204D"/>
<stop offset="0.54" stop-color="#1C255A"/>
<stop offset="0.83" stop-color="#242C6E"/>
<stop offset="1" stop-color="#2B327F"/>
</linearGradient>
<linearGradient id="paint24_linear_1698_9705" x1="16.571" y1="15.2384" x2="17.2322" y2="15.2384" gradientUnits="userSpaceOnUse">
<stop stop-color="#161F49"/>
<stop offset="0.27" stop-color="#18204D"/>
<stop offset="0.54" stop-color="#1C255A"/>
<stop offset="0.83" stop-color="#242C6E"/>
<stop offset="1" stop-color="#2B327F"/>
</linearGradient>
<linearGradient id="paint25_linear_1698_9705" x1="15.9194" y1="13.9758" x2="18.4741" y2="13.9758" gradientUnits="userSpaceOnUse">
<stop stop-color="#161F49"/>
<stop offset="0.27" stop-color="#18204D"/>
<stop offset="0.54" stop-color="#1C255A"/>
<stop offset="0.83" stop-color="#242C6E"/>
<stop offset="1" stop-color="#2B327F"/>
</linearGradient>
<linearGradient id="paint26_linear_1698_9705" x1="17.2568" y1="12.583" x2="19.2518" y2="12.583" gradientUnits="userSpaceOnUse">
<stop stop-color="#161F49"/>
<stop offset="0.27" stop-color="#18204D"/>
<stop offset="0.54" stop-color="#1C255A"/>
<stop offset="0.83" stop-color="#242C6E"/>
<stop offset="1" stop-color="#2B327F"/>
</linearGradient>
<linearGradient id="paint27_linear_1698_9705" x1="17.1245" y1="13.1524" x2="18.1825" y2="13.1524" gradientUnits="userSpaceOnUse">
<stop stop-color="#161F49"/>
<stop offset="0.27" stop-color="#18204D"/>
<stop offset="0.54" stop-color="#1C255A"/>
<stop offset="0.83" stop-color="#242C6E"/>
<stop offset="1" stop-color="#2B327F"/>
</linearGradient>
</defs>
</svg>
