<svg width="31" height="32" viewBox="0 0 31 32" fill="none" xmlns="http://www.w3.org/2000/svg">
<path d="M10.4409 12.6987V28.3366L15.4973 31.2558L20.5538 28.3366V12.6987H10.4409Z" fill="url(#paint0_linear_1698_9817)"/>
<path d="M11.1973 27.9007V13.4537H19.798V27.9007L15.4976 30.3829L11.1973 27.9007Z" fill="#2E3A4D"/>
<path d="M1.39661 19.0123L14.0521 26.3179V17.1099L0.0576173 9.03308V16.6955C0.0574998 17.1653 0.181212 17.6268 0.416287 18.0335C0.651362 18.4403 0.989493 18.7779 1.39661 19.0123Z" fill="url(#paint1_linear_1698_9817)"/>
<path d="M16.9434 17.1099V26.3138L29.5989 19.0082C30.005 18.7741 30.3425 18.4373 30.5773 18.0316C30.8122 17.6259 30.9362 17.1655 30.9369 16.6967V9.03308L16.9434 17.1099Z" fill="url(#paint2_linear_1698_9817)"/>
<path d="M1.39661 16.4877L14.0521 23.794V14.5896L0.0576172 6.51282V14.1752C0.0580167 14.6443 0.181986 15.1051 0.417047 15.511C0.652109 15.917 0.989965 16.2538 1.39661 16.4877Z" fill="url(#paint3_linear_1698_9817)"/>
<path d="M16.9434 14.5896V23.7942L29.5989 16.4879C30.0052 16.254 30.3428 15.9173 30.5777 15.5115C30.8125 15.1057 30.9364 14.6453 30.9369 14.1764V6.51282L16.9434 14.5896Z" fill="url(#paint4_linear_1698_9817)"/>
<path d="M27.527 18.4984V10.4276C27.5272 9.54287 27.2946 8.67364 26.8523 7.90734C26.4101 7.14104 25.7739 6.50468 25.0077 6.06224L18.0178 2.02672C17.2515 1.58442 16.3824 1.35156 15.4976 1.35156C14.6129 1.35156 13.7437 1.58442 12.9775 2.02672L5.98757 6.06224C5.22139 6.50468 4.58519 7.14104 4.14295 7.90734C3.70071 8.67364 3.46802 9.54287 3.46826 10.4276V18.4984C3.46819 19.3831 3.70099 20.2521 4.14327 21.0183C4.58554 21.7845 5.2217 22.4207 5.98781 22.8631L12.9775 26.8991C13.7437 27.3414 14.6129 27.5742 15.4976 27.5742C16.3824 27.5742 17.2515 27.3414 18.0178 26.8991L25.0077 22.8628C25.7737 22.4205 26.4098 21.7843 26.8521 21.0181C27.2943 20.252 27.5271 19.383 27.527 18.4984Z" fill="#2E3A4D"/>
<path d="M27.527 18.4984V10.4276C27.5272 9.54287 27.2946 8.67364 26.8523 7.90734C26.4101 7.14104 25.7739 6.50468 25.0077 6.06224L18.0178 2.02672C17.2515 1.58442 16.3824 1.35156 15.4976 1.35156C14.6129 1.35156 13.7437 1.58442 12.9775 2.02672L5.98757 6.06224C5.22139 6.50468 4.58519 7.14104 4.14295 7.90734C3.70071 8.67364 3.46802 9.54287 3.46826 10.4276V18.4984C3.46819 19.3831 3.70099 20.2521 4.14327 21.0183C4.58554 21.7845 5.2217 22.4207 5.98781 22.8631L12.9775 26.8991C13.7437 27.3414 14.6129 27.5742 15.4976 27.5742C16.3824 27.5742 17.2515 27.3414 18.0178 26.8991L25.0077 22.8628C25.7737 22.4205 26.4098 21.7843 26.8521 21.0181C27.2943 20.252 27.5271 19.383 27.527 18.4984Z" stroke="#EFF3F8" stroke-miterlimit="10"/>
<path d="M15.4977 25.6841C14.9447 25.6842 14.4013 25.5386 13.9223 25.2621L6.93263 21.2268C6.45451 20.9496 6.05749 20.5519 5.78124 20.0732C5.50499 19.5946 5.35918 19.0518 5.3584 18.4992V10.4277C5.35919 9.87493 5.50498 9.33204 5.78122 8.85324C6.05746 8.37444 6.45448 7.9765 6.93263 7.69915L13.9225 3.66388C14.4015 3.38754 14.9448 3.24207 15.4977 3.24207C16.0507 3.24207 16.594 3.38754 17.0729 3.66388L24.0629 7.69915C24.541 7.9765 24.938 8.37444 25.2143 8.85324C25.4905 9.33204 25.6363 9.87493 25.6371 10.4277V18.4985C25.6363 19.0511 25.4905 19.5939 25.2143 20.0725C24.938 20.5512 24.541 20.9489 24.0629 21.2261L17.0729 25.2616C16.5941 25.5384 16.0508 25.6841 15.4977 25.6841Z" fill="url(#paint5_linear_1698_9817)"/>
<path style="mix-blend-mode:screen" d="M15.4976 24.1723C15.2101 24.1721 14.9277 24.0961 14.6789 23.952L7.68976 19.9165C7.44113 19.7724 7.23466 19.5656 7.091 19.3167C6.94734 19.0678 6.87151 18.7856 6.87109 18.4983V10.4277C6.87151 10.1402 6.94734 9.85787 7.09099 9.60884C7.23464 9.35981 7.4411 9.15282 7.68976 9.00853L14.6797 4.97302C14.9286 4.82932 15.2109 4.75366 15.4983 4.75366C15.7857 4.75366 16.0681 4.82932 16.317 4.97302L23.3057 9.00853C23.5544 9.15275 23.7609 9.35972 23.9046 9.60877C24.0483 9.85781 24.124 10.1402 24.1244 10.4277V18.4985C24.1239 18.7858 24.0481 19.0681 23.9044 19.3169C23.7608 19.5658 23.5543 19.7726 23.3057 19.9167L16.3165 23.9522C16.0676 24.0963 15.7852 24.1722 15.4976 24.1723Z" fill="url(#paint6_linear_1698_9817)"/>
<path style="mix-blend-mode:multiply" opacity="0.3" d="M9.11719 18.1468V10.7788L15.4979 7.09485L21.8787 10.7788V18.1468L15.4979 21.8307L9.11719 18.1468Z" fill="url(#paint7_linear_1698_9817)"/>
<path d="M9.97461 17.6514V11.2747L15.4974 8.08557L21.0203 11.274V17.6516L15.4974 20.8398L9.97461 17.6514Z" fill="#191E2A"/>
<path d="M15.4977 8.61121L10.4297 11.537L15.4977 14.4629V8.61121Z" fill="url(#paint8_linear_1698_9817)"/>
<path d="M15.4976 14.4632L20.5655 11.5372L15.4976 8.61121V14.4622V14.4632Z" fill="url(#paint9_linear_1698_9817)"/>
<path d="M15.4976 14.4631L20.5655 17.3881V11.5371L15.4976 14.4631Z" fill="url(#paint10_linear_1698_9817)"/>
<path d="M15.4976 14.463V20.314L20.5655 17.388L15.4976 14.463Z" fill="url(#paint11_linear_1698_9817)"/>
<path d="M10.4297 17.389L15.4977 20.315V14.464L10.4297 17.389Z" fill="url(#paint12_linear_1698_9817)"/>
<path d="M15.4977 14.4631L10.4297 11.5371V17.3881L15.4977 14.4621V14.4631Z" fill="url(#paint13_linear_1698_9817)"/>
<path d="M15.4972 10.6117L12.1621 12.538V16.3905L15.4972 18.3167L18.8323 16.3905V12.538L15.4972 10.6117Z" fill="url(#paint14_linear_1698_9817)"/>
<g style="mix-blend-mode:overlay">
<path opacity="0.33" d="M17.2691 12.0315C17.1805 12.2627 17.1552 12.5372 17.0676 12.7714C17.0644 12.7833 17.0658 12.796 17.0717 12.8068C17.0929 12.8439 17.1198 12.8791 17.1384 12.9174C17.1697 12.9757 17.1884 13.0399 17.1932 13.1059C17.198 13.1719 17.1888 13.2382 17.1663 13.3004C17.135 13.3871 17.0874 13.4671 17.0262 13.5359C17.0207 13.5415 17.0177 13.5489 17.0177 13.5566C17.0177 13.5644 17.0207 13.5718 17.0262 13.5773C17.0665 13.6349 17.0936 13.7007 17.1054 13.77C17.1069 13.7884 17.1125 13.8062 17.1219 13.8221C17.1312 13.838 17.144 13.8516 17.1593 13.8619C17.2648 13.9286 17.3676 14.0021 17.4723 14.0712C17.5296 14.1099 17.5879 14.1487 17.6469 14.1834C17.7059 14.2181 17.7567 14.239 17.8097 14.2677C17.9181 14.3217 18.0024 14.4144 18.0459 14.5275C18.0653 14.5957 18.0808 14.665 18.0923 14.735C18.0923 14.7461 18.0923 14.7591 18.1092 14.762C18.154 14.7704 18.1631 14.7822 18.1641 14.8287V15.0625C18.166 15.0892 18.1587 15.1157 18.1433 15.1376C18.128 15.1596 18.1056 15.1755 18.0798 15.1829L18.0411 15.1973C18.037 15.198 18.0331 15.1996 18.0297 15.2018C18.0262 15.204 18.0232 15.2069 18.0209 15.2103C18.0185 15.2136 18.0169 15.2174 18.016 15.2215C18.0151 15.2255 18.015 15.2296 18.0158 15.2337C18.0158 15.3112 18.003 15.2919 18.0748 15.3281L18.0866 15.3331C18.0937 15.3358 18.1002 15.3401 18.1055 15.3456C18.1108 15.3511 18.1148 15.3578 18.1172 15.365C18.1197 15.3723 18.1204 15.38 18.1195 15.3876C18.1186 15.3952 18.116 15.4025 18.1118 15.409C18.1025 15.4302 18.0923 15.4504 18.0822 15.4696C18.0734 15.486 18.0595 15.499 18.0426 15.5066C18.0256 15.5142 18.0066 15.5161 17.9886 15.5118C17.9645 15.505 17.9404 15.4956 17.9163 15.4906C17.9108 15.4898 17.9052 15.4901 17.8998 15.4915C17.8944 15.493 17.8894 15.4955 17.885 15.499C17.8066 15.5876 17.6992 15.6453 17.5821 15.6618C17.3869 15.6983 17.1851 15.6717 17.0059 15.5859C16.9217 15.5462 16.8374 15.5017 16.7529 15.461C16.7064 15.4335 16.6541 15.4176 16.6002 15.4145C16.472 15.4139 16.3458 15.4458 16.2333 15.5072C16.2299 15.5084 16.2267 15.5103 16.2241 15.5128C16.2215 15.5153 16.2194 15.5183 16.2179 15.5216C16.2165 15.5249 16.2158 15.5285 16.2158 15.5321C16.2158 15.5357 16.2166 15.5393 16.2181 15.5426C16.2333 15.5831 16.2451 15.6269 16.2612 15.6649C16.3111 15.7959 16.3859 15.9159 16.4815 16.0184C16.598 16.1397 16.737 16.2371 16.8908 16.3052C17.0384 16.3743 17.1904 16.4369 17.3406 16.5026C17.3497 16.508 17.3585 16.5139 17.3669 16.5204L17.3428 16.5264C17.2585 16.5375 17.1742 16.5467 17.0955 16.5611C16.934 16.5878 16.7749 16.6274 16.6197 16.6793C16.4083 16.753 16.1974 16.8293 15.9869 16.9081C15.82 16.9731 15.6486 17.0262 15.4741 17.0668C15.3454 17.0949 15.2149 17.1138 15.0835 17.1233C14.7819 17.1521 14.4778 17.1081 14.1967 16.995C13.9794 16.9068 13.7903 16.761 13.6499 16.5732C13.4868 16.3456 13.3891 16.0777 13.3672 15.7986C13.3492 15.6242 13.3515 15.4484 13.374 15.2746C13.3749 15.2715 13.3752 15.2683 13.3749 15.265C13.3746 15.2618 13.3736 15.2587 13.372 15.2559C13.3704 15.253 13.3683 15.2505 13.3657 15.2485C13.3632 15.2466 13.3602 15.2451 13.3571 15.2443C13.3254 15.2302 13.2947 15.2141 13.2651 15.1961C13.1597 15.1231 13.0606 15.0412 12.969 14.9515C12.9649 14.9459 12.9615 14.94 12.9589 14.9337L13.3133 14.8932C13.0938 14.8235 12.9042 14.6821 12.7749 14.4916C12.7832 14.4892 12.7919 14.4892 12.8002 14.4916C12.8313 14.4948 12.8623 14.4996 12.8929 14.506C12.9778 14.5181 13.0644 14.5106 13.1459 14.4841C13.2465 14.4506 13.3328 14.384 13.3906 14.2951C13.4792 14.1634 13.5591 14.0286 13.6436 13.8928C13.7462 13.7122 13.8673 13.5427 14.0048 13.3871C14.0267 13.363 14.0486 13.3416 14.0722 13.318C14.0686 13.3154 14.0646 13.3131 14.0604 13.3113L14.0409 13.3045C13.9704 13.2855 13.9069 13.2462 13.8585 13.1914C13.81 13.1367 13.7787 13.0689 13.7684 12.9966C13.7532 12.9063 13.7455 12.8143 13.7354 12.7233C13.7342 12.7166 13.7342 12.7097 13.7354 12.7031L13.7607 12.7226L13.8365 12.7849C13.9131 12.852 14.0124 12.8873 14.1141 12.8836C14.2133 12.8747 14.3096 12.8461 14.3975 12.7994C14.3975 12.7994 14.3975 12.7943 14.406 12.7883L14.3898 12.7772C14.3629 12.7524 14.3416 12.7223 14.327 12.6888C14.3125 12.6552 14.3052 12.619 14.3056 12.5824C14.3066 12.5205 14.3247 12.4601 14.3578 12.4079C14.4299 12.2972 14.5186 12.1985 14.621 12.1151C14.6267 12.1121 14.6327 12.1095 14.6388 12.1074V12.1353C14.6373 12.1634 14.6373 12.1915 14.6388 12.2196C14.6375 12.2341 14.6396 12.2488 14.6451 12.2623C14.6506 12.2759 14.6592 12.288 14.6703 12.2975C14.6813 12.3071 14.6945 12.3139 14.7087 12.3173C14.7229 12.3207 14.7378 12.3207 14.752 12.3173C14.7915 12.3135 14.8307 12.3068 14.8692 12.2971C14.9992 12.2641 15.1283 12.227 15.2591 12.196C15.4389 12.152 15.6244 12.1352 15.8092 12.1461C15.9385 12.1511 16.0653 12.1832 16.1813 12.2405C16.2369 12.2692 16.2877 12.3055 16.3433 12.3392C16.3433 12.3342 16.35 12.3265 16.3534 12.319C16.39 12.2476 16.4493 12.1904 16.522 12.1562C16.5516 12.1418 16.5557 12.1452 16.5634 12.1781C16.5725 12.2344 16.5935 12.288 16.6251 12.3355C16.6566 12.3829 16.698 12.423 16.7464 12.4531C16.7794 12.4726 16.7784 12.4743 16.802 12.4447C16.926 12.2904 17.1032 12.1613 17.2238 12.0067" fill="url(#paint15_radial_1698_9817)"/>
<path opacity="0.33" d="M17.3835 11.8138C17.2941 12.045 17.154 12.5403 17.0664 12.7714C17.0632 12.7833 17.0648 12.796 17.0707 12.8068C17.0919 12.8439 17.1188 12.8791 17.1374 12.9173C17.1687 12.9756 17.1874 13.0399 17.1922 13.1059C17.197 13.1719 17.1878 13.2382 17.1653 13.3004C17.134 13.3871 17.0865 13.4671 17.0252 13.5359C17.0198 13.5414 17.0167 13.5489 17.0167 13.5566C17.0167 13.5644 17.0198 13.5718 17.0252 13.5773C17.0655 13.6349 17.0926 13.7007 17.1044 13.77C17.1059 13.7883 17.1116 13.8062 17.1209 13.8221C17.1302 13.838 17.143 13.8516 17.1583 13.8619C17.2638 13.9286 17.3666 14.0021 17.4713 14.0712C17.5287 14.1099 17.5869 14.1487 17.6459 14.1834C17.7049 14.2181 17.7557 14.239 17.8087 14.2677C17.9172 14.3217 18.0014 14.4144 18.0449 14.5275C18.0643 14.5957 18.0798 14.665 18.0914 14.735C18.0914 14.7461 18.0914 14.7591 18.1082 14.762C18.153 14.7704 18.1622 14.7822 18.1631 14.8287V15.0625C18.165 15.0892 18.1577 15.1157 18.1423 15.1376C18.127 15.1596 18.1046 15.1755 18.0788 15.1829L18.0401 15.1973C18.036 15.198 18.0322 15.1996 18.0287 15.2018C18.0252 15.204 18.0222 15.2069 18.0199 15.2103C18.0176 15.2136 18.0159 15.2174 18.015 15.2215C18.0141 15.2255 18.0141 15.2296 18.0148 15.2337C18.0148 15.3112 18.002 15.2919 18.0738 15.3281L18.0856 15.3331C18.0927 15.3358 18.0992 15.3401 18.1045 15.3456C18.1098 15.3511 18.1138 15.3578 18.1163 15.365C18.1187 15.3723 18.1195 15.38 18.1185 15.3876C18.1176 15.3952 18.115 15.4025 18.1109 15.409C18.1015 15.4301 18.0914 15.4504 18.0812 15.4696C18.0725 15.486 18.0585 15.499 18.0416 15.5066C18.0246 15.5142 18.0057 15.5161 17.9876 15.5118C17.9635 15.505 17.9394 15.4956 17.9154 15.4906C17.9098 15.4898 17.9042 15.4901 17.8988 15.4915C17.8934 15.493 17.8884 15.4955 17.884 15.499C17.8057 15.5876 17.6983 15.6453 17.5811 15.6618C17.3859 15.6983 17.1841 15.6717 17.005 15.5859C16.9207 15.5462 16.8364 15.5017 16.7519 15.461C16.7055 15.4335 16.6531 15.4175 16.5992 15.4145C16.4711 15.4139 16.3448 15.4458 16.2323 15.5072C16.2289 15.5084 16.2258 15.5103 16.2231 15.5128C16.2205 15.5153 16.2184 15.5183 16.217 15.5216C16.2155 15.5249 16.2148 15.5285 16.2148 15.5321C16.2149 15.5357 16.2156 15.5393 16.2171 15.5426C16.2323 15.583 16.2441 15.6269 16.2602 15.6649C16.3101 15.7959 16.3849 15.9159 16.4805 16.0184C16.597 16.1397 16.7361 16.2371 16.8899 16.3052C17.0375 16.3743 17.1894 16.4369 17.3396 16.5026C17.3488 16.5079 17.3575 16.5139 17.3659 16.5204L17.3418 16.5264C17.2575 16.5375 17.1733 16.5467 17.0945 16.5611C16.933 16.5878 16.774 16.6274 16.6187 16.6793C16.4073 16.753 16.1964 16.8293 15.986 16.9081C15.819 16.9731 15.6476 17.0262 15.4731 17.0667C15.3444 17.0949 15.2139 17.1138 15.0825 17.1233C14.7809 17.1521 14.4768 17.1081 14.1957 16.995C13.9784 16.9068 13.7894 16.761 13.6489 16.5731C13.4858 16.3455 13.3881 16.0777 13.3662 15.7985C13.3482 15.6242 13.3505 15.4484 13.373 15.2746C13.3739 15.2715 13.3743 15.2682 13.3739 15.265C13.3736 15.2618 13.3726 15.2587 13.371 15.2558C13.3694 15.253 13.3673 15.2505 13.3648 15.2485C13.3622 15.2465 13.3593 15.2451 13.3561 15.2443C13.3245 15.2302 13.2937 15.2141 13.2642 15.1961C13.1587 15.123 13.0597 15.0412 12.968 14.9515C12.964 14.9459 12.9606 14.94 12.9579 14.9337L13.3123 14.8932C13.0929 14.8235 12.9032 14.6821 12.7739 14.4916C12.7822 14.4892 12.791 14.4892 12.7992 14.4916C12.8303 14.4947 12.8613 14.4996 12.8919 14.506C12.9768 14.5181 13.0634 14.5106 13.145 14.4841C13.2456 14.4506 13.3318 14.384 13.3896 14.2951C13.4782 14.1634 13.5582 14.0286 13.6427 13.8928C13.7452 13.7122 13.8663 13.5427 14.0038 13.3871C14.0258 13.363 14.0477 13.3416 14.0713 13.318C14.0676 13.3153 14.0636 13.3131 14.0595 13.3113L14.04 13.3045C13.9694 13.2855 13.9059 13.2461 13.8575 13.1914C13.8091 13.1367 13.7777 13.0689 13.7674 12.9966C13.7522 12.9063 13.7445 12.8143 13.7344 12.7233C13.7332 12.7166 13.7332 12.7097 13.7344 12.703L13.7597 12.7226L13.8355 12.7849C13.9121 12.852 14.0114 12.8873 14.1132 12.8836C14.2123 12.8747 14.3087 12.8461 14.3966 12.7994C14.3966 12.7994 14.3966 12.7943 14.405 12.7883L14.3889 12.7772C14.362 12.7524 14.3406 12.7223 14.3261 12.6887C14.3115 12.6552 14.3042 12.619 14.3046 12.5824C14.3056 12.5205 14.3237 12.4601 14.3568 12.4079C14.4289 12.2972 14.5177 12.1985 14.62 12.1151C14.6258 12.1121 14.6317 12.1095 14.6378 12.1074C14.6378 12.1192 14.6378 12.1276 14.6378 12.1353C14.6363 12.1634 14.6363 12.1915 14.6378 12.2196C14.6365 12.2341 14.6387 12.2488 14.6441 12.2623C14.6496 12.2759 14.6582 12.2879 14.6693 12.2975C14.6804 12.3071 14.6935 12.3138 14.7077 12.3173C14.722 12.3207 14.7368 12.3207 14.751 12.3173C14.7905 12.3135 14.8297 12.3068 14.8683 12.2971C14.9983 12.2641 15.1273 12.227 15.2581 12.196C15.438 12.152 15.6234 12.1352 15.8083 12.1461C15.9375 12.1511 16.0643 12.1832 16.1803 12.2405C16.2359 12.2692 16.2867 12.3055 16.3423 12.3392C16.3423 12.3342 16.3491 12.3265 16.3524 12.319C16.3891 12.2476 16.4483 12.1904 16.521 12.1562C16.5506 12.1418 16.5547 12.1452 16.5624 12.1781C16.5715 12.2344 16.5925 12.288 16.6241 12.3355C16.6557 12.3829 16.697 12.423 16.7454 12.4531C16.7784 12.4726 16.7774 12.4743 16.801 12.4447C16.925 12.2903 17.2229 11.9672 17.3485 11.8136L17.3835 11.8138ZM16.8306 13.5323C16.8238 13.5247 16.8156 13.5184 16.8065 13.5138C16.798 13.5112 16.7889 13.5112 16.7803 13.5138C16.7743 13.5138 16.7685 13.5198 16.7618 13.5215C16.6572 13.5555 16.5439 13.5508 16.4426 13.5082C16.3412 13.4656 16.2586 13.3879 16.2099 13.2894C16.1971 13.2682 16.187 13.2455 16.1745 13.2236C16.169 13.2172 16.1621 13.2123 16.1543 13.2092C16.1138 13.1906 16.0741 13.1721 16.0339 13.156C16.0243 13.1524 16.0156 13.1466 16.0086 13.1391C16.0016 13.1317 15.9964 13.1227 15.9934 13.1129C15.9192 12.9176 15.7946 12.7456 15.6323 12.6142C15.5778 12.5683 15.5174 12.53 15.4526 12.5003C15.4518 12.5065 15.4518 12.5127 15.4526 12.5189C15.5133 12.6539 15.573 12.7897 15.6373 12.9229C15.6752 13.0093 15.7396 13.0814 15.8213 13.1287C15.8425 13.1398 15.8651 13.1483 15.8904 13.1591L15.7495 13.1844C15.5317 13.2258 15.3262 13.3164 15.1488 13.4492C14.8941 13.6409 14.7042 13.9059 14.6046 14.2087C14.5142 14.4646 14.4833 14.7379 14.5143 15.0076C14.5428 15.3242 14.669 15.6241 14.8755 15.8657C15.0468 16.0637 15.2724 16.207 15.5244 16.2782C15.5709 16.2917 15.618 16.3023 15.6652 16.3136C15.6736 16.3144 15.6821 16.3144 15.6905 16.3136C15.4383 16.05 15.2566 15.727 15.1625 15.3745C15.4218 15.7647 15.7972 16.0634 16.2357 16.2283L16.2417 16.2216L16.1694 16.1414C16.0399 16.003 15.9407 15.8389 15.8783 15.6599C15.8622 15.6117 15.853 15.5621 15.8386 15.5139C15.8372 15.5084 15.8347 15.5033 15.8312 15.4987C15.8277 15.4942 15.8233 15.4905 15.8184 15.4877C15.6401 15.4096 15.4832 15.2898 15.3609 15.1383C15.2346 14.9901 15.1571 14.8066 15.1389 14.6127C15.1236 14.4287 15.1702 14.2449 15.2713 14.0904C15.2778 14.0802 15.2868 14.0719 15.2976 14.0664C15.2963 14.0858 15.2929 14.105 15.2875 14.1237C15.2656 14.2237 15.2554 14.3259 15.2571 14.4283C15.2536 14.5783 15.2903 14.7266 15.3633 14.8578C15.4088 14.9405 15.4714 15.0125 15.5469 15.0691C15.6224 15.1257 15.7091 15.1656 15.8013 15.186C15.9182 15.2134 16.0395 15.2167 16.1577 15.1957C16.276 15.1747 16.3887 15.1297 16.489 15.0637C16.544 15.0275 16.5969 14.9884 16.6476 14.9464C16.6524 14.9418 16.6567 14.9368 16.6604 14.9312C16.5973 14.9002 16.5434 14.8534 16.5039 14.7953C16.4644 14.7371 16.4407 14.6697 16.435 14.5997C16.4298 14.549 16.4367 14.4979 16.4552 14.4504C16.468 14.48 16.4772 14.5043 16.4882 14.5279C16.5088 14.5745 16.5415 14.6148 16.5829 14.6444C16.6243 14.6741 16.673 14.6921 16.7237 14.6965C16.808 14.7066 16.8875 14.7042 16.97 14.7076C17.0366 14.7056 17.1033 14.7096 17.1692 14.7194C17.1966 14.7259 17.2224 14.7379 17.245 14.7548C17.2527 14.7598 17.2551 14.7733 17.2611 14.7827C17.2519 14.7866 17.2423 14.7897 17.2325 14.7921L17.0461 14.8048H17.0276C17.0394 14.8142 17.0461 14.821 17.0538 14.826C17.2175 14.9259 17.3932 15.0045 17.5768 15.0598C17.6799 15.0944 17.7889 15.1079 17.8973 15.0996C17.9362 15.0936 17.9744 15.0834 18.0112 15.0692C18.0167 15.0658 18.0214 15.0613 18.0249 15.0559C18.0284 15.0504 18.0306 15.0443 18.0314 15.0379C18.0331 15.0146 18.0331 14.9912 18.0314 14.9678C17.9741 15.0054 17.9052 15.021 17.8373 15.0117C17.8518 15.004 17.866 14.9965 17.8795 14.9876C17.8969 14.9764 17.9136 14.964 17.9293 14.9505C17.9414 14.9402 17.9509 14.9272 17.9572 14.9126C17.9635 14.898 17.9664 14.8821 17.9657 14.8662C17.9697 14.7761 17.9583 14.686 17.932 14.5997C17.8995 14.5208 17.8502 14.45 17.7875 14.3921L17.7764 14.3854H17.767L17.794 14.5913H17.788L17.7365 14.507C17.7044 14.4547 17.6741 14.4015 17.6421 14.3493C17.6342 14.3367 17.6239 14.3258 17.6117 14.3173L16.8027 13.7688C16.7912 13.7611 16.781 13.7516 16.7724 13.7408L16.9705 13.7661C16.951 13.6744 16.901 13.592 16.8287 13.5323H16.8306ZM13.3807 15.0569C13.4787 15.0805 13.5797 15.0886 13.6802 15.081C13.7623 15.0752 13.841 15.0457 13.9067 14.9962C13.9724 14.9466 14.0224 14.8791 14.0506 14.8017C14.0093 14.8551 13.9574 14.8992 13.8981 14.9313C13.8388 14.9634 13.7734 14.9827 13.7062 14.9881V14.9813L13.7628 14.9527C13.8484 14.8987 13.9196 14.8249 13.9704 14.7374C14.0489 14.617 14.1223 14.4911 14.1974 14.3671C14.2772 14.2291 14.3714 14.0999 14.4784 13.9818C14.5114 13.9472 14.5468 13.9161 14.5812 13.8831L14.6041 13.8629L14.5998 13.8562C14.5668 13.873 14.5324 13.8882 14.5003 13.9043C14.3221 14.0046 14.1759 14.1531 14.0785 14.3329C14.0135 14.4451 13.9494 14.5583 13.8803 14.67C13.7997 14.8037 13.6776 14.9073 13.5326 14.9652C13.4635 14.9914 13.3901 15.0057 13.3183 15.0252L13.2943 15.0312V15.0389L13.3807 15.0569ZM16.9243 15.067C16.9243 15.0882 16.9404 15.0899 16.9563 15.0933C17.0285 15.1077 17.1008 15.1219 17.173 15.1415H17.1518L16.9655 15.1559C16.9351 15.1559 16.9308 15.1636 16.9414 15.1923C16.9531 15.2211 16.9663 15.2492 16.9811 15.2765C16.9844 15.2835 16.9903 15.289 16.9975 15.2918C17.0047 15.2946 17.0127 15.2946 17.0199 15.2917C17.1772 15.2605 17.337 15.2436 17.4974 15.2411C17.6213 15.2407 17.7452 15.2501 17.8677 15.2691C17.8906 15.2691 17.8973 15.263 17.8946 15.2411C17.892 15.2192 17.8785 15.226 17.8667 15.225C17.8 15.2183 17.7316 15.2149 17.6659 15.2048C17.5542 15.1846 17.4451 15.1515 17.3411 15.1061C17.2096 15.0523 17.0831 14.9871 16.9631 14.9113L16.939 14.8985C16.9292 14.9543 16.9225 15.0105 16.9188 15.067H16.9243ZM15.3854 12.9012C15.3255 12.7907 15.0344 12.7327 14.934 12.7526C14.7733 12.7934 14.617 12.8499 14.4673 12.9212C14.3831 12.9549 14.2928 12.9886 14.2025 13.0156C14.1133 13.0439 14.0175 13.0439 13.9282 13.0156C13.9054 13.0072 13.8835 12.9954 13.8574 12.9836V13.0004C13.8767 13.0457 13.9117 13.0825 13.9559 13.104C14.0002 13.1256 14.0507 13.1304 14.0982 13.1177C14.1944 13.0955 14.2881 13.0641 14.3783 13.024C14.5039 12.9734 14.6313 12.9219 14.758 12.8771C14.839 12.8481 14.9257 12.8389 15.011 12.8502C15.1508 12.8752 15.2842 12.928 15.4033 13.0055C15.4111 13.0154 15.4182 13.0258 15.4245 13.0368L15.4372 13.0283C15.42 12.9851 15.4006 12.9429 15.379 12.9017L15.3854 12.9012ZM16.651 12.8709C16.7002 12.9299 16.7661 12.9725 16.84 12.9932C16.8451 12.9932 16.8578 12.9932 16.8595 12.9855C16.8882 12.9164 16.9151 12.8463 16.9438 12.7755C16.9438 12.7705 16.9438 12.7594 16.9354 12.756C16.8956 12.7274 16.8561 12.6994 16.815 12.6717C16.8111 12.6697 16.8067 12.6686 16.8023 12.6686C16.7979 12.6686 16.7936 12.6697 16.7897 12.6717C16.7415 12.7283 16.697 12.7856 16.6505 12.8403L16.6438 12.8521L16.651 12.8709ZM16.651 13.4615C16.6941 13.3551 16.7353 13.2479 16.776 13.1401C16.7755 13.1286 16.7707 13.1178 16.7625 13.1097C16.7025 13.0666 16.6421 13.0255 16.5802 12.984C16.5742 12.9809 16.5676 12.9792 16.5608 12.9792C16.5541 12.9792 16.5474 12.9809 16.5414 12.984C16.4692 13.0683 16.3989 13.1586 16.3279 13.2455C16.3235 13.2506 16.3219 13.2573 16.3178 13.2633C16.3418 13.3284 16.387 13.3834 16.4461 13.4196C16.5052 13.4559 16.5747 13.4712 16.6435 13.4632L16.651 13.4615ZM17.7808 15.402C17.6042 15.3658 17.4222 15.3658 17.2457 15.402C17.3219 15.4598 17.4149 15.4911 17.5106 15.4911C17.6062 15.4911 17.6993 15.4598 17.7755 15.402H17.7808ZM16.9751 12.4322C16.938 12.4786 16.9029 12.5258 16.8629 12.5713C16.8494 12.5875 16.8511 12.5993 16.8629 12.6101L16.9351 12.664C16.952 12.6758 16.9614 12.6717 16.9688 12.6522C17.0001 12.568 17.0322 12.4837 17.0632 12.405L17.1215 12.2557H17.1155L16.9751 12.4322ZM16.7177 15.126C16.7187 15.1673 16.7324 15.2072 16.757 15.2403C16.7817 15.2733 16.816 15.298 16.8552 15.3107C16.8121 15.1745 16.7992 15.0306 16.8171 14.8889C16.762 14.9571 16.7275 15.0396 16.7177 15.1268V15.126Z" fill="#010101"/>
<path opacity="0.33" d="M16.9319 14.9019C16.9269 14.9608 16.9209 15.0141 16.9175 15.0704C16.9175 15.0916 16.9336 15.0933 16.9495 15.0966C17.0217 15.1111 17.094 15.1253 17.1662 15.1448H17.145L16.9587 15.1593C16.9283 15.1593 16.924 15.167 16.9346 15.1956C16.9463 15.2244 16.9595 15.2525 16.9743 15.2799C16.9776 15.2869 16.9835 15.2923 16.9907 15.2952C16.9979 15.298 17.0059 15.2979 17.0131 15.2951C17.1704 15.2639 17.3302 15.247 17.4905 15.2445C17.6145 15.2441 17.7383 15.2534 17.8609 15.2724C17.8837 15.2724 17.8905 15.2664 17.8878 15.2445C17.8852 15.2226 17.8717 15.2293 17.8599 15.2284C17.7932 15.2216 17.7248 15.2182 17.6591 15.2081C17.5473 15.188 17.4383 15.1548 17.3343 15.1094C17.2028 15.0557 17.0763 14.9905 16.9562 14.9146L16.9319 14.9019Z" fill="white"/>
<path opacity="0.33" d="M15.7954 13.6971C15.8796 13.6008 15.975 13.5526 16.0889 13.6229C16.1495 13.663 16.2077 13.7064 16.2635 13.7529C16.3097 13.7895 16.3585 13.8227 16.4094 13.8524C16.4162 13.8557 16.4238 13.8574 16.4314 13.8575C16.439 13.8575 16.4466 13.8558 16.4535 13.8526C16.4604 13.8494 16.4665 13.8447 16.4714 13.8388C16.4762 13.8329 16.4797 13.8261 16.4816 13.8187C16.4864 13.7925 16.4887 13.766 16.4883 13.7394C16.4887 13.7277 16.487 13.7159 16.4833 13.7048L16.4968 13.7158C16.5332 13.7577 16.56 13.807 16.5753 13.8603C16.5811 13.8741 16.5831 13.8891 16.5811 13.904C16.5792 13.9188 16.5733 13.9328 16.5642 13.9446C16.5473 13.9624 16.5558 13.9708 16.5692 13.9826L16.7489 14.1363L16.7944 14.1784C16.7918 14.1797 16.7889 14.1804 16.786 14.1804C16.783 14.1804 16.7801 14.1797 16.7775 14.1784L16.3819 13.9944C16.3683 13.9898 16.3534 13.9898 16.3398 13.9944C16.285 14.0099 16.2281 14.0162 16.1712 14.013C16.1395 14.0116 16.1086 14.0023 16.0813 13.986C16.0541 13.9696 16.0313 13.9467 16.0152 13.9193C15.9839 13.8677 15.9633 13.8104 15.9545 13.7508C15.9444 13.6925 15.9276 13.68 15.8703 13.6874C15.8522 13.691 15.8344 13.6958 15.817 13.7019L15.7975 13.7086C15.7963 13.707 15.7955 13.7051 15.7952 13.7031C15.7948 13.7011 15.7949 13.699 15.7954 13.6971ZM16.0966 13.881C16.1188 13.9018 16.146 13.9164 16.1756 13.9234C16.2051 13.9303 16.236 13.9294 16.2651 13.9208C16.2786 13.9183 16.2919 13.9149 16.3049 13.9106C16.2255 13.8238 16.1319 13.751 16.0282 13.6954C16.0318 13.7638 16.0556 13.8295 16.0966 13.8844V13.881Z" fill="#010101"/>
<path opacity="0.33" d="M17.1277 14.4378C17.1298 14.4292 17.1341 14.4212 17.1402 14.4148C17.1463 14.4083 17.1539 14.4035 17.1624 14.4009C17.1709 14.3982 17.1799 14.3978 17.1886 14.3997C17.1972 14.4016 17.2053 14.4057 17.2119 14.4116C17.2517 14.4356 17.2962 14.4739 17.3393 14.5052L17.3612 14.5238C17.3617 14.5184 17.3617 14.513 17.3612 14.5076C17.3295 14.427 17.2792 14.3551 17.2143 14.2977C17.1969 14.2848 17.1779 14.2743 17.1578 14.2664C17.1447 14.2602 17.13 14.2581 17.1157 14.2604C17.1014 14.2627 17.0881 14.2692 17.0776 14.2791C17.0667 14.2899 17.0595 14.3039 17.0571 14.3191C17.0546 14.3342 17.0571 14.3497 17.0641 14.3634C17.0763 14.3945 17.0986 14.4206 17.1274 14.4376L17.1277 14.4378Z" fill="#010101"/>
<path opacity="0.33" d="M16.0327 13.6969C16.0357 13.7637 16.0579 13.8282 16.0968 13.8825C16.1189 13.9033 16.1462 13.9179 16.1757 13.9249C16.2053 13.9319 16.2362 13.931 16.2653 13.9223C16.2788 13.9198 16.292 13.9164 16.305 13.9122C16.2269 13.8257 16.1349 13.7529 16.0327 13.6969Z" fill="url(#paint16_radial_1698_9817)"/>
<path opacity="0.33" d="M17.0162 12.9014C17.0162 12.9014 17.2329 13.1335 16.9664 13.4995C16.9281 13.3846 16.9173 13.2624 16.9351 13.1426C16.9758 13.0078 17.0162 12.9014 17.0162 12.9014Z" fill="url(#paint17_linear_1698_9817)"/>
<path opacity="0.33" d="M16.5095 12.2238C16.5095 12.2238 16.49 12.5055 16.6723 12.6042L16.4866 12.8074C16.4311 12.7192 16.4035 12.6162 16.4076 12.512C16.4117 12.4079 16.4472 12.3074 16.5095 12.2238Z" fill="url(#paint18_linear_1698_9817)"/>
<path opacity="0.33" d="M14.2318 15.084C14.2318 15.084 12.4259 17.7839 16.9846 16.4564C16.988 16.4577 13.8302 16.9257 14.2318 15.084Z" fill="url(#paint19_linear_1698_9817)"/>
<path opacity="0.33" d="M14.3845 14.5238C14.3845 14.5238 13.7029 15.1643 13.7231 15.9531C13.8162 15.4274 14.0441 14.935 14.3845 14.5238Z" fill="url(#paint20_linear_1698_9817)"/>
<path opacity="0.33" d="M15.6255 13.1156C15.6255 13.1156 13.9465 13.2143 13.5088 14.4654C13.4655 14.5381 13.3976 14.5928 13.3175 14.6198C13.2373 14.6467 13.1502 14.6441 13.0718 14.6123C13.0718 14.6123 13.4811 15.1952 13.8818 14.4654C13.8815 14.4688 14.1852 13.459 15.6255 13.1156Z" fill="url(#paint21_linear_1698_9817)"/>
<path opacity="0.33" d="M16.4032 12.9017C16.4032 12.9017 16.0538 11.8319 14.8913 12.4621C14.8913 12.4621 14.3488 12.7683 14.5783 12.2629C14.5783 12.2629 14.2602 12.5548 14.494 12.7582C14.7278 12.9617 15.2929 12.2731 15.5116 12.674L15.4441 12.5237V12.5052C15.5751 12.5667 15.6904 12.6573 15.7812 12.77C15.7812 12.77 15.9972 12.5338 16.4032 12.9017Z" fill="url(#paint22_linear_1698_9817)"/>
<path opacity="0.33" d="M15.3334 13.045C15.3334 13.045 14.8583 12.6426 14.2754 13.3707C14.401 13.2195 14.5679 13.1081 14.7559 13.0502C14.9438 12.9924 15.1445 12.9905 15.3334 13.045Z" fill="url(#paint23_linear_1698_9817)"/>
</g>
<defs>
<linearGradient id="paint0_linear_1698_9817" x1="15.4973" y1="31.2558" x2="15.4973" y2="12.6987" gradientUnits="userSpaceOnUse">
<stop stop-color="#66C8CF"/>
<stop offset="1" stop-color="#46C6E4"/>
</linearGradient>
<linearGradient id="paint1_linear_1698_9817" x1="0.0576172" y1="9.03308" x2="16.9641" y2="22.7213" gradientUnits="userSpaceOnUse">
<stop stop-color="#66C8CF"/>
<stop offset="1" stop-color="#46C6E4"/>
</linearGradient>
<linearGradient id="paint2_linear_1698_9817" x1="16.9434" y1="9.03308" x2="33.8464" y2="22.7208" gradientUnits="userSpaceOnUse">
<stop stop-color="#66C8CF"/>
<stop offset="1" stop-color="#46C6E4"/>
</linearGradient>
<linearGradient id="paint3_linear_1698_9817" x1="0.0576172" y1="6.51282" x2="16.9613" y2="20.2016" gradientUnits="userSpaceOnUse">
<stop stop-color="#66C8CF"/>
<stop offset="1" stop-color="#46C6E4"/>
</linearGradient>
<linearGradient id="paint4_linear_1698_9817" x1="16.9434" y1="6.51282" x2="33.847" y2="20.2004" gradientUnits="userSpaceOnUse">
<stop stop-color="#66C8CF"/>
<stop offset="1" stop-color="#46C6E4"/>
</linearGradient>
<linearGradient id="paint5_linear_1698_9817" x1="15.4977" y1="3.24207" x2="15.4977" y2="25.6841" gradientUnits="userSpaceOnUse">
<stop stop-color="#F1F0F0"/>
<stop offset="0.5" stop-color="#66C8CF"/>
<stop offset="1" stop-color="#46C6E4"/>
</linearGradient>
<linearGradient id="paint6_linear_1698_9817" x1="15.4977" y1="4.75366" x2="15.4977" y2="24.1723" gradientUnits="userSpaceOnUse">
<stop stop-color="#F1F0F0"/>
<stop offset="1" stop-color="#46C6E4"/>
</linearGradient>
<linearGradient id="paint7_linear_1698_9817" x1="15.4979" y1="21.8307" x2="15.4979" y2="7.09485" gradientUnits="userSpaceOnUse">
<stop stop-color="#F1F0F0"/>
<stop offset="1" stop-color="#010101"/>
</linearGradient>
<linearGradient id="paint8_linear_1698_9817" x1="12.9637" y1="8.61121" x2="12.9637" y2="8.61121" gradientUnits="userSpaceOnUse">
<stop stop-color="#F1F0F0"/>
<stop offset="0.5" stop-color="#66C8CF"/>
<stop offset="1" stop-color="#46C6E4"/>
</linearGradient>
<linearGradient id="paint9_linear_1698_9817" x1="18.0316" y1="14.4632" x2="18.0316" y2="8.61121" gradientUnits="userSpaceOnUse">
<stop stop-color="#F1F0F0"/>
<stop offset="0.5" stop-color="#66C8CF"/>
<stop offset="1" stop-color="#46C6E4"/>
</linearGradient>
<linearGradient id="paint10_linear_1698_9817" x1="18.0316" y1="17.3881" x2="18.0316" y2="11.5371" gradientUnits="userSpaceOnUse">
<stop stop-color="#F1F0F0"/>
<stop offset="0.5" stop-color="#66C8CF"/>
<stop offset="1" stop-color="#46C6E4"/>
</linearGradient>
<linearGradient id="paint11_linear_1698_9817" x1="18.0316" y1="20.314" x2="18.0316" y2="14.463" gradientUnits="userSpaceOnUse">
<stop stop-color="#F1F0F0"/>
<stop offset="0.5" stop-color="#66C8CF"/>
<stop offset="1" stop-color="#46C6E4"/>
</linearGradient>
<linearGradient id="paint12_linear_1698_9817" x1="12.9637" y1="14.464" x2="12.9637" y2="14.464" gradientUnits="userSpaceOnUse">
<stop stop-color="#F1F0F0"/>
<stop offset="0.5" stop-color="#66C8CF"/>
<stop offset="1" stop-color="#46C6E4"/>
</linearGradient>
<linearGradient id="paint13_linear_1698_9817" x1="12.9637" y1="17.3881" x2="12.9637" y2="11.5371" gradientUnits="userSpaceOnUse">
<stop stop-color="#F1F0F0"/>
<stop offset="0.5" stop-color="#66C8CF"/>
<stop offset="1" stop-color="#46C6E4"/>
</linearGradient>
<linearGradient id="paint14_linear_1698_9817" x1="15.4972" y1="10.6117" x2="15.4972" y2="18.3167" gradientUnits="userSpaceOnUse">
<stop stop-color="#F1F0F0"/>
<stop offset="0.5" stop-color="#66C8CF"/>
<stop offset="1" stop-color="#46C6E4"/>
</linearGradient>
<radialGradient id="paint15_radial_1698_9817" cx="0" cy="0" r="1" gradientUnits="userSpaceOnUse" gradientTransform="translate(-139.338 13.9953) rotate(180) scale(3.92606 3.92589)">
<stop stop-color="#61AEA6"/>
<stop offset="0.29" stop-color="#63B0A8"/>
<stop offset="0.44" stop-color="#6BB6AE"/>
<stop offset="0.57" stop-color="#79C0B8"/>
<stop offset="0.67" stop-color="#8CCFC7"/>
<stop offset="0.7" stop-color="#92D3CB"/>
</radialGradient>
<radialGradient id="paint16_radial_1698_9817" cx="0" cy="0" r="1" gradientUnits="userSpaceOnUse" gradientTransform="translate(7.09505 13.8141) scale(0.743114 0.744164)">
<stop stop-color="#61AEA6"/>
<stop offset="0.07" stop-color="#6CB6AE"/>
<stop offset="0.24" stop-color="#81C6BE"/>
<stop offset="0.4" stop-color="#8ED0C8"/>
<stop offset="0.56" stop-color="#92D3CB"/>
</radialGradient>
<linearGradient id="paint17_linear_1698_9817" x1="16.9273" y1="13.1998" x2="17.0997" y2="13.1998" gradientUnits="userSpaceOnUse">
<stop stop-color="#0E4B44"/>
<stop offset="0.24" stop-color="#0F4E48"/>
<stop offset="0.49" stop-color="#115655"/>
<stop offset="0.74" stop-color="#146369"/>
<stop offset="0.99" stop-color="#197686"/>
<stop offset="1" stop-color="#197787"/>
</linearGradient>
<linearGradient id="paint18_linear_1698_9817" x1="16.4051" y1="12.5156" x2="16.668" y2="12.5156" gradientUnits="userSpaceOnUse">
<stop stop-color="#0E4B44"/>
<stop offset="0.24" stop-color="#0F4E48"/>
<stop offset="0.49" stop-color="#115655"/>
<stop offset="0.74" stop-color="#146369"/>
<stop offset="0.99" stop-color="#197686"/>
<stop offset="1" stop-color="#197787"/>
</linearGradient>
<linearGradient id="paint19_linear_1698_9817" x1="13.882" y1="15.952" x2="16.9878" y2="15.952" gradientUnits="userSpaceOnUse">
<stop stop-color="#0E4B44"/>
<stop offset="0.24" stop-color="#0F4E48"/>
<stop offset="0.49" stop-color="#115655"/>
<stop offset="0.74" stop-color="#146369"/>
<stop offset="0.99" stop-color="#197686"/>
<stop offset="1" stop-color="#197787"/>
</linearGradient>
<linearGradient id="paint20_linear_1698_9817" x1="13.722" y1="15.2384" x2="14.3845" y2="15.2384" gradientUnits="userSpaceOnUse">
<stop stop-color="#0E4B44"/>
<stop offset="0.24" stop-color="#0F4E48"/>
<stop offset="0.49" stop-color="#115655"/>
<stop offset="0.74" stop-color="#146369"/>
<stop offset="0.99" stop-color="#197686"/>
<stop offset="1" stop-color="#197787"/>
</linearGradient>
<linearGradient id="paint21_linear_1698_9817" x1="13.0718" y1="13.9759" x2="15.6255" y2="13.9759" gradientUnits="userSpaceOnUse">
<stop stop-color="#0E4B44"/>
<stop offset="0.24" stop-color="#0F4E48"/>
<stop offset="0.49" stop-color="#115655"/>
<stop offset="0.74" stop-color="#146369"/>
<stop offset="0.99" stop-color="#197686"/>
<stop offset="1" stop-color="#197787"/>
</linearGradient>
<linearGradient id="paint22_linear_1698_9817" x1="14.4082" y1="12.583" x2="16.4032" y2="12.583" gradientUnits="userSpaceOnUse">
<stop stop-color="#0E4B44"/>
<stop offset="0.24" stop-color="#0F4E48"/>
<stop offset="0.49" stop-color="#115655"/>
<stop offset="0.74" stop-color="#146369"/>
<stop offset="0.99" stop-color="#197686"/>
<stop offset="1" stop-color="#197787"/>
</linearGradient>
<linearGradient id="paint23_linear_1698_9817" x1="14.2754" y1="13.1524" x2="15.3334" y2="13.1524" gradientUnits="userSpaceOnUse">
<stop stop-color="#0E4B44"/>
<stop offset="0.24" stop-color="#0F4E48"/>
<stop offset="0.49" stop-color="#115655"/>
<stop offset="0.74" stop-color="#146369"/>
<stop offset="0.99" stop-color="#197686"/>
<stop offset="1" stop-color="#197787"/>
</linearGradient>
</defs>
</svg>
